{
  "version": "1.1.6",
  "modules": [
    {
      "id": 1,
      "plugin": "Core",
      "version": "1.1.6",
      "model": "AudioInterface",
      "params": [],
      "leftModuleId": 7,
      "data": {
        "audio": {
          "driver": 8,
          "deviceName": "Headphones Realtek HD Audio (Realtek(R) Audio)",
          "offset": 0,
          "maxChannels": 8,
          "sampleRate": 44100,
          "blockSize": 256
        }
      },
      "pos": [
        113,
        0
      ]
    },
    {
      "id": 7,
      "plugin": "Fundamental",
      "version": "1.4.0",
      "model": "Scope",
      "params": [
        {
          "id": 0,
          "value": 2.0
        },
        {
          "id": 1,
          "value": -1.25999999
        },
        {
          "id": 2,
          "value": 2.0
        },
        {
          "id": 3,
          "value": 1.22999978
        },
        {
          "id": 4,
          "value": 14.0
        },
        {
          "id": 5,
          "value": 0.0
        },
        {
          "id": 6,
          "value": 0.200000674
        },
        {
          "id": 7,
          "value": 0.0
        }
      ],
      "leftModuleId": 163,
      "rightModuleId": 1,
      "data": {
        "lissajous": 0,
        "external": 0
      },
      "pos": [
        100,
        0
      ]
    },
    {
      "id": 145,
      "plugin": "mscHack",
      "version": "1.0.2",
      "model": "Mix_16_4_4",
      "params": [
        {
          "id": 0,
          "value": 0.186000004
        },
        {
          "id": 1,
          "value": 0.809999466
        },
        {
          "id": 2,
          "value": 0.543000042
        },
        {
          "id": 3,
          "value": 0.540000558
        },
        {
          "id": 4,
          "value": 0.0600000024
        },
        {
          "id": 5,
          "value": 0.600000083
        },
        {
          "id": 6,
          "value": 0.0
        },
        {
          "id": 7,
          "value": 0.0
        },
        {
          "id": 8,
          "value": 0.0
        },
        {
          "id": 9,
          "value": 0.0
        },
        {
          "id": 10,
          "value": 0.0
        },
        {
          "id": 11,
          "value": 0.0
        },
        {
          "id": 12,
          "value": 0.0
        },
        {
          "id": 13,
          "value": 0.0
        },
        {
          "id": 14,
          "value": 0.0
        },
        {
          "id": 15,
          "value": 0.0
        },
        {
          "id": 16,
          "value": 0.0
        },
        {
          "id": 17,
          "value": 0.0
        },
        {
          "id": 18,
          "value": 0.0
        },
        {
          "id": 19,
          "value": 0.0
        },
        {
          "id": 20,
          "value": 0.0
        },
        {
          "id": 21,
          "value": 0.744999945
        },
        {
          "id": 22,
          "value": 0.694000125
        },
        {
          "id": 23,
          "value": 0.0
        },
        {
          "id": 24,
          "value": 0.0
        },
        {
          "id": 25,
          "value": 0.0
        },
        {
          "id": 26,
          "value": 0.0
        },
        {
          "id": 27,
          "value": 0.0
        },
        {
          "id": 28,
          "value": 0.0
        },
        {
          "id": 29,
          "value": 0.0
        },
        {
          "id": 30,
          "value": 0.0
        },
        {
          "id": 31,
          "value": 0.0
        },
        {
          "id": 32,
          "value": 0.0
        },
        {
          "id": 33,
          "value": 0.0
        },
        {
          "id": 34,
          "value": 0.0
        },
        {
          "id": 35,
          "value": 0.0
        },
        {
          "id": 36,
          "value": 0.0
        },
        {
          "id": 37,
          "value": 0.0
        },
        {
          "id": 38,
          "value": 0.0
        },
        {
          "id": 39,
          "value": 0.0
        },
        {
          "id": 40,
          "value": 0.0
        },
        {
          "id": 41,
          "value": 0.0
        },
        {
          "id": 42,
          "value": 0.0
        },
        {
          "id": 43,
          "value": 0.0
        },
        {
          "id": 44,
          "value": 0.0
        },
        {
          "id": 45,
          "value": 0.0
        },
        {
          "id": 46,
          "value": 0.0
        },
        {
          "id": 47,
          "value": 0.0
        },
        {
          "id": 48,
          "value": 0.0
        },
        {
          "id": 49,
          "value": 0.497500002
        },
        {
          "id": 50,
          "value": 0.5
        },
        {
          "id": 51,
          "value": 0.5
        },
        {
          "id": 52,
          "value": 0.5
        },
        {
          "id": 53,
          "value": 0.5
        },
        {
          "id": 54,
          "value": 0.5
        },
        {
          "id": 55,
          "value": 0.5
        },
        {
          "id": 56,
          "value": 0.5
        },
        {
          "id": 57,
          "value": 0.5
        },
        {
          "id": 58,
          "value": 0.5
        },
        {
          "id": 59,
          "value": 0.5
        },
        {
          "id": 60,
          "value": 0.5
        },
        {
          "id": 61,
          "value": 0.5
        },
        {
          "id": 62,
          "value": 0.5
        },
        {
          "id": 63,
          "value": 0.5
        },
        {
          "id": 64,
          "value": 0.5
        },
        {
          "id": 65,
          "value": 0.5
        },
        {
          "id": 66,
          "value": 0.5
        },
        {
          "id": 67,
          "value": 0.5
        },
        {
          "id": 68,
          "value": 0.5
        },
        {
          "id": 69,
          "value": 0.5
        },
        {
          "id": 70,
          "value": 0.5
        },
        {
          "id": 71,
          "value": 0.5
        },
        {
          "id": 72,
          "value": 0.5
        },
        {
          "id": 73,
          "value": 0.493499994
        },
        {
          "id": 74,
          "value": 0.5
        },
        {
          "id": 75,
          "value": 0.5
        },
        {
          "id": 76,
          "value": 0.5
        },
        {
          "id": 77,
          "value": 0.5
        },
        {
          "id": 78,
          "value": 0.5
        },
        {
          "id": 79,
          "value": 0.5
        },
        {
          "id": 80,
          "value": 0.5
        },
        {
          "id": 81,
          "value": 0.5
        },
        {
          "id": 82,
          "value": 0.5
        },
        {
          "id": 83,
          "value": 0.5
        },
        {
          "id": 84,
          "value": 0.5
        },
        {
          "id": 85,
          "value": 0.5
        },
        {
          "id": 86,
          "value": 0.5
        },
        {
          "id": 87,
          "value": 0.5
        },
        {
          "id": 88,
          "value": 0.5
        },
        {
          "id": 89,
          "value": 0.5
        },
        {
          "id": 90,
          "value": 0.5
        },
        {
          "id": 91,
          "value": 0.5
        },
        {
          "id": 92,
          "value": 0.5
        },
        {
          "id": 93,
          "value": 0.5
        },
        {
          "id": 94,
          "value": 0.5
        },
        {
          "id": 95,
          "value": 0.5
        },
        {
          "id": 96,
          "value": 0.5
        },
        {
          "id": 97,
          "value": 0.497500002
        },
        {
          "id": 98,
          "value": 0.5
        },
        {
          "id": 99,
          "value": 0.5
        },
        {
          "id": 100,
          "value": 0.5
        },
        {
          "id": 101,
          "value": 0.5
        },
        {
          "id": 102,
          "value": 0.5
        },
        {
          "id": 103,
          "value": 0.5
        },
        {
          "id": 104,
          "value": 0.5
        },
        {
          "id": 105,
          "value": 0.5
        },
        {
          "id": 106,
          "value": 0.5
        },
        {
          "id": 107,
          "value": 0.5
        },
        {
          "id": 108,
          "value": 0.5
        },
        {
          "id": 109,
          "value": 0.5
        },
        {
          "id": 110,
          "value": 0.5
        },
        {
          "id": 111,
          "value": 0.5
        },
        {
          "id": 112,
          "value": 0.5
        },
        {
          "id": 113,
          "value": 0.5
        },
        {
          "id": 114,
          "value": 0.5
        },
        {
          "id": 115,
          "value": 0.5
        },
        {
          "id": 116,
          "value": 0.5
        },
        {
          "id": 117,
          "value": 0.5
        },
        {
          "id": 118,
          "value": 0.5
        },
        {
          "id": 119,
          "value": 0.5
        },
        {
          "id": 120,
          "value": 0.5
        },
        {
          "id": 121,
          "value": 0.188999817
        },
        {
          "id": 122,
          "value": 0.200999632
        },
        {
          "id": 123,
          "value": 0.0
        },
        {
          "id": 124,
          "value": 0.0
        },
        {
          "id": 125,
          "value": 0.195000038
        },
        {
          "id": 126,
          "value": 0.204000041
        },
        {
          "id": 127,
          "value": 0.0
        },
        {
          "id": 128,
          "value": 0.0
        },
        {
          "id": 129,
          "value": 0.202500001
        },
        {
          "id": 130,
          "value": 0.0
        },
        {
          "id": 131,
          "value": 0.0
        },
        {
          "id": 132,
          "value": 0.0
        },
        {
          "id": 133,
          "value": 0.501000226
        },
        {
          "id": 134,
          "value": 0.206999987
        },
        {
          "id": 135,
          "value": 0.0
        },
        {
          "id": 136,
          "value": 0.0
        },
        {
          "id": 137,
          "value": 0.0
        },
        {
          "id": 138,
          "value": 0.0
        },
        {
          "id": 139,
          "value": 0.0
        },
        {
          "id": 140,
          "value": 0.0
        },
        {
          "id": 141,
          "value": 0.0
        },
        {
          "id": 142,
          "value": 0.0
        },
        {
          "id": 143,
          "value": 0.0
        },
        {
          "id": 144,
          "value": 0.0
        },
        {
          "id": 145,
          "value": 0.0
        },
        {
          "id": 146,
          "value": 0.0
        },
        {
          "id": 147,
          "value": 0.0
        },
        {
          "id": 148,
          "value": 0.0
        },
        {
          "id": 149,
          "value": 0.0
        },
        {
          "id": 150,
          "value": 0.0
        },
        {
          "id": 151,
          "value": 0.0
        },
        {
          "id": 152,
          "value": 0.0
        },
        {
          "id": 153,
          "value": 0.0
        },
        {
          "id": 154,
          "value": 0.0
        },
        {
          "id": 155,
          "value": 0.0
        },
        {
          "id": 156,
          "value": 0.0
        },
        {
          "id": 157,
          "value": 0.0
        },
        {
          "id": 158,
          "value": 0.0
        },
        {
          "id": 159,
          "value": 0.0
        },
        {
          "id": 160,
          "value": 0.0
        },
        {
          "id": 161,
          "value": 0.0
        },
        {
          "id": 162,
          "value": 0.0
        },
        {
          "id": 163,
          "value": 0.0
        },
        {
          "id": 164,
          "value": 0.0
        },
        {
          "id": 165,
          "value": 0.0
        },
        {
          "id": 166,
          "value": 0.0
        },
        {
          "id": 167,
          "value": 0.0
        },
        {
          "id": 168,
          "value": 0.0
        },
        {
          "id": 169,
          "value": 0.0
        },
        {
          "id": 170,
          "value": 0.0
        },
        {
          "id": 171,
          "value": 0.0
        },
        {
          "id": 172,
          "value": 0.0
        },
        {
          "id": 173,
          "value": 0.0
        },
        {
          "id": 174,
          "value": 0.0
        },
        {
          "id": 175,
          "value": 0.0
        },
        {
          "id": 176,
          "value": 0.0
        },
        {
          "id": 177,
          "value": 0.0
        },
        {
          "id": 178,
          "value": 0.0
        },
        {
          "id": 179,
          "value": 0.0
        },
        {
          "id": 180,
          "value": 0.0
        },
        {
          "id": 181,
          "value": 0.0
        },
        {
          "id": 182,
          "value": 0.0
        },
        {
          "id": 183,
          "value": 0.0
        },
        {
          "id": 184,
          "value": 0.0
        },
        {
          "id": 185,
          "value": 0.0
        },
        {
          "id": 186,
          "value": 0.0
        },
        {
          "id": 187,
          "value": 0.0
        },
        {
          "id": 188,
          "value": 0.0
        },
        {
          "id": 189,
          "value": 0.0
        },
        {
          "id": 190,
          "value": 0.0
        },
        {
          "id": 191,
          "value": 0.0
        },
        {
          "id": 192,
          "value": 0.0
        },
        {
          "id": 193,
          "value": 0.0
        },
        {
          "id": 194,
          "value": 0.0
        },
        {
          "id": 195,
          "value": 0.0
        },
        {
          "id": 196,
          "value": 0.0
        },
        {
          "id": 197,
          "value": 0.0
        },
        {
          "id": 198,
          "value": 0.0
        },
        {
          "id": 199,
          "value": 0.0
        },
        {
          "id": 200,
          "value": 0.0
        },
        {
          "id": 201,
          "value": 1.0
        },
        {
          "id": 202,
          "value": 1.0
        },
        {
          "id": 203,
          "value": 0.0
        },
        {
          "id": 204,
          "value": 0.0
        }
      ],
      "rightModuleId": 164,
      "data": {
        "m_bMuteStates": [
          false,
          false,
          false,
          false,
          false,
          false,
          false,
          false,
          false,
          false,
          false,
          false,
          false,
          false,
          false,
          false,
          false,
          false,
          false,
          false,
          false,
          false,
          false,
          false
        ],
        "m_bSoloStates": [
          false,
          false,
          false,
          false,
          false,
          false,
          false,
          false,
          false,
          false,
          false,
          false,
          false,
          false,
          false,
          false,
          false,
          false,
          false,
          false,
          false,
          false,
          false,
          false
        ],
        "m_iRouteGroup": [
          4,
          4,
          4,
          4,
          4,
          4,
          4,
          4,
          4,
          4,
          4,
          4,
          4,
          4,
          4,
          4
        ],
        "m_bGroupPreMute": [
          true
        ],
        "m_bGainLevelx2": [
          false
        ],
        "m_bPreFader": [
          false,
          false,
          false,
          false,
          false,
          false,
          false,
          false,
          false,
          false,
          false,
          false,
          false,
          false,
          false,
          false,
          false,
          false,
          false,
          false
        ],
        "m_bAuxIgnoreSolo": [
          false
        ]
      },
      "pos": [
        31,
        0
      ]
    },
    {
      "id": 146,
      "plugin": "ImpromptuModular",
      "version": "1.1.3",
      "model": "Clocked",
      "params": [
        {
          "id": 0,
          "value": 46.0
        },
        {
          "id": 1,
          "value": 5.0
        },
        {
          "id": 2,
          "value": -5.0
        },
        {
          "id": 3,
          "value": -4.0
        },
        {
          "id": 4,
          "value": 0.0
        },
        {
          "id": 5,
          "value": 0.0
        },
        {
          "id": 6,
          "value": 0.0
        },
        {
          "id": 7,
          "value": 0.0
        },
        {
          "id": 8,
          "value": 0.5
        },
        {
          "id": 9,
          "value": 0.5
        },
        {
          "id": 10,
          "value": 0.5
        },
        {
          "id": 11,
          "value": 0.5
        },
        {
          "id": 12,
          "value": 0.0
        },
        {
          "id": 13,
          "value": 0.0
        },
        {
          "id": 14,
          "value": 0.0
        },
        {
          "id": 15,
          "value": 0.0
        },
        {
          "id": 16,
          "value": 0.0
        },
        {
          "id": 17,
          "value": 0.0
        },
        {
          "id": 18,
          "value": 0.0
        },
        {
          "id": 19,
          "value": 0.0
        }
      ],
      "leftModuleId": 147,
      "data": {
        "panelTheme": 0,
        "running": true,
        "displayDelayNoteMode": true,
        "bpmDetectionMode": false,
        "restartOnStopStartRun": 0,
        "sendResetOnRestart": false,
        "ppqn": 4,
        "resetClockOutputsHigh": true,
        "momentaryRunInput": true
      },
      "pos": [
        10,
        0
      ]
    },
    {
      "id": 147,
      "plugin": "RJModules",
      "version": "1.5.0",
      "model": "Button",
      "params": [
        {
          "id": 0,
          "value": 0.0
        }
      ],
      "rightModuleId": 146,
      "pos": [
        0,
        0
      ]
    },
    {
      "id": 148,
      "plugin": "RJModules",
      "version": "1.5.0",
      "model": "ReplayKnob",
      "params": [
        {
          "id": 0,
          "value": 0.0
        },
        {
          "id": 1,
          "value": 0.0
        },
        {
          "id": 2,
          "value": 0.0
        },
        {
          "id": 3,
          "value": 0.0
        },
        {
          "id": 4,
          "value": 1.0
        },
        {
          "id": 5,
          "value": 1.84500897
        },
        {
          "id": 6,
          "value": 0.0
        },
        {
          "id": 7,
          "value": 0.0
        },
        {
          "id": 8,
          "value": 0.0
        },
        {
          "id": 9,
          "value": 1.0
        }
      ],
      "leftModuleId": 160,
      "rightModuleId": 175,
      "pos": [
        64,
        1
      ]
    },
    {
      "id": 150,
      "plugin": "RJModules",
      "version": "1.5.0",
      "model": "BitCrush",
      "params": [
        {
          "id": 0,
          "value": 0.0
        },
        {
          "id": 1,
          "value": 0.0
        }
      ],
      "pos": [
        123,
        1
      ]
    },
    {
      "id": 156,
      "plugin": "AudibleInstruments",
      "version": "1.0.0",
      "model": "Stages",
      "params": [
        {
          "id": 0,
          "value": 0.495464444
        },
        {
          "id": 1,
          "value": 0.0
        },
        {
          "id": 2,
          "value": 0.0
        },
        {
          "id": 3,
          "value": 0.0
        },
        {
          "id": 4,
          "value": 0.0
        },
        {
          "id": 5,
          "value": 0.0
        },
        {
          "id": 6,
          "value": 0.0
        },
        {
          "id": 7,
          "value": 0.0
        },
        {
          "id": 8,
          "value": 0.0
        },
        {
          "id": 9,
          "value": 0.0
        },
        {
          "id": 10,
          "value": 0.0
        },
        {
          "id": 11,
          "value": 0.0
        },
        {
          "id": 12,
          "value": 0.255726397
        },
        {
          "id": 13,
          "value": 0.0
        },
        {
          "id": 14,
          "value": 0.113461189
        },
        {
          "id": 15,
          "value": 0.438952595
        },
        {
          "id": 16,
          "value": 0.210000008
        },
        {
          "id": 17,
          "value": 0.614592254
        }
      ],
      "leftModuleId": 169,
      "rightModuleId": 157,
      "data": {
        "configurations": [
          {
            "type": 0,
            "loop": false
          },
          {
            "type": 1,
            "loop": false
          },
          {
            "type": 1,
            "loop": false
          },
          {
            "type": 1,
            "loop": false
          },
          {
            "type": 1,
            "loop": false
          },
          {
            "type": 1,
            "loop": false
          }
        ]
      },
      "pos": [
        3,
        1
      ]
    },
    {
      "id": 157,
      "plugin": "Fundamental",
      "version": "1.4.0",
      "model": "VCA-1",
      "params": [
        {
          "id": 0,
          "value": 0.121500172
        },
        {
          "id": 1,
          "value": 1.0
        }
      ],
      "leftModuleId": 156,
      "rightModuleId": 161,
      "pos": [
        17,
        1
      ]
    },
    {
      "id": 158,
      "plugin": "ML_modules",
      "version": "1.0.5",
      "model": "Quantum",
      "params": [
        {
          "id": 0,
          "value": 0.0
        },
        {
          "id": 1,
          "value": 0.0
        },
        {
          "id": 2,
          "value": 0.0
        },
        {
          "id": 3,
          "value": 0.0
        },
        {
          "id": 4,
          "value": 0.0
        },
        {
          "id": 5,
          "value": 0.0
        },
        {
          "id": 6,
          "value": 0.0
        },
        {
          "id": 7,
          "value": 0.0
        },
        {
          "id": 8,
          "value": 0.0
        },
        {
          "id": 9,
          "value": 0.0
        },
        {
          "id": 10,
          "value": 0.0
        },
        {
          "id": 11,
          "value": 0.0
        }
      ],
      "leftModuleId": 167,
      "rightModuleId": 159,
      "data": {
        "scale": [
          1,
          0,
          0,
          1,
          0,
          0,
          0,
          1,
          0,
          0,
          1,
          0
        ],
        "mode": 1,
        "transpose_select": 1,
        "toggle_mode": 1
      },
      "pos": [
        28,
        1
      ]
    },
    {
      "id": 159,
      "plugin": "ML_modules",
      "version": "1.0.5",
      "model": "Quantum",
      "params": [
        {
          "id": 0,
          "value": 0.0
        },
        {
          "id": 1,
          "value": 0.0
        },
        {
          "id": 2,
          "value": 0.0
        },
        {
          "id": 3,
          "value": 0.0
        },
        {
          "id": 4,
          "value": 0.0
        },
        {
          "id": 5,
          "value": 0.0
        },
        {
          "id": 6,
          "value": 0.0
        },
        {
          "id": 7,
          "value": 0.0
        },
        {
          "id": 8,
          "value": 0.0
        },
        {
          "id": 9,
          "value": 0.0
        },
        {
          "id": 10,
          "value": 0.0
        },
        {
          "id": 11,
          "value": 0.0
        }
      ],
      "leftModuleId": 158,
      "rightModuleId": 166,
      "data": {
        "scale": [
          1,
          0,
          1,
          1,
          0,
          0,
          0,
          1,
          1,
          0,
          1,
          0
        ],
        "mode": 1,
        "transpose_select": 1,
        "toggle_mode": 1
      },
      "pos": [
        36,
        1
      ]
    },
    {
      "id": 160,
      "plugin": "Bogaudio",
      "version": "1.1.25",
      "model": "Bogaudio-FMOp",
      "params": [
        {
          "id": 0,
          "value": 0.00600005919
        },
        {
          "id": 1,
          "value": 0.0
        },
        {
          "id": 2,
          "value": 0.0
        },
        {
          "id": 3,
          "value": 0.178500041
        },
        {
          "id": 4,
          "value": 0.0
        },
        {
          "id": 5,
          "value": 0.406500489
        },
        {
          "id": 6,
          "value": 0.788999975
        },
        {
          "id": 7,
          "value": 0.200999931
        },
        {
          "id": 8,
          "value": 1.0
        },
        {
          "id": 9,
          "value": 1.0
        },
        {
          "id": 10,
          "value": 0.0
        },
        {
          "id": 11,
          "value": 0.0
        }
      ],
      "leftModuleId": 165,
      "rightModuleId": 148,
      "data": {
        "linearLevel": false
      },
      "pos": [
        54,
        1
      ]
    },
    {
      "id": 161,
      "plugin": "Bogaudio",
      "version": "1.1.25",
      "model": "Bogaudio-VU",
      "params": [],
      "leftModuleId": 157,
      "rightModuleId": 167,
      "pos": [
        20,
        1
      ]
    },
    {
      "id": 163,
      "plugin": "AlrightDevices",
      "version": "1.0.2",
      "model": "Chronoblob2",
      "params": [
        {
          "id": 0,
          "value": 0.507500052
        },
        {
          "id": 1,
          "value": 0.497500002
        },
        {
          "id": 2,
          "value": 1.0
        },
        {
          "id": 3,
          "value": -0.0139999958
        },
        {
          "id": 4,
          "value": 0.255999714
        },
        {
          "id": 5,
          "value": 0.0489999056
        },
        {
          "id": 6,
          "value": 0.0479998365
        },
        {
          "id": 7,
          "value": 0.0
        },
        {
          "id": 8,
          "value": 1.0
        },
        {
          "id": 9,
          "value": 0.0
        }
      ],
      "leftModuleId": 164,
      "rightModuleId": 7,
      "data": {
        "delay_mode": 1,
        "hold_behavior": 0,
        "sync_prescaler": 6
      },
      "pos": [
        88,
        0
      ]
    },
    {
      "id": 164,
      "plugin": "Valley",
      "version": "1.0.1",
      "model": "Plateau",
      "params": [
        {
          "id": 0,
          "value": 0.0
        },
        {
          "id": 1,
          "value": 1.0
        },
        {
          "id": 2,
          "value": 0.0712501407
        },
        {
          "id": 3,
          "value": 10.0
        },
        {
          "id": 4,
          "value": 8.57499504
        },
        {
          "id": 5,
          "value": 0.512002766
        },
        {
          "id": 6,
          "value": 10.0
        },
        {
          "id": 7,
          "value": 0.547700524
        },
        {
          "id": 8,
          "value": 10.0
        },
        {
          "id": 9,
          "value": 6.83500051
        },
        {
          "id": 10,
          "value": 0.0
        },
        {
          "id": 11,
          "value": 0.485499799
        },
        {
          "id": 12,
          "value": 6.59600449
        },
        {
          "id": 13,
          "value": 0.0
        },
        {
          "id": 14,
          "value": 0.0
        },
        {
          "id": 15,
          "value": 0.0
        },
        {
          "id": 16,
          "value": 0.0
        },
        {
          "id": 17,
          "value": 0.0
        },
        {
          "id": 18,
          "value": 0.0
        },
        {
          "id": 19,
          "value": 0.0
        },
        {
          "id": 20,
          "value": 0.0
        },
        {
          "id": 21,
          "value": 0.0150001133
        },
        {
          "id": 22,
          "value": -0.0239999462
        },
        {
          "id": 23,
          "value": 0.0
        },
        {
          "id": 24,
          "value": 0.0
        },
        {
          "id": 25,
          "value": 0.0
        },
        {
          "id": 26,
          "value": 0.0
        },
        {
          "id": 27,
          "value": 0.0
        },
        {
          "id": 28,
          "value": 0.0
        },
        {
          "id": 29,
          "value": 0.0
        },
        {
          "id": 30,
          "value": 1.0
        }
      ],
      "leftModuleId": 145,
      "rightModuleId": 163,
      "data": {
        "frozen": false,
        "freezeToggle": false,
        "panelStyle": 0,
        "tuned": 0,
        "diffuseInput": 1,
        "preDelayCVSens": 0,
        "inputSensitivity": 0,
        "outputSaturation": 0
      },
      "pos": [
        76,
        0
      ]
    },
    {
      "id": 165,
      "plugin": "Fundamental",
      "version": "1.4.0",
      "model": "Split",
      "params": [],
      "leftModuleId": 166,
      "rightModuleId": 160,
      "pos": [
        49,
        1
      ]
    },
    {
      "id": 166,
      "plugin": "Fundamental",
      "version": "1.4.0",
      "model": "Split",
      "params": [],
      "leftModuleId": 159,
      "rightModuleId": 165,
      "pos": [
        44,
        1
      ]
    },
    {
      "id": 167,
      "plugin": "Fundamental",
      "version": "1.4.0",
      "model": "Merge",
      "params": [],
      "leftModuleId": 161,
      "rightModuleId": 158,
      "data": {
        "channels": -1
      },
      "pos": [
        23,
        1
      ]
    },
    {
      "id": 169,
      "plugin": "Bogaudio",
      "version": "1.1.25",
      "model": "Bogaudio-SampleHold",
      "params": [
        {
          "id": 0,
          "value": 0.0
        },
        {
          "id": 1,
          "value": 0.0
        },
        {
          "id": 2,
          "value": 0.0
        },
        {
          "id": 3,
          "value": 0.0
        },
        {
          "id": 4,
          "value": 0.0
        },
        {
          "id": 5,
          "value": 0.0
        }
      ],
      "rightModuleId": 156,
      "data": {
        "noise_type": 0,
        "range_offset": 1.0,
        "range_scale": 5.0
      },
      "pos": [
        0,
        1
      ]
    },
    {
      "id": 171,
      "plugin": "Fundamental",
      "version": "1.4.0",
      "model": "Scope",
      "params": [
        {
          "id": 0,
          "value": -0.0
        },
        {
          "id": 1,
          "value": 0.0
        },
        {
          "id": 2,
          "value": 0.0
        },
        {
          "id": 3,
          "value": 0.0
        },
        {
          "id": 4,
          "value": 8.83500576
        },
        {
          "id": 5,
          "value": 0.0
        },
        {
          "id": 6,
          "value": 0.0
        },
        {
          "id": 7,
          "value": 0.0
        }
      ],
      "data": {
        "lissajous": 0,
        "external": 0
      },
      "pos": [
        69,
        2
      ]
    },
    {
      "id": 173,
      "plugin": "Bogaudio",
      "version": "1.1.25",
      "model": "Bogaudio-FMOp",
      "params": [
        {
          "id": 0,
          "value": 0.0
        },
        {
          "id": 1,
          "value": 0.0
        },
        {
          "id": 2,
          "value": 0.0
        },
        {
          "id": 3,
          "value": 0.276999921
        },
        {
          "id": 4,
          "value": 0.30600059
        },
        {
          "id": 5,
          "value": 0.307500213
        },
        {
          "id": 6,
          "value": 0.0
        },
        {
          "id": 7,
          "value": 0.295500785
        },
        {
          "id": 8,
          "value": 1.0
        },
        {
          "id": 9,
          "value": 1.0
        },
        {
          "id": 10,
          "value": 0.0
        },
        {
          "id": 11,
          "value": 0.0
        }
      ],
      "rightModuleId": 189,
      "data": {
        "linearLevel": false
      },
      "pos": [
        78,
        1
      ]
    },
    {
      "id": 175,
      "plugin": "Bogaudio",
      "version": "1.1.25",
      "model": "Bogaudio-Stack",
      "params": [
        {
          "id": 0,
          "value": 7.0
        },
        {
          "id": 1,
          "value": -2.0
        },
        {
          "id": 2,
          "value": 0.0
        },
        {
          "id": 3,
          "value": 1.0
        }
      ],
      "leftModuleId": 148,
      "pos": [
        74,
        1
      ]
    },
    {
      "id": 187,
      "plugin": "Fundamental",
      "version": "1.4.0",
      "model": "Scope",
      "params": [
        {
          "id": 0,
          "value": -1.0
        },
        {
          "id": 1,
          "value": 0.0
        },
        {
          "id": 2,
          "value": -1.0
        },
        {
          "id": 3,
          "value": 0.0
        },
        {
          "id": 4,
          "value": 6.0
        },
        {
          "id": 5,
          "value": 0.0
        },
        {
          "id": 6,
          "value": 0.0
        },
        {
          "id": 7,
          "value": 0.0
        }
      ],
      "data": {
        "lissajous": 0,
        "external": 0
      },
      "pos": [
        90,
        2
      ]
    },
    {
      "id": 188,
      "plugin": "Bogaudio",
      "version": "1.1.25",
      "model": "Bogaudio-LFO",
      "params": [
        {
          "id": 0,
          "value": -4.32899904
        },
        {
          "id": 1,
          "value": 0.0
        },
        {
          "id": 2,
          "value": 0.0
        },
        {
          "id": 3,
          "value": 0.0119999591
        },
        {
          "id": 4,
          "value": 0.0280000493
        },
        {
          "id": 5,
          "value": 1.0
        }
      ],
      "leftModuleId": 189,
      "pos": [
        91,
        1
      ]
    },
    {
      "id": 189,
      "plugin": "Bogaudio",
      "version": "1.1.25",
      "model": "Bogaudio-VCAmp",
      "params": [
        {
          "id": 0,
          "value": 0.51850009
        }
      ],
      "leftModuleId": 173,
      "rightModuleId": 188,
      "pos": [
        88,
        1
      ]
    },
    {
      "id": 190,
      "plugin": "VultModulesFree",
      "version": "1.6.0",
      "model": "Basal",
      "params": [
        {
          "id": 0,
          "value": 0.0
        },
        {
          "id": 1,
          "value": -0.170999989
        },
        {
          "id": 2,
          "value": 0.0
        },
        {
          "id": 3,
          "value": 0.0
        },
        {
          "id": 4,
          "value": 0.0
        },
        {
          "id": 5,
          "value": 0.0
        }
      ],
      "rightModuleId": 191,
      "pos": [
        23,
        2
      ]
    },
    {
      "id": 191,
      "plugin": "VultModulesFree",
      "version": "1.6.0",
      "model": "Slap",
      "params": [
        {
          "id": 0,
          "value": 0.0
        },
        {
          "id": 1,
          "value": 0.687500179
        },
        {
          "id": 2,
          "value": 0.82499975
        },
        {
          "id": 3,
          "value": 0.503000021
        },
        {
          "id": 4,
          "value": 0.0
        },
        {
          "id": 5,
          "value": 0.0
        },
        {
          "id": 6,
          "value": 0.0
        },
        {
          "id": 7,
          "value": 0.0179999806
        },
        {
          "id": 8,
          "value": 0.0
        }
      ],
      "leftModuleId": 190,
      "pos": [
        29,
        2
      ]
    },
    {
      "id": 193,
      "plugin": "Geodesics",
      "version": "1.1.0",
      "model": "Energy",
      "params": [
        {
          "id": 0,
          "value": 0.0
        },
        {
          "id": 1,
          "value": 0.0
        },
        {
          "id": 2,
          "value": 0.0
        },
        {
          "id": 3,
          "value": 0.0
        },
        {
          "id": 4,
          "value": 0.0
        },
        {
          "id": 5,
          "value": 1.65000153
        },
        {
          "id": 6,
          "value": -3.0
        },
        {
          "id": 7,
          "value": 0.092835784
        },
        {
          "id": 8,
          "value": 0.33408922
        },
        {
          "id": 9,
          "value": 0.0
        }
      ],
      "data": {
        "panelTheme": 1,
        "oscM_phase": 1955054240,
        "oscC_phase": 3613440304,
        "osc1M_phase": 0,
        "osc1C_phase": 0,
        "osc2M_phase": 0,
        "osc2C_phase": 0,
        "osc3M_phase": 0,
        "osc3C_phase": 0,
        "osc4M_phase": 0,
        "osc4C_phase": 0,
        "osc5M_phase": 0,
        "osc5C_phase": 0,
        "osc6M_phase": 0,
        "osc6C_phase": 0,
        "osc7M_phase": 0,
        "osc7C_phase": 0,
        "osc8M_phase": 0,
        "osc8C_phase": 0,
        "osc9M_phase": 0,
        "osc9C_phase": 0,
        "osc10M_phase": 0,
        "osc10C_phase": 0,
        "osc11M_phase": 0,
        "osc11C_phase": 0,
        "osc12M_phase": 0,
        "osc12C_phase": 0,
        "osc13M_phase": 0,
        "osc13C_phase": 0,
        "osc14M_phase": 0,
        "osc14C_phase": 0,
        "osc15M_phase": 0,
        "osc15C_phase": 0,
        "routing": 2,
        "planck0": 0,
        "planck1": 0,
        "modtype0": 2,
        "modtype1": 2,
        "cross": 1
      },
      "pos": [
        49,
        2
      ]
    },
    {
      "id": 194,
      "plugin": "RJModules",
      "version": "1.5.0",
      "model": "Chord",
      "params": [
        {
          "id": 0,
          "value": 41.0
        },
        {
          "id": 1,
          "value": 0.0
        }
      ],
      "rightModuleId": 196,
      "pos": [
        123,
        2
      ]
    },
    {
      "id": 195,
      "plugin": "Blamsoft-XFXWave",
      "version": "1.0.1",
      "model": "Blamsoft-XFXWave",
      "params": [
        {
          "id": 0,
          "value": 0.0235003922
        },
        {
          "id": 1,
          "value": 0.0
        },
        {
          "id": 2,
          "value": 7.0
        },
        {
          "id": 3,
          "value": 0.485499859
        },
        {
          "id": 4,
          "value": 0.46600005
        },
        {
          "id": 5,
          "value": -0.0
        },
        {
          "id": 6,
          "value": -2.0
        },
        {
          "id": 7,
          "value": 0.5
        },
        {
          "id": 8,
          "value": 0.301000267
        },
        {
          "id": 9,
          "value": 0.0
        },
        {
          "id": 10,
          "value": 0.0
        },
        {
          "id": 11,
          "value": 0.0
        },
        {
          "id": 12,
          "value": 0.359501064
        },
        {
          "id": 13,
          "value": 0.0
        },
        {
          "id": 14,
          "value": 0.0
        },
        {
          "id": 15,
          "value": 0.0
        },
        {
          "id": 16,
          "value": 0.0
        },
        {
          "id": 17,
          "value": 0.0
        },
        {
          "id": 18,
          "value": 0.0
        },
        {
          "id": 19,
          "value": 0.5
        },
        {
          "id": 20,
          "value": 0.5
        },
        {
          "id": 21,
          "value": 0.5
        },
        {
          "id": 22,
          "value": 0.5
        }
      ],
      "data": {
        "wavetable": 51,
        "mod1_mode": 0,
        "mod2_mode": 7,
        "mod3_mode": 16,
        "magnitude_0": 1.0,
        "phase_0": 0.0,
        "magnitude_1": 0.0,
        "phase_1": 0.0,
        "magnitude_2": 0.0,
        "phase_2": 0.0,
        "magnitude_3": 0.0,
        "phase_3": 0.0,
        "magnitude_4": 0.0,
        "phase_4": 0.0,
        "magnitude_5": 0.0,
        "phase_5": 0.0,
        "magnitude_6": 0.0,
        "phase_6": 0.0,
        "magnitude_7": 0.0,
        "phase_7": 0.0,
        "magnitude_8": 0.0,
        "phase_8": 0.0,
        "magnitude_9": 0.0,
        "phase_9": 0.0,
        "magnitude_10": 0.0,
        "phase_10": 0.0,
        "magnitude_11": 0.0,
        "phase_11": 0.0,
        "magnitude_12": 0.0,
        "phase_12": 0.0,
        "magnitude_13": 0.0,
        "phase_13": 0.0,
        "magnitude_14": 0.0,
        "phase_14": 0.0,
        "magnitude_15": 0.0,
        "phase_15": 0.0,
        "magnitude_16": 0.0,
        "phase_16": 0.0,
        "magnitude_17": 0.0,
        "phase_17": 0.0,
        "magnitude_18": 0.0,
        "phase_18": 0.0,
        "magnitude_19": 0.0,
        "phase_19": 0.0,
        "magnitude_20": 0.0,
        "phase_20": 0.0,
        "magnitude_21": 0.0,
        "phase_21": 0.0,
        "magnitude_22": 0.0,
        "phase_22": 0.0,
        "magnitude_23": 0.0,
        "phase_23": 0.0,
        "magnitude_24": 0.0,
        "phase_24": 0.0,
        "magnitude_25": 0.0,
        "phase_25": 0.0
      },
      "pos": [
        141,
        2
      ]
    },
    {
      "id": 196,
      "plugin": "Fundamental",
      "version": "1.4.0",
      "model": "Merge",
      "params": [],
      "leftModuleId": 194,
      "data": {
        "channels": -1
      },
      "pos": [
        133,
        2
      ]
    }
  ],
  "cables": [
    {
      "id": 410,
      "outputModuleId": 147,
      "outputId": 0,
      "inputModuleId": 146,
      "inputId": 4,
      "color": "#0c8e15"
    },
    {
      "id": 423,
      "outputModuleId": 158,
      "outputId": 0,
      "inputModuleId": 159,
      "inputId": 0,
      "color": "#c91847"
    },
    {
      "id": 425,
      "outputModuleId": 160,
      "outputId": 0,
      "inputModuleId": 145,
      "inputId": 0,
      "color": "#c9b70e"
    },
    {
      "id": 422,
      "outputModuleId": 157,
      "outputId": 0,
      "inputModuleId": 161,
      "inputId": 0,
      "color": "#0c8e15"
    },
    {
      "id": 431,
      "outputModuleId": 145,
      "outputId": 0,
      "inputModuleId": 1,
      "inputId": 0,
      "color": "#c91847"
    },
    {
      "id": 409,
      "outputModuleId": 145,
      "outputId": 1,
      "inputModuleId": 1,
      "inputId": 1,
      "color": "#c9b70e"
    },
    {
      "id": 432,
      "outputModuleId": 145,
      "outputId": 0,
      "inputModuleId": 7,
      "inputId": 0,
      "color": "#0986ad"
    },
    {
      "id": 433,
      "outputModuleId": 145,
      "outputId": 1,
      "inputModuleId": 7,
      "inputId": 1,
      "color": "#c9b70e"
    },
    {
      "id": 434,
      "outputModuleId": 164,
      "outputId": 0,
      "inputModuleId": 145,
      "inputId": 20,
      "color": "#0c8e15"
    },
    {
      "id": 435,
      "outputModuleId": 164,
      "outputId": 1,
      "inputModuleId": 145,
      "inputId": 44,
      "color": "#c91847"
    },
    {
      "id": 436,
      "outputModuleId": 145,
      "outputId": 10,
      "inputModuleId": 164,
      "inputId": 0,
      "color": "#0986ad"
    },
    {
      "id": 437,
      "outputModuleId": 145,
      "outputId": 14,
      "inputModuleId": 164,
      "inputId": 1,
      "color": "#c9b70e"
    },
    {
      "id": 438,
      "outputModuleId": 163,
      "outputId": 0,
      "inputModuleId": 145,
      "inputId": 21,
      "color": "#0c8e15"
    },
    {
      "id": 439,
      "outputModuleId": 163,
      "outputId": 1,
      "inputModuleId": 145,
      "inputId": 45,
      "color": "#c91847"
    },
    {
      "id": 440,
      "outputModuleId": 145,
      "outputId": 11,
      "inputModuleId": 163,
      "inputId": 5,
      "color": "#0986ad"
    },
    {
      "id": 441,
      "outputModuleId": 145,
      "outputId": 15,
      "inputModuleId": 163,
      "inputId": 6,
      "color": "#c9b70e"
    },
    {
      "id": 442,
      "outputModuleId": 146,
      "outputId": 0,
      "inputModuleId": 163,
      "inputId": 7,
      "color": "#0c8e15"
    },
    {
      "id": 424,
      "outputModuleId": 159,
      "outputId": 0,
      "inputModuleId": 166,
      "inputId": 0,
      "color": "#0986ad"
    },
    {
      "id": 443,
      "outputModuleId": 166,
      "outputId": 0,
      "inputModuleId": 160,
      "inputId": 4,
      "color": "#c91847"
    },
    {
      "id": 444,
      "outputModuleId": 159,
      "outputId": 2,
      "inputModuleId": 165,
      "inputId": 0,
      "color": "#0986ad"
    },
    {
      "id": 428,
      "outputModuleId": 161,
      "outputId": 0,
      "inputModuleId": 167,
      "inputId": 0,
      "color": "#0986ad"
    },
    {
      "id": 445,
      "outputModuleId": 167,
      "outputId": 0,
      "inputModuleId": 158,
      "inputId": 0,
      "color": "#c91847"
    },
    {
      "id": 446,
      "outputModuleId": 146,
      "outputId": 2,
      "inputModuleId": 169,
      "inputId": 0,
      "color": "#0986ad"
    },
    {
      "id": 448,
      "outputModuleId": 146,
      "outputId": 3,
      "inputModuleId": 169,
      "inputId": 2,
      "color": "#c91847"
    },
    {
      "id": 461,
      "outputModuleId": 148,
      "outputId": 1,
      "inputModuleId": 160,
      "inputId": 2,
      "color": "#c9b70e"
    },
    {
      "id": 464,
      "outputModuleId": 175,
      "outputId": 1,
      "inputModuleId": 173,
      "inputId": 4,
      "color": "#c9b70e"
    },
    {
      "id": 465,
      "outputModuleId": 173,
      "outputId": 0,
      "inputModuleId": 145,
      "inputId": 1,
      "color": "#0c8e15"
    },
    {
      "id": 466,
      "outputModuleId": 165,
      "outputId": 0,
      "inputModuleId": 173,
      "inputId": 5,
      "color": "#c91847"
    },
    {
      "id": 467,
      "outputModuleId": 166,
      "outputId": 0,
      "inputModuleId": 175,
      "inputId": 1,
      "color": "#0986ad"
    },
    {
      "id": 474,
      "outputModuleId": 188,
      "outputId": 4,
      "inputModuleId": 187,
      "inputId": 0,
      "color": "#0c8e15"
    },
    {
      "id": 476,
      "outputModuleId": 189,
      "outputId": 0,
      "inputModuleId": 187,
      "inputId": 1,
      "color": "#0986ad"
    },
    {
      "id": 475,
      "outputModuleId": 188,
      "outputId": 4,
      "inputModuleId": 189,
      "inputId": 1,
      "color": "#c91847"
    },
    {
      "id": 477,
      "outputModuleId": 189,
      "outputId": 0,
      "inputModuleId": 173,
      "inputId": 2,
      "color": "#c9b70e"
    },
    {
      "id": 426,
      "outputModuleId": 165,
      "outputId": 0,
      "inputModuleId": 160,
      "inputId": 5,
      "color": "#0c8e15"
    },
    {
      "id": 478,
      "outputModuleId": 160,
      "outputId": 0,
      "inputModuleId": 171,
      "inputId": 0,
      "color": "#0c8e15"
    },
    {
      "id": 480,
      "outputModuleId": 190,
      "outputId": 0,
      "inputModuleId": 191,
      "inputId": 5,
      "color": "#c9b70e"
    },
    {
      "id": 481,
      "outputModuleId": 191,
      "outputId": 0,
      "inputModuleId": 145,
      "inputId": 2,
      "color": "#c91847"
    },
    {
      "id": 485,
      "outputModuleId": 165,
      "outputId": 0,
      "inputModuleId": 191,
      "inputId": 0,
      "color": "#0986ad"
    },
    {
      "id": 479,
      "outputModuleId": 166,
      "outputId": 0,
      "inputModuleId": 190,
      "inputId": 0,
      "color": "#0986ad"
    },
    {
      "id": 486,
      "outputModuleId": 193,
      "outputId": 0,
      "inputModuleId": 145,
      "inputId": 3,
      "color": "#0c8e15"
    },
    {
      "id": 490,
      "outputModuleId": 188,
      "outputId": 4,
      "inputModuleId": 193,
      "inputId": 5,
      "color": "#0986ad"
    },
    {
      "id": 447,
      "outputModuleId": 169,
      "outputId": 0,
      "inputModuleId": 156,
      "inputId": 3,
      "color": "#c9b70e"
    },
    {
      "id": 462,
      "outputModuleId": 169,
      "outputId": 1,
      "inputModuleId": 156,
      "inputId": 5,
      "color": "#0c8e15"
    },
    {
      "id": 420,
      "outputModuleId": 146,
      "outputId": 1,
      "inputModuleId": 156,
      "inputId": 7,
      "color": "#0986ad"
    },
    {
      "id": 421,
      "outputModuleId": 156,
      "outputId": 1,
      "inputModuleId": 157,
      "inputId": 1,
      "color": "#c9b70e"
    },
    {
      "id": 491,
      "outputModuleId": 194,
      "outputId": 0,
      "inputModuleId": 167,
      "inputId": 4,
      "color": "#c9b70e"
    },
    {
      "id": 492,
      "outputModuleId": 194,
      "outputId": 1,
      "inputModuleId": 167,
      "inputId": 5,
      "color": "#0c8e15"
    },
    {
      "id": 493,
      "outputModuleId": 194,
      "outputId": 2,
      "inputModuleId": 167,
      "inputId": 6,
      "color": "#c91847"
    },
    {
      "id": 494,
      "outputModuleId": 194,
      "outputId": 3,
      "inputModuleId": 167,
      "inputId": 7,
      "color": "#0986ad"
    },
    {
      "id": 495,
      "outputModuleId": 196,
      "outputId": 0,
      "inputModuleId": 195,
      "inputId": 5,
      "color": "#c9b70e"
    },
    {
      "id": 496,
      "outputModuleId": 166,
      "outputId": 3,
      "inputModuleId": 196,
      "inputId": 0,
      "color": "#0c8e15"
    },
    {
      "id": 487,
      "outputModuleId": 166,
      "outputId": 0,
      "inputModuleId": 193,
      "inputId": 2,
      "color": "#c91847"
    },
    {
      "id": 497,
      "outputModuleId": 166,
      "outputId": 4,
      "inputModuleId": 196,
      "inputId": 1,
      "color": "#c91847"
    },
    {
      "id": 498,
      "outputModuleId": 166,
      "outputId": 5,
      "inputModuleId": 196,
      "inputId": 2,
      "color": "#0986ad"
    },
    {
      "id": 499,
      "outputModuleId": 166,
      "outputId": 6,
      "inputModuleId": 196,
      "inputId": 3,
      "color": "#c9b70e"
    },
    {
      "id": 500,
      "outputModuleId": 195,
      "outputId": 0,
      "inputModuleId": 145,
      "inputId": 4,
      "color": "#0c8e15"
    },
    {
      "id": 501,
      "outputModuleId": 195,
      "outputId": 1,
      "inputModuleId": 145,
      "inputId": 28,
      "color": "#c91847"
    }
  ]
}