{
  "version": "1.1.6",
  "modules": [
    {
      "id": 1,
      "plugin": "Core",
      "version": "1.1.6",
      "model": "AudioInterface",
      "params": [],
      "leftModuleId": 7,
      "data": {
        "audio": {
          "driver": 1,
          "deviceName": "hw:HDA Intel PCH,0",
          "offset": 0,
          "maxChannels": 8,
          "sampleRate": 44100,
          "blockSize": 256
        }
      },
      "pos": [
        124,
        0
      ]
    },
    {
      "id": 7,
      "plugin": "Fundamental",
      "version": "1.4.0",
      "model": "Scope",
      "params": [
        {
          "id": 0,
          "value": 0.0
        },
        {
          "id": 1,
          "value": 0.0
        },
        {
          "id": 2,
          "value": 0.0
        },
        {
          "id": 3,
          "value": 0.0
        },
        {
          "id": 4,
          "value": 14.0
        },
        {
          "id": 5,
          "value": 0.0
        },
        {
          "id": 6,
          "value": 0.0
        },
        {
          "id": 7,
          "value": 0.0
        }
      ],
      "leftModuleId": 194,
      "rightModuleId": 1,
      "data": {
        "lissajous": 0,
        "external": 0
      },
      "pos": [
        111,
        0
      ]
    },
    {
      "id": 192,
      "plugin": "mscHack",
      "version": "1.0.2",
      "model": "Mix_9_3_4",
      "params": [
        {
          "id": 0,
          "value": 0.398000091
        },
        {
          "id": 1,
          "value": 0.771000803
        },
        {
          "id": 2,
          "value": 0.666000307
        },
        {
          "id": 3,
          "value": 0.420000613
        },
        {
          "id": 4,
          "value": 0.720000565
        },
        {
          "id": 5,
          "value": 0.50399971
        },
        {
          "id": 6,
          "value": 0.789001048
        },
        {
          "id": 7,
          "value": 0.494999886
        },
        {
          "id": 8,
          "value": 0.473999918
        },
        {
          "id": 9,
          "value": 0.0
        },
        {
          "id": 10,
          "value": 0.0
        },
        {
          "id": 11,
          "value": 0.0
        },
        {
          "id": 12,
          "value": 0.0
        },
        {
          "id": 13,
          "value": 0.558999538
        },
        {
          "id": 14,
          "value": 1.0
        },
        {
          "id": 15,
          "value": 0.0
        },
        {
          "id": 16,
          "value": 0.0
        },
        {
          "id": 17,
          "value": 0.0
        },
        {
          "id": 18,
          "value": 0.0
        },
        {
          "id": 19,
          "value": 0.0
        },
        {
          "id": 20,
          "value": 0.0
        },
        {
          "id": 21,
          "value": 0.0
        },
        {
          "id": 22,
          "value": 0.0
        },
        {
          "id": 23,
          "value": 0.0
        },
        {
          "id": 24,
          "value": 0.0
        },
        {
          "id": 25,
          "value": 0.0
        },
        {
          "id": 26,
          "value": 0.0
        },
        {
          "id": 27,
          "value": 0.0
        },
        {
          "id": 28,
          "value": 0.0
        },
        {
          "id": 29,
          "value": 0.0
        },
        {
          "id": 30,
          "value": 0.0
        },
        {
          "id": 31,
          "value": 0.0
        },
        {
          "id": 32,
          "value": 0.0
        },
        {
          "id": 33,
          "value": 0.5
        },
        {
          "id": 34,
          "value": 0.5
        },
        {
          "id": 35,
          "value": 0.5
        },
        {
          "id": 36,
          "value": 0.5
        },
        {
          "id": 37,
          "value": 0.5
        },
        {
          "id": 38,
          "value": 0.5
        },
        {
          "id": 39,
          "value": 0.5
        },
        {
          "id": 40,
          "value": 0.5
        },
        {
          "id": 41,
          "value": 0.5
        },
        {
          "id": 42,
          "value": 0.5
        },
        {
          "id": 43,
          "value": 0.5
        },
        {
          "id": 44,
          "value": 0.5
        },
        {
          "id": 45,
          "value": 0.5
        },
        {
          "id": 46,
          "value": 0.5
        },
        {
          "id": 47,
          "value": 0.5
        },
        {
          "id": 48,
          "value": 0.5
        },
        {
          "id": 49,
          "value": 0.5
        },
        {
          "id": 50,
          "value": 0.5
        },
        {
          "id": 51,
          "value": 0.5
        },
        {
          "id": 52,
          "value": 0.5
        },
        {
          "id": 53,
          "value": 0.5
        },
        {
          "id": 54,
          "value": 0.5
        },
        {
          "id": 55,
          "value": 0.5
        },
        {
          "id": 56,
          "value": 0.5
        },
        {
          "id": 57,
          "value": 0.5
        },
        {
          "id": 58,
          "value": 0.5
        },
        {
          "id": 59,
          "value": 0.5
        },
        {
          "id": 60,
          "value": 0.5
        },
        {
          "id": 61,
          "value": 0.5
        },
        {
          "id": 62,
          "value": 0.5
        },
        {
          "id": 63,
          "value": 0.5
        },
        {
          "id": 64,
          "value": 0.5
        },
        {
          "id": 65,
          "value": 0.5
        },
        {
          "id": 66,
          "value": 0.5
        },
        {
          "id": 67,
          "value": 0.5
        },
        {
          "id": 68,
          "value": 0.5
        },
        {
          "id": 69,
          "value": 0.5
        },
        {
          "id": 70,
          "value": 0.5
        },
        {
          "id": 71,
          "value": 0.5
        },
        {
          "id": 72,
          "value": 0.5
        },
        {
          "id": 73,
          "value": 0.5
        },
        {
          "id": 74,
          "value": 0.5
        },
        {
          "id": 75,
          "value": 0.5
        },
        {
          "id": 76,
          "value": 0.5
        },
        {
          "id": 77,
          "value": 0.5
        },
        {
          "id": 78,
          "value": 0.5
        },
        {
          "id": 79,
          "value": 0.5
        },
        {
          "id": 80,
          "value": 0.5
        },
        {
          "id": 81,
          "value": 0.00150000025
        },
        {
          "id": 82,
          "value": 0.349500895
        },
        {
          "id": 83,
          "value": 0.0
        },
        {
          "id": 84,
          "value": 0.0
        },
        {
          "id": 85,
          "value": 0.208499968
        },
        {
          "id": 86,
          "value": 0.0
        },
        {
          "id": 87,
          "value": 0.0
        },
        {
          "id": 88,
          "value": 0.0
        },
        {
          "id": 89,
          "value": 0.20250006
        },
        {
          "id": 90,
          "value": 0.48300001
        },
        {
          "id": 91,
          "value": 0.0
        },
        {
          "id": 92,
          "value": 0.0
        },
        {
          "id": 93,
          "value": 0.114000082
        },
        {
          "id": 94,
          "value": 0.0960002467
        },
        {
          "id": 95,
          "value": 0.00300000003
        },
        {
          "id": 96,
          "value": 0.0
        },
        {
          "id": 97,
          "value": 0.0899999514
        },
        {
          "id": 98,
          "value": 0.0
        },
        {
          "id": 99,
          "value": 0.0
        },
        {
          "id": 100,
          "value": 0.0
        },
        {
          "id": 101,
          "value": 0.0839999989
        },
        {
          "id": 102,
          "value": 0.103500016
        },
        {
          "id": 103,
          "value": 0.0
        },
        {
          "id": 104,
          "value": 0.0
        },
        {
          "id": 105,
          "value": 0.0
        },
        {
          "id": 106,
          "value": 0.225000009
        },
        {
          "id": 107,
          "value": 0.0
        },
        {
          "id": 108,
          "value": 0.0
        },
        {
          "id": 109,
          "value": 0.0
        },
        {
          "id": 110,
          "value": 0.258000135
        },
        {
          "id": 111,
          "value": 0.0
        },
        {
          "id": 112,
          "value": 0.0
        },
        {
          "id": 113,
          "value": 0.0
        },
        {
          "id": 114,
          "value": 0.0
        },
        {
          "id": 115,
          "value": 0.0
        },
        {
          "id": 116,
          "value": 0.0
        },
        {
          "id": 117,
          "value": 0.0
        },
        {
          "id": 118,
          "value": 0.0
        },
        {
          "id": 119,
          "value": 0.0
        },
        {
          "id": 120,
          "value": 0.0
        },
        {
          "id": 121,
          "value": 0.0
        },
        {
          "id": 122,
          "value": 0.0
        },
        {
          "id": 123,
          "value": 0.0
        },
        {
          "id": 124,
          "value": 0.0
        },
        {
          "id": 125,
          "value": 0.0
        },
        {
          "id": 126,
          "value": 0.0
        },
        {
          "id": 127,
          "value": 0.0
        },
        {
          "id": 128,
          "value": 0.0
        },
        {
          "id": 129,
          "value": 1.0
        },
        {
          "id": 130,
          "value": 1.0
        },
        {
          "id": 131,
          "value": 0.0
        },
        {
          "id": 132,
          "value": 0.0
        }
      ],
      "leftModuleId": 195,
      "rightModuleId": 193,
      "data": {
        "m_bMuteStates": [
          false,
          false,
          false,
          false,
          false,
          false,
          false,
          false,
          false,
          false,
          false,
          false,
          false,
          false,
          false,
          false
        ],
        "m_bSoloStates": [
          false,
          false,
          false,
          false,
          false,
          false,
          false,
          false,
          false,
          false,
          false,
          false,
          false,
          false,
          false,
          false
        ],
        "m_iRouteGroup": [
          3,
          3,
          3,
          3,
          3,
          3,
          3,
          3,
          3
        ],
        "m_bGroupPreMute": [
          true
        ],
        "m_bGainLevelx2": [
          false
        ],
        "m_bPreFader": [
          false,
          false,
          false,
          false,
          false,
          false,
          false,
          false,
          false,
          false,
          false,
          false
        ],
        "m_bAuxIgnoreSolo": [
          false
        ]
      },
      "pos": [
        54,
        0
      ]
    },
    {
      "id": 193,
      "plugin": "Valley",
      "version": "1.0.1",
      "model": "Plateau",
      "params": [
        {
          "id": 0,
          "value": 1.0
        },
        {
          "id": 1,
          "value": 0.5
        },
        {
          "id": 2,
          "value": 0.0
        },
        {
          "id": 3,
          "value": 10.0
        },
        {
          "id": 4,
          "value": 9.95499992
        },
        {
          "id": 5,
          "value": 0.496999681
        },
        {
          "id": 6,
          "value": 10.0
        },
        {
          "id": 7,
          "value": 0.589545429
        },
        {
          "id": 8,
          "value": 9.88000011
        },
        {
          "id": 9,
          "value": 10.0
        },
        {
          "id": 10,
          "value": 0.499500275
        },
        {
          "id": 11,
          "value": 0.18099995
        },
        {
          "id": 12,
          "value": 8.06000042
        },
        {
          "id": 13,
          "value": 0.0
        },
        {
          "id": 14,
          "value": 0.0
        },
        {
          "id": 15,
          "value": 0.0
        },
        {
          "id": 16,
          "value": 0.0
        },
        {
          "id": 17,
          "value": 0.0
        },
        {
          "id": 18,
          "value": 0.0
        },
        {
          "id": 19,
          "value": 0.0
        },
        {
          "id": 20,
          "value": 0.0
        },
        {
          "id": 21,
          "value": 0.0
        },
        {
          "id": 22,
          "value": 0.0
        },
        {
          "id": 23,
          "value": 0.0
        },
        {
          "id": 24,
          "value": 0.0
        },
        {
          "id": 25,
          "value": 0.0
        },
        {
          "id": 26,
          "value": 0.0
        },
        {
          "id": 27,
          "value": 0.0
        },
        {
          "id": 28,
          "value": 0.0
        },
        {
          "id": 29,
          "value": 0.0
        },
        {
          "id": 30,
          "value": 1.0
        }
      ],
      "leftModuleId": 192,
      "rightModuleId": 194,
      "data": {
        "frozen": false,
        "freezeToggle": false,
        "panelStyle": 0,
        "tuned": 0,
        "diffuseInput": 1,
        "preDelayCVSens": 0,
        "inputSensitivity": 0,
        "outputSaturation": 0
      },
      "pos": [
        87,
        0
      ]
    },
    {
      "id": 194,
      "plugin": "AlrightDevices",
      "version": "1.0.2",
      "model": "Chronoblob2",
      "params": [
        {
          "id": 0,
          "value": 0.5
        },
        {
          "id": 1,
          "value": 0.5
        },
        {
          "id": 2,
          "value": 0.5
        },
        {
          "id": 3,
          "value": 0.0
        },
        {
          "id": 4,
          "value": 0.0
        },
        {
          "id": 5,
          "value": 0.0
        },
        {
          "id": 6,
          "value": 0.0
        },
        {
          "id": 7,
          "value": 0.0
        },
        {
          "id": 8,
          "value": 0.0
        },
        {
          "id": 9,
          "value": 0.0
        }
      ],
      "leftModuleId": 193,
      "rightModuleId": 7,
      "data": {
        "delay_mode": 0,
        "hold_behavior": 0,
        "sync_prescaler": 6
      },
      "pos": [
        99,
        0
      ]
    },
    {
      "id": 195,
      "plugin": "ImpromptuModular",
      "version": "1.1.3",
      "model": "Clocked",
      "params": [
        {
          "id": 0,
          "value": 60.0
        },
        {
          "id": 1,
          "value": 5.0
        },
        {
          "id": 2,
          "value": 2.0
        },
        {
          "id": 3,
          "value": 0.0
        },
        {
          "id": 4,
          "value": 0.0
        },
        {
          "id": 5,
          "value": 0.0
        },
        {
          "id": 6,
          "value": 0.0
        },
        {
          "id": 7,
          "value": 0.0
        },
        {
          "id": 8,
          "value": 0.5
        },
        {
          "id": 9,
          "value": 0.5
        },
        {
          "id": 10,
          "value": 0.5
        },
        {
          "id": 11,
          "value": 0.5
        },
        {
          "id": 12,
          "value": 0.0
        },
        {
          "id": 13,
          "value": 0.0
        },
        {
          "id": 14,
          "value": 0.0
        },
        {
          "id": 15,
          "value": 0.0
        },
        {
          "id": 16,
          "value": 0.0
        },
        {
          "id": 17,
          "value": 0.0
        },
        {
          "id": 18,
          "value": 0.0
        },
        {
          "id": 19,
          "value": 0.0
        }
      ],
      "rightModuleId": 192,
      "data": {
        "panelTheme": 0,
        "running": true,
        "displayDelayNoteMode": true,
        "bpmDetectionMode": false,
        "restartOnStopStartRun": 0,
        "sendResetOnRestart": false,
        "ppqn": 4,
        "resetClockOutputsHigh": true,
        "momentaryRunInput": true
      },
      "pos": [
        34,
        0
      ]
    },
    {
      "id": 212,
      "plugin": "ML_modules",
      "version": "1.0.5",
      "model": "Quantum",
      "params": [
        {
          "id": 0,
          "value": 0.0
        },
        {
          "id": 1,
          "value": 0.0
        },
        {
          "id": 2,
          "value": 0.0
        },
        {
          "id": 3,
          "value": 0.0
        },
        {
          "id": 4,
          "value": 0.0
        },
        {
          "id": 5,
          "value": 0.0
        },
        {
          "id": 6,
          "value": 0.0
        },
        {
          "id": 7,
          "value": 0.0
        },
        {
          "id": 8,
          "value": 0.0
        },
        {
          "id": 9,
          "value": 0.0
        },
        {
          "id": 10,
          "value": 0.0
        },
        {
          "id": 11,
          "value": 0.0
        }
      ],
      "leftModuleId": 213,
      "rightModuleId": 214,
      "data": {
        "scale": [
          1,
          0,
          0,
          0,
          1,
          0,
          0,
          1,
          0,
          0,
          1,
          0
        ],
        "mode": 1,
        "transpose_select": 1,
        "toggle_mode": 0
      },
      "pos": [
        64,
        1
      ]
    },
    {
      "id": 213,
      "plugin": "Geodesics",
      "version": "1.1.0",
      "model": "Entropia",
      "params": [
        {
          "id": 0,
          "value": 0.0
        },
        {
          "id": 1,
          "value": 0.0
        },
        {
          "id": 2,
          "value": 0.0
        },
        {
          "id": 3,
          "value": 0.0
        },
        {
          "id": 4,
          "value": 0.0
        },
        {
          "id": 5,
          "value": 0.665749431
        },
        {
          "id": 6,
          "value": 0.235103011
        },
        {
          "id": 7,
          "value": 0.750633597
        },
        {
          "id": 8,
          "value": 0.986157954
        },
        {
          "id": 9,
          "value": 0.913390458
        },
        {
          "id": 10,
          "value": 0.884257555
        },
        {
          "id": 11,
          "value": 0.409585953
        },
        {
          "id": 12,
          "value": 0.182516277
        },
        {
          "id": 13,
          "value": 0.760168374
        },
        {
          "id": 14,
          "value": 0.30885005
        },
        {
          "id": 15,
          "value": 0.539077163
        },
        {
          "id": 16,
          "value": 0.577370048
        },
        {
          "id": 17,
          "value": 0.91621542
        },
        {
          "id": 18,
          "value": 0.233138859
        },
        {
          "id": 19,
          "value": 0.0549191236
        },
        {
          "id": 20,
          "value": 0.837551355
        },
        {
          "id": 21,
          "value": 0.719058037
        },
        {
          "id": 22,
          "value": 0.414269686
        },
        {
          "id": 23,
          "value": 0.220728159
        },
        {
          "id": 24,
          "value": 0.968797863
        },
        {
          "id": 25,
          "value": 0.0819043517
        },
        {
          "id": 26,
          "value": 0.0813266039
        },
        {
          "id": 27,
          "value": 0.250682235
        },
        {
          "id": 28,
          "value": 0.0818196535
        },
        {
          "id": 29,
          "value": 0.0
        },
        {
          "id": 30,
          "value": 0.0
        },
        {
          "id": 31,
          "value": 0.0
        },
        {
          "id": 32,
          "value": 0.0
        },
        {
          "id": 33,
          "value": 0.0
        },
        {
          "id": 34,
          "value": 0.0
        },
        {
          "id": 35,
          "value": 0.0
        },
        {
          "id": 36,
          "value": 0.0
        },
        {
          "id": 37,
          "value": 0.0
        },
        {
          "id": 38,
          "value": 0.0
        },
        {
          "id": 39,
          "value": 0.0
        },
        {
          "id": 40,
          "value": 0.0
        },
        {
          "id": 41,
          "value": -0.75725019
        },
        {
          "id": 42,
          "value": 0.0
        },
        {
          "id": 43,
          "value": 0.0
        },
        {
          "id": 44,
          "value": 0.0
        }
      ],
      "leftModuleId": 227,
      "rightModuleId": 212,
      "data": {
        "panelTheme": 0,
        "running": true,
        "resetOnRun": false,
        "length": 8,
        "quantize": 3,
        "audio": 0,
        "ranges0": 1,
        "ranges1": 1,
        "addMode": false,
        "sources0": 2,
        "sources1": 2,
        "stepIndex": 4,
        "pipeBlue": true,
        "randomCVs0": 0.948160529,
        "randomCVs1": 0.669680178,
        "clkSource": 0
      },
      "pos": [
        43,
        1
      ]
    },
    {
      "id": 214,
      "plugin": "VultModulesFree",
      "version": "1.6.0",
      "model": "Basal",
      "params": [
        {
          "id": 0,
          "value": -0.00299990736
        },
        {
          "id": 1,
          "value": 0.136999935
        },
        {
          "id": 2,
          "value": 0.0764999986
        },
        {
          "id": 3,
          "value": 0.0
        },
        {
          "id": 4,
          "value": 0.373501033
        },
        {
          "id": 5,
          "value": 0.0
        }
      ],
      "leftModuleId": 212,
      "rightModuleId": 215,
      "pos": [
        72,
        1
      ]
    },
    {
      "id": 215,
      "plugin": "VultModulesFree",
      "version": "1.6.0",
      "model": "Slap",
      "params": [
        {
          "id": 0,
          "value": 0.126000106
        },
        {
          "id": 1,
          "value": 0.235999867
        },
        {
          "id": 2,
          "value": 0.116000049
        },
        {
          "id": 3,
          "value": 0.053499952
        },
        {
          "id": 4,
          "value": 0.0
        },
        {
          "id": 5,
          "value": 0.0
        },
        {
          "id": 6,
          "value": 0.0
        },
        {
          "id": 7,
          "value": 0.0
        },
        {
          "id": 8,
          "value": 0.0
        }
      ],
      "leftModuleId": 214,
      "rightModuleId": 217,
      "pos": [
        78,
        1
      ]
    },
    {
      "id": 216,
      "plugin": "VultModulesFree",
      "version": "1.6.0",
      "model": "Slap",
      "params": [
        {
          "id": 0,
          "value": 0.180000141
        },
        {
          "id": 1,
          "value": 0.235999867
        },
        {
          "id": 2,
          "value": 0.473499686
        },
        {
          "id": 3,
          "value": 0.053499952
        },
        {
          "id": 4,
          "value": 0.218999997
        },
        {
          "id": 5,
          "value": 0.285000056
        },
        {
          "id": 6,
          "value": 0.284999996
        },
        {
          "id": 7,
          "value": 0.0
        },
        {
          "id": 8,
          "value": 0.0
        }
      ],
      "leftModuleId": 217,
      "pos": [
        94,
        1
      ]
    },
    {
      "id": 217,
      "plugin": "VultModulesFree",
      "version": "1.6.0",
      "model": "Basal",
      "params": [
        {
          "id": 0,
          "value": 0.0
        },
        {
          "id": 1,
          "value": -0.809998751
        },
        {
          "id": 2,
          "value": 0.203999966
        },
        {
          "id": 3,
          "value": 0.0
        },
        {
          "id": 4,
          "value": 0.0660008565
        },
        {
          "id": 5,
          "value": 0.0
        }
      ],
      "leftModuleId": 215,
      "rightModuleId": 216,
      "pos": [
        88,
        1
      ]
    },
    {
      "id": 218,
      "plugin": "Geodesics",
      "version": "1.1.0",
      "model": "Ions",
      "params": [
        {
          "id": 0,
          "value": 0.0
        },
        {
          "id": 1,
          "value": 0.0
        },
        {
          "id": 2,
          "value": 0.479895949
        },
        {
          "id": 3,
          "value": 0.92618072
        },
        {
          "id": 4,
          "value": 0.77883482
        },
        {
          "id": 5,
          "value": 0.4622311
        },
        {
          "id": 6,
          "value": 0.64661628
        },
        {
          "id": 7,
          "value": 0.387197614
        },
        {
          "id": 8,
          "value": 0.000787734985
        },
        {
          "id": 9,
          "value": 0.708543301
        },
        {
          "id": 10,
          "value": 0.434156358
        },
        {
          "id": 11,
          "value": 0.664544582
        },
        {
          "id": 12,
          "value": 0.868829966
        },
        {
          "id": 13,
          "value": 0.0122032762
        },
        {
          "id": 14,
          "value": 0.740312457
        },
        {
          "id": 15,
          "value": 0.397295177
        },
        {
          "id": 16,
          "value": 0.863931715
        },
        {
          "id": 17,
          "value": 0.489999831
        },
        {
          "id": 18,
          "value": 0.0
        },
        {
          "id": 19,
          "value": 0.0
        },
        {
          "id": 20,
          "value": 0.0
        },
        {
          "id": 21,
          "value": 0.0
        },
        {
          "id": 22,
          "value": 0.0
        },
        {
          "id": 23,
          "value": 0.0
        },
        {
          "id": 24,
          "value": 0.0
        },
        {
          "id": 25,
          "value": 0.0
        },
        {
          "id": 26,
          "value": 0.0
        },
        {
          "id": 27,
          "value": 0.0
        }
      ],
      "leftModuleId": 232,
      "rightModuleId": 219,
      "data": {
        "panelTheme": 0,
        "running": true,
        "resetOnRun": false,
        "quantize": 3,
        "uncertainty": false,
        "stepIndexes0": 11,
        "stepIndexes1": 14,
        "states0": 1,
        "states1": 1,
        "ranges0": 2,
        "ranges1": 1,
        "leap": false
      },
      "pos": [
        45,
        2
      ]
    },
    {
      "id": 219,
      "plugin": "ML_modules",
      "version": "1.0.5",
      "model": "Quantum",
      "params": [
        {
          "id": 0,
          "value": 0.0
        },
        {
          "id": 1,
          "value": 0.0
        },
        {
          "id": 2,
          "value": 0.0
        },
        {
          "id": 3,
          "value": 0.0
        },
        {
          "id": 4,
          "value": 0.0
        },
        {
          "id": 5,
          "value": 0.0
        },
        {
          "id": 6,
          "value": 0.0
        },
        {
          "id": 7,
          "value": 0.0
        },
        {
          "id": 8,
          "value": 0.0
        },
        {
          "id": 9,
          "value": 0.0
        },
        {
          "id": 10,
          "value": 0.0
        },
        {
          "id": 11,
          "value": 0.0
        }
      ],
      "leftModuleId": 218,
      "rightModuleId": 220,
      "data": {
        "scale": [
          0,
          0,
          0,
          0,
          1,
          0,
          0,
          1,
          0,
          0,
          0,
          1
        ],
        "mode": 1,
        "transpose_select": 1,
        "toggle_mode": 0
      },
      "pos": [
        64,
        2
      ]
    },
    {
      "id": 220,
      "plugin": "VultModulesFree",
      "version": "1.6.0",
      "model": "Basal",
      "params": [
        {
          "id": 0,
          "value": 0.000999980606
        },
        {
          "id": 1,
          "value": 0.132998958
        },
        {
          "id": 2,
          "value": 0.0
        },
        {
          "id": 3,
          "value": 0.0
        },
        {
          "id": 4,
          "value": 0.180000052
        },
        {
          "id": 5,
          "value": 0.0
        }
      ],
      "leftModuleId": 219,
      "rightModuleId": 221,
      "pos": [
        72,
        2
      ]
    },
    {
      "id": 221,
      "plugin": "VultModulesFree",
      "version": "1.6.0",
      "model": "Slap",
      "params": [
        {
          "id": 0,
          "value": 0.126000106
        },
        {
          "id": 1,
          "value": 0.235999867
        },
        {
          "id": 2,
          "value": 0.116000049
        },
        {
          "id": 3,
          "value": 0.053499952
        },
        {
          "id": 4,
          "value": 0.0
        },
        {
          "id": 5,
          "value": 0.0
        },
        {
          "id": 6,
          "value": 0.0
        },
        {
          "id": 7,
          "value": 0.0
        },
        {
          "id": 8,
          "value": 0.0
        }
      ],
      "leftModuleId": 220,
      "rightModuleId": 225,
      "pos": [
        78,
        2
      ]
    },
    {
      "id": 223,
      "plugin": "VultModulesFree",
      "version": "1.6.0",
      "model": "Basal",
      "params": [
        {
          "id": 0,
          "value": 0.0
        },
        {
          "id": 1,
          "value": -0.768000126
        },
        {
          "id": 2,
          "value": 0.0
        },
        {
          "id": 3,
          "value": 0.0
        },
        {
          "id": 4,
          "value": 0.151499957
        },
        {
          "id": 5,
          "value": 0.0
        }
      ],
      "leftModuleId": 225,
      "rightModuleId": 224,
      "pos": [
        96,
        2
      ]
    },
    {
      "id": 224,
      "plugin": "VultModulesFree",
      "version": "1.6.0",
      "model": "Slap",
      "params": [
        {
          "id": 0,
          "value": 0.180000141
        },
        {
          "id": 1,
          "value": 0.235999867
        },
        {
          "id": 2,
          "value": 0.473499686
        },
        {
          "id": 3,
          "value": 0.053499952
        },
        {
          "id": 4,
          "value": 0.218999997
        },
        {
          "id": 5,
          "value": 0.285000056
        },
        {
          "id": 6,
          "value": 0.284999996
        },
        {
          "id": 7,
          "value": 0.0
        },
        {
          "id": 8,
          "value": 0.0
        }
      ],
      "leftModuleId": 223,
      "pos": [
        102,
        2
      ]
    },
    {
      "id": 225,
      "plugin": "ML_modules",
      "version": "1.0.5",
      "model": "Quantum",
      "params": [
        {
          "id": 0,
          "value": 0.0
        },
        {
          "id": 1,
          "value": 0.0
        },
        {
          "id": 2,
          "value": 0.0
        },
        {
          "id": 3,
          "value": 0.0
        },
        {
          "id": 4,
          "value": 0.0
        },
        {
          "id": 5,
          "value": 0.0
        },
        {
          "id": 6,
          "value": 0.0
        },
        {
          "id": 7,
          "value": 0.0
        },
        {
          "id": 8,
          "value": 0.0
        },
        {
          "id": 9,
          "value": 0.0
        },
        {
          "id": 10,
          "value": 0.0
        },
        {
          "id": 11,
          "value": 0.0
        }
      ],
      "leftModuleId": 221,
      "rightModuleId": 223,
      "data": {
        "scale": [
          1,
          0,
          0,
          0,
          1,
          0,
          0,
          1,
          0,
          0,
          0,
          0
        ],
        "mode": 1,
        "transpose_select": 1,
        "toggle_mode": 0
      },
      "pos": [
        88,
        2
      ]
    },
    {
      "id": 226,
      "plugin": "VultModulesFree",
      "version": "1.6.0",
      "model": "Trummor",
      "params": [
        {
          "id": 0,
          "value": 0.864998937
        },
        {
          "id": 1,
          "value": 0.058000084
        },
        {
          "id": 2,
          "value": 0.0
        },
        {
          "id": 3,
          "value": 0.695000291
        },
        {
          "id": 4,
          "value": 0.603500247
        },
        {
          "id": 5,
          "value": 0.162
        },
        {
          "id": 6,
          "value": 0.162500039
        },
        {
          "id": 7,
          "value": 0.279500037
        },
        {
          "id": 8,
          "value": 0.0395999029
        },
        {
          "id": 9,
          "value": 0.669999778
        },
        {
          "id": 10,
          "value": 1.93200052
        },
        {
          "id": 11,
          "value": -0.699999988
        },
        {
          "id": 12,
          "value": 0.0
        },
        {
          "id": 13,
          "value": 0.0
        },
        {
          "id": 14,
          "value": 0.0
        },
        {
          "id": 15,
          "value": 0.0
        },
        {
          "id": 16,
          "value": 0.0
        },
        {
          "id": 17,
          "value": 0.837999821
        },
        {
          "id": 18,
          "value": 0.0330001488
        },
        {
          "id": 19,
          "value": 0.0
        },
        {
          "id": 20,
          "value": 2.0
        }
      ],
      "pos": [
        72,
        3
      ]
    },
    {
      "id": 227,
      "plugin": "VultModulesFree",
      "version": "1.6.0",
      "model": "Trummor2",
      "params": [
        {
          "id": 0,
          "value": 0.0157999974
        },
        {
          "id": 1,
          "value": 0.708999991
        },
        {
          "id": 2,
          "value": 0.0
        },
        {
          "id": 3,
          "value": 0.0
        },
        {
          "id": 4,
          "value": 0.0765000209
        },
        {
          "id": 5,
          "value": 0.420000136
        },
        {
          "id": 6,
          "value": 0.0705000013
        },
        {
          "id": 7,
          "value": 0.200000003
        },
        {
          "id": 8,
          "value": 0.400000006
        },
        {
          "id": 9,
          "value": 0.0
        },
        {
          "id": 10,
          "value": 0.0
        },
        {
          "id": 11,
          "value": 0.723999262
        },
        {
          "id": 12,
          "value": 0.100000001
        },
        {
          "id": 13,
          "value": 0.0
        },
        {
          "id": 14,
          "value": 0.0
        },
        {
          "id": 15,
          "value": 0.949999988
        },
        {
          "id": 16,
          "value": 0.0
        },
        {
          "id": 17,
          "value": 0.0
        },
        {
          "id": 18,
          "value": 0.0
        },
        {
          "id": 19,
          "value": 0.0500000007
        },
        {
          "id": 20,
          "value": 0.0500000007
        },
        {
          "id": 21,
          "value": 0.0
        },
        {
          "id": 22,
          "value": 0.0
        },
        {
          "id": 23,
          "value": 0.100000001
        },
        {
          "id": 24,
          "value": 0.0
        },
        {
          "id": 25,
          "value": -0.905000329
        },
        {
          "id": 26,
          "value": 0.0
        },
        {
          "id": 27,
          "value": 0.0
        },
        {
          "id": 28,
          "value": 0.0
        },
        {
          "id": 29,
          "value": 0.0
        },
        {
          "id": 30,
          "value": 0.0
        },
        {
          "id": 31,
          "value": 0.0
        },
        {
          "id": 32,
          "value": 0.0
        }
      ],
      "leftModuleId": 230,
      "rightModuleId": 213,
      "data": {
        "mod_a": 11,
        "mod_b": 0,
        "mod_c": 0,
        "mod_d": 0,
        "mk2": true
      },
      "pos": [
        23,
        1
      ]
    },
    {
      "id": 230,
      "plugin": "VultModulesFree",
      "version": "1.6.0",
      "model": "Caudal",
      "params": [
        {
          "id": 0,
          "value": -0.470999718
        },
        {
          "id": 1,
          "value": 0.40800035
        },
        {
          "id": 2,
          "value": 0.0
        },
        {
          "id": 3,
          "value": 0.0
        },
        {
          "id": 4,
          "value": 0.0
        },
        {
          "id": 5,
          "value": 0.0
        },
        {
          "id": 6,
          "value": 0.0
        },
        {
          "id": 7,
          "value": 0.0
        },
        {
          "id": 8,
          "value": 0.0
        }
      ],
      "leftModuleId": 231,
      "rightModuleId": 227,
      "data": {
        "phi1": -1.04242945,
        "phi2": -1.71784222,
        "phi3": -5.83942699,
        "phi4": 1.34799755,
        "w1": -0.580118895,
        "w2": -2.1852982,
        "w3": -17.7762299,
        "w4": 25.4793015,
        "dx1": 0.0,
        "dy1": 0.0,
        "dx2": 0.0,
        "dy2": 0.0,
        "dx3": 0.0,
        "dy3": 0.0,
        "dx4": 0.0,
        "dy4": 0.0,
        "store_phi1": -1.04242945,
        "store_phi2": -1.71784222,
        "store_phi3": -5.83942699,
        "store_phi4": 1.34799755,
        "store_w1": -0.580118895,
        "store_w2": -2.1852982,
        "store_w3": -17.7762299,
        "store_w4": 25.4793015,
        "store_dx1": 0.0,
        "store_dy1": 0.0,
        "store_dx2": 0.0,
        "store_dy2": 0.0,
        "store_dx3": 0.0,
        "store_dy3": 0.0,
        "store_dx4": 0.0,
        "store_dy4": 0.0,
        "model": 0
      },
      "pos": [
        13,
        1
      ]
    },
    {
      "id": 231,
      "plugin": "Fundamental",
      "version": "1.4.0",
      "model": "Scope",
      "params": [
        {
          "id": 0,
          "value": 0.0
        },
        {
          "id": 1,
          "value": 0.0
        },
        {
          "id": 2,
          "value": 0.0
        },
        {
          "id": 3,
          "value": 0.0
        },
        {
          "id": 4,
          "value": 6.0
        },
        {
          "id": 5,
          "value": 0.0
        },
        {
          "id": 6,
          "value": 0.0
        },
        {
          "id": 7,
          "value": 0.0
        }
      ],
      "rightModuleId": 230,
      "data": {
        "lissajous": 0,
        "external": 0
      },
      "pos": [
        0,
        1
      ]
    },
    {
      "id": 232,
      "plugin": "Autodafe-DrumKit",
      "version": "1.0.0",
      "model": "DrumsHiHatClosed",
      "params": [
        {
          "id": 0,
          "value": 0.0
        }
      ],
      "rightModuleId": 218,
      "data": {
        "sampletype": 4
      },
      "pos": [
        41,
        2
      ]
    },
    {
      "id": 233,
      "plugin": "Autodafe-DrumKit",
      "version": "1.0.0",
      "model": "DrumsHiHatOpen",
      "params": [
        {
          "id": 0,
          "value": 0.0
        }
      ],
      "data": {
        "sampletype": 4
      },
      "pos": [
        35,
        2
      ]
    }
  ],
  "cables": [
    {
      "id": 490,
      "outputModuleId": 192,
      "outputId": 0,
      "inputModuleId": 1,
      "inputId": 0,
      "color": "#0986ad"
    },
    {
      "id": 491,
      "outputModuleId": 192,
      "outputId": 1,
      "inputModuleId": 1,
      "inputId": 1,
      "color": "#c9b70e"
    },
    {
      "id": 492,
      "outputModuleId": 192,
      "outputId": 1,
      "inputModuleId": 7,
      "inputId": 1,
      "color": "#0c8e15"
    },
    {
      "id": 489,
      "outputModuleId": 192,
      "outputId": 0,
      "inputModuleId": 7,
      "inputId": 0,
      "color": "#0c8e15"
    },
    {
      "id": 493,
      "outputModuleId": 193,
      "outputId": 0,
      "inputModuleId": 192,
      "inputId": 12,
      "color": "#0986ad"
    },
    {
      "id": 494,
      "outputModuleId": 193,
      "outputId": 1,
      "inputModuleId": 192,
      "inputId": 28,
      "color": "#c9b70e"
    },
    {
      "id": 495,
      "outputModuleId": 192,
      "outputId": 8,
      "inputModuleId": 193,
      "inputId": 0,
      "color": "#0c8e15"
    },
    {
      "id": 496,
      "outputModuleId": 192,
      "outputId": 12,
      "inputModuleId": 193,
      "inputId": 1,
      "color": "#c91847"
    },
    {
      "id": 497,
      "outputModuleId": 195,
      "outputId": 0,
      "inputModuleId": 194,
      "inputId": 7,
      "color": "#c9b70e"
    },
    {
      "id": 498,
      "outputModuleId": 194,
      "outputId": 0,
      "inputModuleId": 192,
      "inputId": 13,
      "color": "#0c8e15"
    },
    {
      "id": 499,
      "outputModuleId": 194,
      "outputId": 1,
      "inputModuleId": 192,
      "inputId": 29,
      "color": "#0986ad"
    },
    {
      "id": 500,
      "outputModuleId": 192,
      "outputId": 13,
      "inputModuleId": 194,
      "inputId": 6,
      "color": "#c9b70e"
    },
    {
      "id": 501,
      "outputModuleId": 192,
      "outputId": 9,
      "inputModuleId": 194,
      "inputId": 5,
      "color": "#0c8e15"
    },
    {
      "id": 532,
      "outputModuleId": 195,
      "outputId": 1,
      "inputModuleId": 213,
      "inputId": 0,
      "color": "#c91847"
    },
    {
      "id": 534,
      "outputModuleId": 213,
      "outputId": 0,
      "inputModuleId": 212,
      "inputId": 0,
      "color": "#c9b70e"
    },
    {
      "id": 537,
      "outputModuleId": 195,
      "outputId": 2,
      "inputModuleId": 213,
      "inputId": 1,
      "color": "#0986ad"
    },
    {
      "id": 535,
      "outputModuleId": 212,
      "outputId": 0,
      "inputModuleId": 214,
      "inputId": 0,
      "color": "#0c8e15"
    },
    {
      "id": 536,
      "outputModuleId": 215,
      "outputId": 0,
      "inputModuleId": 192,
      "inputId": 0,
      "color": "#c91847"
    },
    {
      "id": 540,
      "outputModuleId": 214,
      "outputId": 0,
      "inputModuleId": 215,
      "inputId": 5,
      "color": "#c91847"
    },
    {
      "id": 541,
      "outputModuleId": 212,
      "outputId": 2,
      "inputModuleId": 215,
      "inputId": 0,
      "color": "#c9b70e"
    },
    {
      "id": 543,
      "outputModuleId": 212,
      "outputId": 2,
      "inputModuleId": 216,
      "inputId": 0,
      "color": "#c91847"
    },
    {
      "id": 544,
      "outputModuleId": 216,
      "outputId": 0,
      "inputModuleId": 192,
      "inputId": 1,
      "color": "#0986ad"
    },
    {
      "id": 545,
      "outputModuleId": 217,
      "outputId": 0,
      "inputModuleId": 216,
      "inputId": 5,
      "color": "#c9b70e"
    },
    {
      "id": 546,
      "outputModuleId": 223,
      "outputId": 0,
      "inputModuleId": 224,
      "inputId": 5,
      "color": "#0c8e15"
    },
    {
      "id": 547,
      "outputModuleId": 220,
      "outputId": 0,
      "inputModuleId": 221,
      "inputId": 5,
      "color": "#c91847"
    },
    {
      "id": 548,
      "outputModuleId": 219,
      "outputId": 2,
      "inputModuleId": 221,
      "inputId": 0,
      "color": "#0986ad"
    },
    {
      "id": 550,
      "outputModuleId": 219,
      "outputId": 0,
      "inputModuleId": 220,
      "inputId": 0,
      "color": "#c91847"
    },
    {
      "id": 552,
      "outputModuleId": 224,
      "outputId": 0,
      "inputModuleId": 192,
      "inputId": 3,
      "color": "#c9b70e"
    },
    {
      "id": 553,
      "outputModuleId": 221,
      "outputId": 0,
      "inputModuleId": 192,
      "inputId": 2,
      "color": "#0c8e15"
    },
    {
      "id": 554,
      "outputModuleId": 218,
      "outputId": 0,
      "inputModuleId": 219,
      "inputId": 0,
      "color": "#c91847"
    },
    {
      "id": 555,
      "outputModuleId": 218,
      "outputId": 1,
      "inputModuleId": 225,
      "inputId": 0,
      "color": "#0986ad"
    },
    {
      "id": 556,
      "outputModuleId": 225,
      "outputId": 2,
      "inputModuleId": 224,
      "inputId": 0,
      "color": "#c9b70e"
    },
    {
      "id": 557,
      "outputModuleId": 225,
      "outputId": 0,
      "inputModuleId": 223,
      "inputId": 0,
      "color": "#0c8e15"
    },
    {
      "id": 558,
      "outputModuleId": 195,
      "outputId": 1,
      "inputModuleId": 218,
      "inputId": 1,
      "color": "#c91847"
    },
    {
      "id": 559,
      "outputModuleId": 195,
      "outputId": 2,
      "inputModuleId": 218,
      "inputId": 2,
      "color": "#0986ad"
    },
    {
      "id": 560,
      "outputModuleId": 226,
      "outputId": 0,
      "inputModuleId": 192,
      "inputId": 4,
      "color": "#c9b70e"
    },
    {
      "id": 561,
      "outputModuleId": 195,
      "outputId": 3,
      "inputModuleId": 226,
      "inputId": 0,
      "color": "#0c8e15"
    },
    {
      "id": 542,
      "outputModuleId": 212,
      "outputId": 0,
      "inputModuleId": 217,
      "inputId": 0,
      "color": "#0c8e15"
    },
    {
      "id": 563,
      "outputModuleId": 225,
      "outputId": 0,
      "inputModuleId": 226,
      "inputId": 3,
      "color": "#0986ad"
    },
    {
      "id": 565,
      "outputModuleId": 227,
      "outputId": 0,
      "inputModuleId": 192,
      "inputId": 5,
      "color": "#0c8e15"
    },
    {
      "id": 564,
      "outputModuleId": 195,
      "outputId": 2,
      "inputModuleId": 227,
      "inputId": 7,
      "color": "#c9b70e"
    },
    {
      "id": 569,
      "outputModuleId": 230,
      "outputId": 0,
      "inputModuleId": 227,
      "inputId": 3,
      "color": "#0986ad"
    },
    {
      "id": 568,
      "outputModuleId": 230,
      "outputId": 0,
      "inputModuleId": 231,
      "inputId": 0,
      "color": "#0c8e15"
    },
    {
      "id": 570,
      "outputModuleId": 230,
      "outputId": 3,
      "inputModuleId": 227,
      "inputId": 5,
      "color": "#c9b70e"
    },
    {
      "id": 571,
      "outputModuleId": 232,
      "outputId": 0,
      "inputModuleId": 192,
      "inputId": 6,
      "color": "#c91847"
    },
    {
      "id": 572,
      "outputModuleId": 233,
      "outputId": 0,
      "inputModuleId": 192,
      "inputId": 7,
      "color": "#0986ad"
    },
    {
      "id": 574,
      "outputModuleId": 218,
      "outputId": 1,
      "inputModuleId": 233,
      "inputId": 0,
      "color": "#0c8e15"
    },
    {
      "id": 575,
      "outputModuleId": 218,
      "outputId": 0,
      "inputModuleId": 232,
      "inputId": 0,
      "color": "#c91847"
    }
  ]
}