{
  "version": "1.1.6",
  "modules": [
    {
      "id": 1,
      "plugin": "Core",
      "version": "1.1.6",
      "model": "AudioInterface",
      "params": [],
      "leftModuleId": 7,
      "data": {
        "audio": {
          "driver": 6,
          "deviceName": "Headphones Realtek HD Audio (Realtek(R) Audio)",
          "offset": 0,
          "maxChannels": 8,
          "sampleRate": 44100,
          "blockSize": 4096
        }
      },
      "pos": [
        133,
        0
      ]
    },
    {
      "id": 7,
      "plugin": "Fundamental",
      "version": "1.4.0",
      "model": "Scope",
      "params": [
        {
          "id": 0,
          "value": 0.0
        },
        {
          "id": 1,
          "value": 0.0
        },
        {
          "id": 2,
          "value": 0.0
        },
        {
          "id": 3,
          "value": 0.0
        },
        {
          "id": 4,
          "value": 14.0
        },
        {
          "id": 5,
          "value": 0.0
        },
        {
          "id": 6,
          "value": 0.0
        },
        {
          "id": 7,
          "value": 0.0
        }
      ],
      "leftModuleId": 194,
      "rightModuleId": 1,
      "data": {
        "lissajous": 0,
        "external": 0
      },
      "pos": [
        120,
        0
      ]
    },
    {
      "id": 192,
      "plugin": "mscHack",
      "version": "1.0.2",
      "model": "Mix_9_3_4",
      "params": [
        {
          "id": 0,
          "value": 0.177000135
        },
        {
          "id": 1,
          "value": 0.661000013
        },
        {
          "id": 2,
          "value": 0.636000097
        },
        {
          "id": 3,
          "value": 0.838000059
        },
        {
          "id": 4,
          "value": 0.775000095
        },
        {
          "id": 5,
          "value": 0.605999708
        },
        {
          "id": 6,
          "value": 0.724000216
        },
        {
          "id": 7,
          "value": 0.425999582
        },
        {
          "id": 8,
          "value": 1.0
        },
        {
          "id": 9,
          "value": 1.0
        },
        {
          "id": 10,
          "value": 0.0
        },
        {
          "id": 11,
          "value": 0.0
        },
        {
          "id": 12,
          "value": 0.900000513
        },
        {
          "id": 13,
          "value": 0.558999538
        },
        {
          "id": 14,
          "value": 1.0
        },
        {
          "id": 15,
          "value": 0.0
        },
        {
          "id": 16,
          "value": 0.0
        },
        {
          "id": 17,
          "value": 0.0
        },
        {
          "id": 18,
          "value": 0.0
        },
        {
          "id": 19,
          "value": 0.0
        },
        {
          "id": 20,
          "value": 0.0
        },
        {
          "id": 21,
          "value": 0.0
        },
        {
          "id": 22,
          "value": 0.0
        },
        {
          "id": 23,
          "value": 0.0
        },
        {
          "id": 24,
          "value": 0.0
        },
        {
          "id": 25,
          "value": 0.0
        },
        {
          "id": 26,
          "value": 0.0
        },
        {
          "id": 27,
          "value": 0.0
        },
        {
          "id": 28,
          "value": 0.0
        },
        {
          "id": 29,
          "value": 0.0
        },
        {
          "id": 30,
          "value": 0.0
        },
        {
          "id": 31,
          "value": 0.0
        },
        {
          "id": 32,
          "value": 0.0
        },
        {
          "id": 33,
          "value": 0.5
        },
        {
          "id": 34,
          "value": 0.5
        },
        {
          "id": 35,
          "value": 0.5
        },
        {
          "id": 36,
          "value": 0.5
        },
        {
          "id": 37,
          "value": 0.5
        },
        {
          "id": 38,
          "value": 0.5
        },
        {
          "id": 39,
          "value": 0.5
        },
        {
          "id": 40,
          "value": 0.5
        },
        {
          "id": 41,
          "value": 0.5
        },
        {
          "id": 42,
          "value": 0.5
        },
        {
          "id": 43,
          "value": 0.5
        },
        {
          "id": 44,
          "value": 0.5
        },
        {
          "id": 45,
          "value": 0.5
        },
        {
          "id": 46,
          "value": 0.5
        },
        {
          "id": 47,
          "value": 0.5
        },
        {
          "id": 48,
          "value": 0.5
        },
        {
          "id": 49,
          "value": 0.5
        },
        {
          "id": 50,
          "value": 0.5
        },
        {
          "id": 51,
          "value": 0.5
        },
        {
          "id": 52,
          "value": 0.5
        },
        {
          "id": 53,
          "value": 0.5
        },
        {
          "id": 54,
          "value": 0.5
        },
        {
          "id": 55,
          "value": 0.5
        },
        {
          "id": 56,
          "value": 0.5
        },
        {
          "id": 57,
          "value": 0.5
        },
        {
          "id": 58,
          "value": 0.5
        },
        {
          "id": 59,
          "value": 0.5
        },
        {
          "id": 60,
          "value": 0.5
        },
        {
          "id": 61,
          "value": 0.5
        },
        {
          "id": 62,
          "value": 0.5
        },
        {
          "id": 63,
          "value": 0.5
        },
        {
          "id": 64,
          "value": 0.5
        },
        {
          "id": 65,
          "value": 0.5
        },
        {
          "id": 66,
          "value": 0.5
        },
        {
          "id": 67,
          "value": 0.5
        },
        {
          "id": 68,
          "value": 0.5
        },
        {
          "id": 69,
          "value": 0.5
        },
        {
          "id": 70,
          "value": 0.5
        },
        {
          "id": 71,
          "value": 0.5
        },
        {
          "id": 72,
          "value": 0.5
        },
        {
          "id": 73,
          "value": 0.5
        },
        {
          "id": 74,
          "value": 0.5
        },
        {
          "id": 75,
          "value": 0.5
        },
        {
          "id": 76,
          "value": 0.5
        },
        {
          "id": 77,
          "value": 0.5
        },
        {
          "id": 78,
          "value": 0.5
        },
        {
          "id": 79,
          "value": 0.5
        },
        {
          "id": 80,
          "value": 0.5
        },
        {
          "id": 81,
          "value": 0.130499974
        },
        {
          "id": 82,
          "value": 0.501000047
        },
        {
          "id": 83,
          "value": 0.0
        },
        {
          "id": 84,
          "value": 0.0
        },
        {
          "id": 85,
          "value": 0.110999994
        },
        {
          "id": 86,
          "value": 0.507000089
        },
        {
          "id": 87,
          "value": 0.0
        },
        {
          "id": 88,
          "value": 0.0
        },
        {
          "id": 89,
          "value": 0.105000012
        },
        {
          "id": 90,
          "value": 0.515999913
        },
        {
          "id": 91,
          "value": 0.0
        },
        {
          "id": 92,
          "value": 0.0
        },
        {
          "id": 93,
          "value": 0.0
        },
        {
          "id": 94,
          "value": 0.519000411
        },
        {
          "id": 95,
          "value": 0.00300000003
        },
        {
          "id": 96,
          "value": 0.0
        },
        {
          "id": 97,
          "value": 0.0
        },
        {
          "id": 98,
          "value": 0.0
        },
        {
          "id": 99,
          "value": 0.0
        },
        {
          "id": 100,
          "value": 0.0
        },
        {
          "id": 101,
          "value": 0.0
        },
        {
          "id": 102,
          "value": 0.103500016
        },
        {
          "id": 103,
          "value": 0.0
        },
        {
          "id": 104,
          "value": 0.0
        },
        {
          "id": 105,
          "value": 0.0
        },
        {
          "id": 106,
          "value": 0.173999906
        },
        {
          "id": 107,
          "value": 0.0
        },
        {
          "id": 108,
          "value": 0.0
        },
        {
          "id": 109,
          "value": 0.0
        },
        {
          "id": 110,
          "value": 0.258000135
        },
        {
          "id": 111,
          "value": 0.0
        },
        {
          "id": 112,
          "value": 0.0
        },
        {
          "id": 113,
          "value": 0.0
        },
        {
          "id": 114,
          "value": 0.0
        },
        {
          "id": 115,
          "value": 0.0
        },
        {
          "id": 116,
          "value": 0.0
        },
        {
          "id": 117,
          "value": 0.0
        },
        {
          "id": 118,
          "value": 0.0
        },
        {
          "id": 119,
          "value": 0.0
        },
        {
          "id": 120,
          "value": 0.0
        },
        {
          "id": 121,
          "value": 0.0
        },
        {
          "id": 122,
          "value": 0.0
        },
        {
          "id": 123,
          "value": 0.0
        },
        {
          "id": 124,
          "value": 0.0
        },
        {
          "id": 125,
          "value": 0.0
        },
        {
          "id": 126,
          "value": 0.0
        },
        {
          "id": 127,
          "value": 0.0
        },
        {
          "id": 128,
          "value": 0.0
        },
        {
          "id": 129,
          "value": 1.0
        },
        {
          "id": 130,
          "value": 1.0
        },
        {
          "id": 131,
          "value": 0.0
        },
        {
          "id": 132,
          "value": 0.0
        }
      ],
      "leftModuleId": 195,
      "rightModuleId": 193,
      "data": {
        "m_bMuteStates": [
          false,
          false,
          false,
          false,
          false,
          false,
          false,
          false,
          false,
          false,
          false,
          false,
          false,
          false,
          false,
          false
        ],
        "m_bSoloStates": [
          false,
          false,
          false,
          false,
          false,
          false,
          false,
          false,
          false,
          false,
          false,
          false,
          false,
          false,
          false,
          false
        ],
        "m_iRouteGroup": [
          3,
          3,
          3,
          3,
          2,
          2,
          3,
          3,
          3
        ],
        "m_bGroupPreMute": [
          true
        ],
        "m_bGainLevelx2": [
          false
        ],
        "m_bPreFader": [
          false,
          false,
          false,
          false,
          false,
          false,
          false,
          false,
          false,
          false,
          false,
          false
        ],
        "m_bAuxIgnoreSolo": [
          false
        ]
      },
      "pos": [
        63,
        0
      ]
    },
    {
      "id": 193,
      "plugin": "Valley",
      "version": "1.0.1",
      "model": "Plateau",
      "params": [
        {
          "id": 0,
          "value": 1.0
        },
        {
          "id": 1,
          "value": 0.5
        },
        {
          "id": 2,
          "value": 0.0
        },
        {
          "id": 3,
          "value": 10.0
        },
        {
          "id": 4,
          "value": 9.95499992
        },
        {
          "id": 5,
          "value": 0.496999681
        },
        {
          "id": 6,
          "value": 10.0
        },
        {
          "id": 7,
          "value": 0.589545429
        },
        {
          "id": 8,
          "value": 9.88000011
        },
        {
          "id": 9,
          "value": 10.0
        },
        {
          "id": 10,
          "value": 0.499500275
        },
        {
          "id": 11,
          "value": 0.18099995
        },
        {
          "id": 12,
          "value": 8.06000042
        },
        {
          "id": 13,
          "value": 0.0
        },
        {
          "id": 14,
          "value": 0.0
        },
        {
          "id": 15,
          "value": 0.0
        },
        {
          "id": 16,
          "value": 0.0
        },
        {
          "id": 17,
          "value": 0.0
        },
        {
          "id": 18,
          "value": 0.0
        },
        {
          "id": 19,
          "value": 0.0
        },
        {
          "id": 20,
          "value": 0.0
        },
        {
          "id": 21,
          "value": 0.0
        },
        {
          "id": 22,
          "value": 0.0
        },
        {
          "id": 23,
          "value": 0.0
        },
        {
          "id": 24,
          "value": 0.0
        },
        {
          "id": 25,
          "value": 0.0
        },
        {
          "id": 26,
          "value": 0.0
        },
        {
          "id": 27,
          "value": 0.0
        },
        {
          "id": 28,
          "value": 0.0
        },
        {
          "id": 29,
          "value": 0.0
        },
        {
          "id": 30,
          "value": 1.0
        }
      ],
      "leftModuleId": 192,
      "rightModuleId": 194,
      "data": {
        "frozen": false,
        "freezeToggle": false,
        "panelStyle": 0,
        "tuned": 0,
        "diffuseInput": 1,
        "preDelayCVSens": 0,
        "inputSensitivity": 0,
        "outputSaturation": 0
      },
      "pos": [
        96,
        0
      ]
    },
    {
      "id": 194,
      "plugin": "AlrightDevices",
      "version": "1.0.2",
      "model": "Chronoblob2",
      "params": [
        {
          "id": 0,
          "value": 0.5
        },
        {
          "id": 1,
          "value": 0.5
        },
        {
          "id": 2,
          "value": 0.5
        },
        {
          "id": 3,
          "value": 0.0
        },
        {
          "id": 4,
          "value": 0.0
        },
        {
          "id": 5,
          "value": 0.0
        },
        {
          "id": 6,
          "value": 0.0
        },
        {
          "id": 7,
          "value": 0.0
        },
        {
          "id": 8,
          "value": 0.0
        },
        {
          "id": 9,
          "value": 0.0
        }
      ],
      "leftModuleId": 193,
      "rightModuleId": 7,
      "data": {
        "delay_mode": 0,
        "hold_behavior": 0,
        "sync_prescaler": 6
      },
      "pos": [
        108,
        0
      ]
    },
    {
      "id": 195,
      "plugin": "ImpromptuModular",
      "version": "1.1.3",
      "model": "Clocked",
      "params": [
        {
          "id": 0,
          "value": 60.0
        },
        {
          "id": 1,
          "value": 5.0
        },
        {
          "id": 2,
          "value": 2.0
        },
        {
          "id": 3,
          "value": 0.0
        },
        {
          "id": 4,
          "value": 0.0
        },
        {
          "id": 5,
          "value": 0.0
        },
        {
          "id": 6,
          "value": 0.0
        },
        {
          "id": 7,
          "value": 0.0
        },
        {
          "id": 8,
          "value": 0.5
        },
        {
          "id": 9,
          "value": 0.5
        },
        {
          "id": 10,
          "value": 0.5
        },
        {
          "id": 11,
          "value": 0.5
        },
        {
          "id": 12,
          "value": 0.0
        },
        {
          "id": 13,
          "value": 0.0
        },
        {
          "id": 14,
          "value": 0.0
        },
        {
          "id": 15,
          "value": 0.0
        },
        {
          "id": 16,
          "value": 0.0
        },
        {
          "id": 17,
          "value": 0.0
        },
        {
          "id": 18,
          "value": 0.0
        },
        {
          "id": 19,
          "value": 0.0
        }
      ],
      "leftModuleId": 369,
      "rightModuleId": 192,
      "data": {
        "panelTheme": 0,
        "running": true,
        "displayDelayNoteMode": true,
        "bpmDetectionMode": false,
        "restartOnStopStartRun": 0,
        "sendResetOnRestart": false,
        "ppqn": 4,
        "resetClockOutputsHigh": true,
        "momentaryRunInput": true
      },
      "pos": [
        43,
        0
      ]
    },
    {
      "id": 212,
      "plugin": "ML_modules",
      "version": "1.0.5",
      "model": "Quantum",
      "params": [
        {
          "id": 0,
          "value": 0.0
        },
        {
          "id": 1,
          "value": 0.0
        },
        {
          "id": 2,
          "value": 0.0
        },
        {
          "id": 3,
          "value": 0.0
        },
        {
          "id": 4,
          "value": 0.0
        },
        {
          "id": 5,
          "value": 0.0
        },
        {
          "id": 6,
          "value": 0.0
        },
        {
          "id": 7,
          "value": 0.0
        },
        {
          "id": 8,
          "value": 0.0
        },
        {
          "id": 9,
          "value": 0.0
        },
        {
          "id": 10,
          "value": 0.0
        },
        {
          "id": 11,
          "value": 0.0
        }
      ],
      "leftModuleId": 213,
      "rightModuleId": 366,
      "data": {
        "scale": [
          1,
          0,
          0,
          0,
          1,
          0,
          0,
          1,
          0,
          0,
          0,
          1
        ],
        "mode": 1,
        "transpose_select": 1,
        "toggle_mode": 0
      },
      "pos": [
        88,
        1
      ]
    },
    {
      "id": 213,
      "plugin": "Geodesics",
      "version": "1.1.0",
      "model": "Entropia",
      "params": [
        {
          "id": 0,
          "value": 0.0
        },
        {
          "id": 1,
          "value": 0.0
        },
        {
          "id": 2,
          "value": 0.0
        },
        {
          "id": 3,
          "value": 0.0
        },
        {
          "id": 4,
          "value": 0.0
        },
        {
          "id": 5,
          "value": 0.665749431
        },
        {
          "id": 6,
          "value": 0.235103011
        },
        {
          "id": 7,
          "value": 0.750633597
        },
        {
          "id": 8,
          "value": 0.986157954
        },
        {
          "id": 9,
          "value": 0.913390458
        },
        {
          "id": 10,
          "value": 0.884257555
        },
        {
          "id": 11,
          "value": 0.409585953
        },
        {
          "id": 12,
          "value": 0.182516277
        },
        {
          "id": 13,
          "value": 0.760168374
        },
        {
          "id": 14,
          "value": 0.30885005
        },
        {
          "id": 15,
          "value": 0.539077163
        },
        {
          "id": 16,
          "value": 0.577370048
        },
        {
          "id": 17,
          "value": 0.91621542
        },
        {
          "id": 18,
          "value": 0.233138859
        },
        {
          "id": 19,
          "value": 0.0549191236
        },
        {
          "id": 20,
          "value": 0.837551355
        },
        {
          "id": 21,
          "value": 0.719058037
        },
        {
          "id": 22,
          "value": 0.414269686
        },
        {
          "id": 23,
          "value": 0.220728159
        },
        {
          "id": 24,
          "value": 0.968797863
        },
        {
          "id": 25,
          "value": 0.0819043517
        },
        {
          "id": 26,
          "value": 0.0813266039
        },
        {
          "id": 27,
          "value": 0.250682235
        },
        {
          "id": 28,
          "value": 0.0818196535
        },
        {
          "id": 29,
          "value": 0.0
        },
        {
          "id": 30,
          "value": 0.0
        },
        {
          "id": 31,
          "value": 0.0
        },
        {
          "id": 32,
          "value": 0.0
        },
        {
          "id": 33,
          "value": 0.0
        },
        {
          "id": 34,
          "value": 0.0
        },
        {
          "id": 35,
          "value": 0.0
        },
        {
          "id": 36,
          "value": 0.0
        },
        {
          "id": 37,
          "value": 0.0
        },
        {
          "id": 38,
          "value": 0.0
        },
        {
          "id": 39,
          "value": 0.0
        },
        {
          "id": 40,
          "value": 0.0
        },
        {
          "id": 41,
          "value": 0.0339999162
        },
        {
          "id": 42,
          "value": 0.0
        },
        {
          "id": 43,
          "value": 0.0
        },
        {
          "id": 44,
          "value": 0.0
        }
      ],
      "leftModuleId": 363,
      "rightModuleId": 212,
      "data": {
        "panelTheme": 0,
        "running": true,
        "resetOnRun": false,
        "length": 8,
        "quantize": 3,
        "audio": 0,
        "ranges0": 0,
        "ranges1": 0,
        "addMode": true,
        "sources0": 2,
        "sources1": 2,
        "stepIndex": 6,
        "pipeBlue": true,
        "randomCVs0": 0.0821928382,
        "randomCVs1": 0.801620424,
        "clkSource": 0
      },
      "pos": [
        67,
        1
      ]
    },
    {
      "id": 214,
      "plugin": "VultModulesFree",
      "version": "1.6.0",
      "model": "Basal",
      "params": [
        {
          "id": 0,
          "value": -0.00299990736
        },
        {
          "id": 1,
          "value": -1.0
        },
        {
          "id": 2,
          "value": 0.0
        },
        {
          "id": 3,
          "value": 0.0
        },
        {
          "id": 4,
          "value": 0.499500006
        },
        {
          "id": 5,
          "value": 0.0
        }
      ],
      "leftModuleId": 367,
      "rightModuleId": 215,
      "pos": [
        107,
        1
      ]
    },
    {
      "id": 215,
      "plugin": "VultModulesFree",
      "version": "1.6.0",
      "model": "Slap",
      "params": [
        {
          "id": 0,
          "value": 0.154499978
        },
        {
          "id": 1,
          "value": 0.5
        },
        {
          "id": 2,
          "value": 0.5
        },
        {
          "id": 3,
          "value": 0.171499997
        },
        {
          "id": 4,
          "value": 0.0
        },
        {
          "id": 5,
          "value": 0.0
        },
        {
          "id": 6,
          "value": 0.0
        },
        {
          "id": 7,
          "value": 0.0
        },
        {
          "id": 8,
          "value": 0.0
        }
      ],
      "leftModuleId": 214,
      "rightModuleId": 358,
      "pos": [
        113,
        1
      ]
    },
    {
      "id": 216,
      "plugin": "VultModulesFree",
      "version": "1.6.0",
      "model": "Slap",
      "params": [
        {
          "id": 0,
          "value": 0.165000021
        },
        {
          "id": 1,
          "value": 0.5
        },
        {
          "id": 2,
          "value": 0.5
        },
        {
          "id": 3,
          "value": 0.5
        },
        {
          "id": 4,
          "value": 0.218999997
        },
        {
          "id": 5,
          "value": 0.285000056
        },
        {
          "id": 6,
          "value": 0.284999996
        },
        {
          "id": 7,
          "value": 0.0
        },
        {
          "id": 8,
          "value": 0.0
        }
      ],
      "leftModuleId": 217,
      "rightModuleId": 359,
      "pos": [
        139,
        1
      ]
    },
    {
      "id": 217,
      "plugin": "VultModulesFree",
      "version": "1.6.0",
      "model": "Basal",
      "params": [
        {
          "id": 0,
          "value": 0.0
        },
        {
          "id": 1,
          "value": -1.0
        },
        {
          "id": 2,
          "value": 0.0
        },
        {
          "id": 3,
          "value": 0.0
        },
        {
          "id": 4,
          "value": 0.174000829
        },
        {
          "id": 5,
          "value": 0.0
        }
      ],
      "rightModuleId": 216,
      "pos": [
        133,
        1
      ]
    },
    {
      "id": 218,
      "plugin": "Geodesics",
      "version": "1.1.0",
      "model": "Ions",
      "params": [
        {
          "id": 0,
          "value": 0.0
        },
        {
          "id": 1,
          "value": 0.0
        },
        {
          "id": 2,
          "value": 0.479895949
        },
        {
          "id": 3,
          "value": 0.92618072
        },
        {
          "id": 4,
          "value": 0.77883482
        },
        {
          "id": 5,
          "value": 0.4622311
        },
        {
          "id": 6,
          "value": 0.64661628
        },
        {
          "id": 7,
          "value": 0.387197614
        },
        {
          "id": 8,
          "value": 0.000787734985
        },
        {
          "id": 9,
          "value": 0.708543301
        },
        {
          "id": 10,
          "value": 0.434156358
        },
        {
          "id": 11,
          "value": 0.664544582
        },
        {
          "id": 12,
          "value": 0.868829966
        },
        {
          "id": 13,
          "value": 0.0122032762
        },
        {
          "id": 14,
          "value": 0.740312457
        },
        {
          "id": 15,
          "value": 0.397295177
        },
        {
          "id": 16,
          "value": 0.863931715
        },
        {
          "id": 17,
          "value": 0.507999539
        },
        {
          "id": 18,
          "value": 0.0
        },
        {
          "id": 19,
          "value": 0.0
        },
        {
          "id": 20,
          "value": 0.0
        },
        {
          "id": 21,
          "value": 0.0
        },
        {
          "id": 22,
          "value": 0.0
        },
        {
          "id": 23,
          "value": 0.0
        },
        {
          "id": 24,
          "value": 0.0
        },
        {
          "id": 25,
          "value": 0.0
        },
        {
          "id": 26,
          "value": 0.0
        },
        {
          "id": 27,
          "value": 0.0
        }
      ],
      "leftModuleId": 351,
      "rightModuleId": 219,
      "data": {
        "panelTheme": 0,
        "running": true,
        "resetOnRun": false,
        "quantize": 3,
        "uncertainty": false,
        "stepIndexes0": 3,
        "stepIndexes1": 3,
        "states0": 1,
        "states1": 1,
        "ranges0": 0,
        "ranges1": 0,
        "leap": true
      },
      "pos": [
        74,
        2
      ]
    },
    {
      "id": 219,
      "plugin": "ML_modules",
      "version": "1.0.5",
      "model": "Quantum",
      "params": [
        {
          "id": 0,
          "value": 0.0
        },
        {
          "id": 1,
          "value": 0.0
        },
        {
          "id": 2,
          "value": 0.0
        },
        {
          "id": 3,
          "value": 0.0
        },
        {
          "id": 4,
          "value": 0.0
        },
        {
          "id": 5,
          "value": 0.0
        },
        {
          "id": 6,
          "value": 0.0
        },
        {
          "id": 7,
          "value": 0.0
        },
        {
          "id": 8,
          "value": 0.0
        },
        {
          "id": 9,
          "value": 0.0
        },
        {
          "id": 10,
          "value": 0.0
        },
        {
          "id": 11,
          "value": 0.0
        }
      ],
      "leftModuleId": 218,
      "data": {
        "scale": [
          0,
          0,
          0,
          0,
          1,
          0,
          0,
          1,
          0,
          0,
          0,
          1
        ],
        "mode": 1,
        "transpose_select": 1,
        "toggle_mode": 0
      },
      "pos": [
        93,
        2
      ]
    },
    {
      "id": 220,
      "plugin": "VultModulesFree",
      "version": "1.6.0",
      "model": "Basal",
      "params": [
        {
          "id": 0,
          "value": 0.000999980606
        },
        {
          "id": 1,
          "value": -1.0
        },
        {
          "id": 2,
          "value": 0.0
        },
        {
          "id": 3,
          "value": 0.0
        },
        {
          "id": 4,
          "value": 0.176500097
        },
        {
          "id": 5,
          "value": 0.0
        }
      ],
      "rightModuleId": 221,
      "pos": [
        107,
        2
      ]
    },
    {
      "id": 221,
      "plugin": "VultModulesFree",
      "version": "1.6.0",
      "model": "Slap",
      "params": [
        {
          "id": 0,
          "value": 0.168000013
        },
        {
          "id": 1,
          "value": 0.5
        },
        {
          "id": 2,
          "value": 0.5
        },
        {
          "id": 3,
          "value": 0.5
        },
        {
          "id": 4,
          "value": 0.0
        },
        {
          "id": 5,
          "value": 0.0
        },
        {
          "id": 6,
          "value": 0.0
        },
        {
          "id": 7,
          "value": 0.0
        },
        {
          "id": 8,
          "value": 0.0
        }
      ],
      "leftModuleId": 220,
      "rightModuleId": 361,
      "pos": [
        113,
        2
      ]
    },
    {
      "id": 223,
      "plugin": "VultModulesFree",
      "version": "1.6.0",
      "model": "Basal",
      "params": [
        {
          "id": 0,
          "value": 0.0
        },
        {
          "id": 1,
          "value": -0.906999767
        },
        {
          "id": 2,
          "value": 0.503499866
        },
        {
          "id": 3,
          "value": 0.0
        },
        {
          "id": 4,
          "value": 0.0
        },
        {
          "id": 5,
          "value": 0.0
        }
      ],
      "leftModuleId": 225,
      "rightModuleId": 224,
      "pos": [
        133,
        2
      ]
    },
    {
      "id": 224,
      "plugin": "VultModulesFree",
      "version": "1.6.0",
      "model": "Slap",
      "params": [
        {
          "id": 0,
          "value": 0.170999974
        },
        {
          "id": 1,
          "value": 0.5
        },
        {
          "id": 2,
          "value": 0.5
        },
        {
          "id": 3,
          "value": 0.5
        },
        {
          "id": 4,
          "value": 0.218999997
        },
        {
          "id": 5,
          "value": 0.285000056
        },
        {
          "id": 6,
          "value": 0.284999996
        },
        {
          "id": 7,
          "value": 0.0
        },
        {
          "id": 8,
          "value": 0.0
        }
      ],
      "leftModuleId": 223,
      "rightModuleId": 360,
      "pos": [
        139,
        2
      ]
    },
    {
      "id": 225,
      "plugin": "ML_modules",
      "version": "1.0.5",
      "model": "Quantum",
      "params": [
        {
          "id": 0,
          "value": 0.0
        },
        {
          "id": 1,
          "value": 0.0
        },
        {
          "id": 2,
          "value": 0.0
        },
        {
          "id": 3,
          "value": 0.0
        },
        {
          "id": 4,
          "value": 0.0
        },
        {
          "id": 5,
          "value": 0.0
        },
        {
          "id": 6,
          "value": 0.0
        },
        {
          "id": 7,
          "value": 0.0
        },
        {
          "id": 8,
          "value": 0.0
        },
        {
          "id": 9,
          "value": 0.0
        },
        {
          "id": 10,
          "value": 0.0
        },
        {
          "id": 11,
          "value": 0.0
        }
      ],
      "leftModuleId": 361,
      "rightModuleId": 223,
      "data": {
        "scale": [
          1,
          0,
          0,
          0,
          1,
          0,
          0,
          1,
          0,
          0,
          0,
          0
        ],
        "mode": 1,
        "transpose_select": 1,
        "toggle_mode": 0
      },
      "pos": [
        125,
        2
      ]
    },
    {
      "id": 227,
      "plugin": "VultModulesFree",
      "version": "1.6.0",
      "model": "Trummor2",
      "params": [
        {
          "id": 0,
          "value": 0.0433999896
        },
        {
          "id": 1,
          "value": 0.708999991
        },
        {
          "id": 2,
          "value": 0.13349998
        },
        {
          "id": 3,
          "value": 0.163499698
        },
        {
          "id": 4,
          "value": 0.344999999
        },
        {
          "id": 5,
          "value": 0.0930006281
        },
        {
          "id": 6,
          "value": 0.0885000154
        },
        {
          "id": 7,
          "value": 0.200000003
        },
        {
          "id": 8,
          "value": 0.290500015
        },
        {
          "id": 9,
          "value": 0.0
        },
        {
          "id": 10,
          "value": 0.0
        },
        {
          "id": 11,
          "value": 0.699001133
        },
        {
          "id": 12,
          "value": 0.100000001
        },
        {
          "id": 13,
          "value": 0.0
        },
        {
          "id": 14,
          "value": 0.0
        },
        {
          "id": 15,
          "value": 0.949999988
        },
        {
          "id": 16,
          "value": 0.0
        },
        {
          "id": 17,
          "value": 0.0
        },
        {
          "id": 18,
          "value": 0.0
        },
        {
          "id": 19,
          "value": 0.0500000007
        },
        {
          "id": 20,
          "value": 0.0500000007
        },
        {
          "id": 21,
          "value": 0.0
        },
        {
          "id": 22,
          "value": 0.0
        },
        {
          "id": 23,
          "value": 0.0
        },
        {
          "id": 24,
          "value": 0.0
        },
        {
          "id": 25,
          "value": 0.0
        },
        {
          "id": 26,
          "value": 0.0
        },
        {
          "id": 27,
          "value": 0.0
        },
        {
          "id": 28,
          "value": 0.0
        },
        {
          "id": 29,
          "value": 0.0
        },
        {
          "id": 30,
          "value": 0.0
        },
        {
          "id": 31,
          "value": 0.0
        },
        {
          "id": 32,
          "value": 0.0
        }
      ],
      "leftModuleId": 230,
      "rightModuleId": 364,
      "data": {
        "mod_a": 6,
        "mod_b": 0,
        "mod_c": 0,
        "mod_d": 0,
        "mk2": true
      },
      "pos": [
        23,
        1
      ]
    },
    {
      "id": 230,
      "plugin": "VultModulesFree",
      "version": "1.6.0",
      "model": "Caudal",
      "params": [
        {
          "id": 0,
          "value": 0.0420001298
        },
        {
          "id": 1,
          "value": 0.0260000136
        },
        {
          "id": 2,
          "value": 0.0
        },
        {
          "id": 3,
          "value": -0.0420000255
        },
        {
          "id": 4,
          "value": 0.0
        },
        {
          "id": 5,
          "value": 0.0
        },
        {
          "id": 6,
          "value": 0.0
        },
        {
          "id": 7,
          "value": 0.0
        },
        {
          "id": 8,
          "value": 0.0
        }
      ],
      "leftModuleId": 373,
      "rightModuleId": 227,
      "data": {
        "phi1": -0.312397599,
        "phi2": -1.2376523,
        "phi3": 0.832256854,
        "phi4": 4.73432922,
        "w1": -3.04502273,
        "w2": 5.3473525,
        "w3": 16.1925163,
        "w4": 18.2300987,
        "dx1": -2.03258371,
        "dy1": 6.66661501,
        "dx2": -8.04582405,
        "dy2": -5.19932175,
        "dx3": -10.4577589,
        "dy3": -5.32099295,
        "dx4": -7.92729807,
        "dy4": -4.97514343,
        "store_phi1": -0.312397599,
        "store_phi2": -1.2376523,
        "store_phi3": 0.832256854,
        "store_phi4": 4.73432922,
        "store_w1": -3.04502273,
        "store_w2": 5.3473525,
        "store_w3": 16.1925163,
        "store_w4": 18.2300987,
        "store_dx1": -2.03258371,
        "store_dy1": 6.66661501,
        "store_dx2": -8.04582405,
        "store_dy2": -5.19932175,
        "store_dx3": -10.4577589,
        "store_dy3": -5.32099295,
        "store_dx4": -7.92729807,
        "store_dy4": -4.97514343,
        "model": 0
      },
      "pos": [
        13,
        1
      ]
    },
    {
      "id": 232,
      "plugin": "Autodafe-DrumKit",
      "version": "1.0.0",
      "model": "DrumsHiHatClosed",
      "params": [
        {
          "id": 0,
          "value": 0.0
        }
      ],
      "leftModuleId": 233,
      "rightModuleId": 350,
      "data": {
        "sampletype": 4
      },
      "pos": [
        62,
        2
      ]
    },
    {
      "id": 233,
      "plugin": "Autodafe-DrumKit",
      "version": "1.0.0",
      "model": "DrumsHiHatOpen",
      "params": [
        {
          "id": 0,
          "value": 0.0
        }
      ],
      "leftModuleId": 353,
      "rightModuleId": 232,
      "data": {
        "sampletype": 4
      },
      "pos": [
        58,
        2
      ]
    },
    {
      "id": 342,
      "plugin": "VultModulesFree",
      "version": "1.6.0",
      "model": "Trummor2",
      "params": [
        {
          "id": 0,
          "value": 0.0428000577
        },
        {
          "id": 1,
          "value": 0.5
        },
        {
          "id": 2,
          "value": 0.0
        },
        {
          "id": 3,
          "value": 0.0
        },
        {
          "id": 4,
          "value": 0.696000397
        },
        {
          "id": 5,
          "value": 0.119999982
        },
        {
          "id": 6,
          "value": 0.057
        },
        {
          "id": 7,
          "value": 0.58250016
        },
        {
          "id": 8,
          "value": 0.630999863
        },
        {
          "id": 9,
          "value": 0.0
        },
        {
          "id": 10,
          "value": 0.0
        },
        {
          "id": 11,
          "value": 0.954003453
        },
        {
          "id": 12,
          "value": 0.413500041
        },
        {
          "id": 13,
          "value": 0.00300000003
        },
        {
          "id": 14,
          "value": -0.245999977
        },
        {
          "id": 15,
          "value": 0.697775126
        },
        {
          "id": 16,
          "value": 0.0
        },
        {
          "id": 17,
          "value": 0.0
        },
        {
          "id": 18,
          "value": 0.640500665
        },
        {
          "id": 19,
          "value": 0.471500099
        },
        {
          "id": 20,
          "value": 0.726501107
        },
        {
          "id": 21,
          "value": 0.0
        },
        {
          "id": 22,
          "value": 0.0
        },
        {
          "id": 23,
          "value": 0.0235000197
        },
        {
          "id": 24,
          "value": 0.0
        },
        {
          "id": 25,
          "value": 0.00799985323
        },
        {
          "id": 26,
          "value": 0.0
        },
        {
          "id": 27,
          "value": 0.0
        },
        {
          "id": 28,
          "value": 0.0
        },
        {
          "id": 29,
          "value": 0.0
        },
        {
          "id": 30,
          "value": 0.0
        },
        {
          "id": 31,
          "value": 0.0
        },
        {
          "id": 32,
          "value": 0.0
        }
      ],
      "leftModuleId": 364,
      "rightModuleId": 363,
      "data": {
        "mod_a": 11,
        "mod_b": 0,
        "mod_c": 0,
        "mod_d": 0,
        "mk2": true
      },
      "pos": [
        45,
        1
      ]
    },
    {
      "id": 343,
      "plugin": "Geodesics",
      "version": "1.1.0",
      "model": "Fate",
      "params": [
        {
          "id": 0,
          "value": 0.517000318
        },
        {
          "id": 1,
          "value": -1.0
        }
      ],
      "leftModuleId": 345,
      "rightModuleId": 354,
      "data": {
        "panelTheme": 1,
        "holdTrigOut": 0
      },
      "pos": [
        43,
        2
      ]
    },
    {
      "id": 344,
      "plugin": "Fundamental",
      "version": "1.4.0",
      "model": "Scope",
      "params": [
        {
          "id": 0,
          "value": -0.0
        },
        {
          "id": 1,
          "value": -6.36999989
        },
        {
          "id": 2,
          "value": -0.0
        },
        {
          "id": 3,
          "value": 3.50999784
        },
        {
          "id": 4,
          "value": 7.84500265
        },
        {
          "id": 5,
          "value": 0.0
        },
        {
          "id": 6,
          "value": 0.0
        },
        {
          "id": 7,
          "value": 0.0
        }
      ],
      "rightModuleId": 352,
      "data": {
        "lissajous": 0,
        "external": 0
      },
      "pos": [
        10,
        2
      ]
    },
    {
      "id": 345,
      "plugin": "Geodesics",
      "version": "1.1.0",
      "model": "Fate",
      "params": [
        {
          "id": 0,
          "value": 0.480999619
        },
        {
          "id": 1,
          "value": -1.0
        }
      ],
      "leftModuleId": 352,
      "rightModuleId": 343,
      "data": {
        "panelTheme": 1,
        "holdTrigOut": 0
      },
      "pos": [
        38,
        2
      ]
    },
    {
      "id": 350,
      "plugin": "Autodafe-DrumKit",
      "version": "1.0.0",
      "model": "DrumsRimClaves",
      "params": [
        {
          "id": 0,
          "value": 0.0
        }
      ],
      "leftModuleId": 232,
      "rightModuleId": 351,
      "data": {
        "sampletype": 4
      },
      "pos": [
        66,
        2
      ]
    },
    {
      "id": 351,
      "plugin": "Autodafe-DrumKit",
      "version": "1.0.0",
      "model": "DrumsRide",
      "params": [
        {
          "id": 0,
          "value": 0.0
        }
      ],
      "leftModuleId": 350,
      "rightModuleId": 218,
      "data": {
        "sampletype": 5
      },
      "pos": [
        70,
        2
      ]
    },
    {
      "id": 352,
      "plugin": "Bogaudio",
      "version": "1.1.26",
      "model": "Bogaudio-Mix4",
      "params": [
        {
          "id": 0,
          "value": 0.909090936
        },
        {
          "id": 1,
          "value": 0.0
        },
        {
          "id": 2,
          "value": 0.0
        },
        {
          "id": 3,
          "value": 0.873090804
        },
        {
          "id": 4,
          "value": 0.0
        },
        {
          "id": 5,
          "value": 0.0
        },
        {
          "id": 6,
          "value": 0.78700155
        },
        {
          "id": 7,
          "value": 0.0
        },
        {
          "id": 8,
          "value": 0.0
        },
        {
          "id": 9,
          "value": 0.859592259
        },
        {
          "id": 10,
          "value": 0.0
        },
        {
          "id": 11,
          "value": 0.0
        },
        {
          "id": 12,
          "value": 0.909090936
        },
        {
          "id": 13,
          "value": 0.0
        }
      ],
      "leftModuleId": 344,
      "rightModuleId": 345,
      "data": {
        "poly_channel_offset": -1
      },
      "pos": [
        23,
        2
      ]
    },
    {
      "id": 353,
      "plugin": "Geodesics",
      "version": "1.1.0",
      "model": "Fate",
      "params": [
        {
          "id": 0,
          "value": 0.487000257
        },
        {
          "id": 1,
          "value": -1.0
        }
      ],
      "leftModuleId": 354,
      "rightModuleId": 233,
      "data": {
        "panelTheme": 1,
        "holdTrigOut": 0
      },
      "pos": [
        53,
        2
      ]
    },
    {
      "id": 354,
      "plugin": "Geodesics",
      "version": "1.1.0",
      "model": "Fate",
      "params": [
        {
          "id": 0,
          "value": 0.493001372
        },
        {
          "id": 1,
          "value": -1.0
        }
      ],
      "leftModuleId": 343,
      "rightModuleId": 353,
      "data": {
        "panelTheme": 1,
        "holdTrigOut": 0
      },
      "pos": [
        48,
        2
      ]
    },
    {
      "id": 358,
      "plugin": "AS",
      "version": "1.0.3",
      "model": "MonoVUmeter",
      "params": [],
      "leftModuleId": 215,
      "pos": [
        123,
        1
      ]
    },
    {
      "id": 359,
      "plugin": "AS",
      "version": "1.0.3",
      "model": "MonoVUmeter",
      "params": [],
      "leftModuleId": 216,
      "pos": [
        149,
        1
      ]
    },
    {
      "id": 360,
      "plugin": "AS",
      "version": "1.0.3",
      "model": "MonoVUmeter",
      "params": [],
      "leftModuleId": 224,
      "pos": [
        149,
        2
      ]
    },
    {
      "id": 361,
      "plugin": "AS",
      "version": "1.0.3",
      "model": "MonoVUmeter",
      "params": [],
      "leftModuleId": 221,
      "rightModuleId": 225,
      "pos": [
        123,
        2
      ]
    },
    {
      "id": 363,
      "plugin": "AS",
      "version": "1.0.3",
      "model": "MonoVUmeter",
      "params": [],
      "leftModuleId": 342,
      "rightModuleId": 213,
      "pos": [
        65,
        1
      ]
    },
    {
      "id": 364,
      "plugin": "AS",
      "version": "1.0.3",
      "model": "MonoVUmeter",
      "params": [],
      "leftModuleId": 227,
      "rightModuleId": 342,
      "pos": [
        43,
        1
      ]
    },
    {
      "id": 366,
      "plugin": "Bogaudio",
      "version": "1.1.26",
      "model": "Bogaudio-SampleHold",
      "params": [
        {
          "id": 0,
          "value": 0.0
        },
        {
          "id": 1,
          "value": 0.0
        },
        {
          "id": 2,
          "value": 0.0
        },
        {
          "id": 3,
          "value": 0.0
        },
        {
          "id": 4,
          "value": 0.0
        },
        {
          "id": 5,
          "value": 0.0
        }
      ],
      "leftModuleId": 212,
      "rightModuleId": 367,
      "data": {
        "poly_input": 0,
        "noise_type": 0,
        "range_offset": 1.0,
        "range_scale": 5.0
      },
      "pos": [
        96,
        1
      ]
    },
    {
      "id": 367,
      "plugin": "Fundamental",
      "version": "1.4.0",
      "model": "Mutes",
      "params": [
        {
          "id": 0,
          "value": 0.0
        },
        {
          "id": 1,
          "value": 0.0
        },
        {
          "id": 2,
          "value": 0.0
        },
        {
          "id": 3,
          "value": 0.0
        },
        {
          "id": 4,
          "value": 0.0
        },
        {
          "id": 5,
          "value": 0.0
        },
        {
          "id": 6,
          "value": 0.0
        },
        {
          "id": 7,
          "value": 0.0
        },
        {
          "id": 8,
          "value": 0.0
        },
        {
          "id": 9,
          "value": 0.0
        }
      ],
      "leftModuleId": 366,
      "rightModuleId": 214,
      "data": {
        "states": [
          true,
          true,
          true,
          true,
          false,
          true,
          true,
          true,
          true,
          true
        ]
      },
      "pos": [
        99,
        1
      ]
    },
    {
      "id": 369,
      "plugin": "Bogaudio",
      "version": "1.1.26",
      "model": "Bogaudio-EightFO",
      "params": [
        {
          "id": 0,
          "value": -0.292500943
        },
        {
          "id": 1,
          "value": 3.0
        },
        {
          "id": 2,
          "value": 0.0
        },
        {
          "id": 3,
          "value": 0.0
        },
        {
          "id": 4,
          "value": 0.0
        },
        {
          "id": 5,
          "value": 0.0
        },
        {
          "id": 6,
          "value": 0.0
        },
        {
          "id": 7,
          "value": 0.0
        },
        {
          "id": 8,
          "value": 0.0
        },
        {
          "id": 9,
          "value": 0.0
        },
        {
          "id": 10,
          "value": 0.0
        },
        {
          "id": 11,
          "value": 1.0
        },
        {
          "id": 12,
          "value": 0.0
        },
        {
          "id": 13,
          "value": 0.716500103
        }
      ],
      "leftModuleId": 370,
      "rightModuleId": 195,
      "pos": [
        26,
        0
      ]
    },
    {
      "id": 370,
      "plugin": "Fundamental",
      "version": "1.4.0",
      "model": "Scope",
      "params": [
        {
          "id": 0,
          "value": 0.0
        },
        {
          "id": 1,
          "value": 0.0
        },
        {
          "id": 2,
          "value": 0.0
        },
        {
          "id": 3,
          "value": 0.0
        },
        {
          "id": 4,
          "value": 6.0
        },
        {
          "id": 5,
          "value": 0.0
        },
        {
          "id": 6,
          "value": 0.0
        },
        {
          "id": 7,
          "value": 0.0
        }
      ],
      "rightModuleId": 369,
      "data": {
        "lissajous": 0,
        "external": 0
      },
      "pos": [
        13,
        0
      ]
    },
    {
      "id": 371,
      "plugin": "SubmarineFree",
      "version": "1.1.0",
      "model": "TM-105",
      "params": [],
      "pos": [
        170,
        0
      ]
    },
    {
      "id": 373,
      "plugin": "Fundamental",
      "version": "1.4.0",
      "model": "Scope",
      "params": [
        {
          "id": 0,
          "value": 0.0
        },
        {
          "id": 1,
          "value": -1.49999928
        },
        {
          "id": 2,
          "value": -0.0
        },
        {
          "id": 3,
          "value": -1.17999661
        },
        {
          "id": 4,
          "value": 6.0
        },
        {
          "id": 5,
          "value": 0.0
        },
        {
          "id": 6,
          "value": 0.0
        },
        {
          "id": 7,
          "value": 0.0
        }
      ],
      "rightModuleId": 230,
      "data": {
        "lissajous": 0,
        "external": 0
      },
      "pos": [
        0,
        1
      ]
    }
  ],
  "cables": [
    {
      "id": 490,
      "outputModuleId": 192,
      "outputId": 0,
      "inputModuleId": 1,
      "inputId": 0,
      "color": "#0986ad"
    },
    {
      "id": 491,
      "outputModuleId": 192,
      "outputId": 1,
      "inputModuleId": 1,
      "inputId": 1,
      "color": "#c9b70e"
    },
    {
      "id": 492,
      "outputModuleId": 192,
      "outputId": 1,
      "inputModuleId": 7,
      "inputId": 1,
      "color": "#0c8e15"
    },
    {
      "id": 489,
      "outputModuleId": 192,
      "outputId": 0,
      "inputModuleId": 7,
      "inputId": 0,
      "color": "#0c8e15"
    },
    {
      "id": 493,
      "outputModuleId": 193,
      "outputId": 0,
      "inputModuleId": 192,
      "inputId": 12,
      "color": "#0986ad"
    },
    {
      "id": 494,
      "outputModuleId": 193,
      "outputId": 1,
      "inputModuleId": 192,
      "inputId": 28,
      "color": "#c9b70e"
    },
    {
      "id": 495,
      "outputModuleId": 192,
      "outputId": 8,
      "inputModuleId": 193,
      "inputId": 0,
      "color": "#0c8e15"
    },
    {
      "id": 496,
      "outputModuleId": 192,
      "outputId": 12,
      "inputModuleId": 193,
      "inputId": 1,
      "color": "#c91847"
    },
    {
      "id": 497,
      "outputModuleId": 195,
      "outputId": 0,
      "inputModuleId": 194,
      "inputId": 7,
      "color": "#c9b70e"
    },
    {
      "id": 498,
      "outputModuleId": 194,
      "outputId": 0,
      "inputModuleId": 192,
      "inputId": 13,
      "color": "#0c8e15"
    },
    {
      "id": 499,
      "outputModuleId": 194,
      "outputId": 1,
      "inputModuleId": 192,
      "inputId": 29,
      "color": "#0986ad"
    },
    {
      "id": 500,
      "outputModuleId": 192,
      "outputId": 13,
      "inputModuleId": 194,
      "inputId": 6,
      "color": "#c9b70e"
    },
    {
      "id": 501,
      "outputModuleId": 192,
      "outputId": 9,
      "inputModuleId": 194,
      "inputId": 5,
      "color": "#0c8e15"
    },
    {
      "id": 532,
      "outputModuleId": 195,
      "outputId": 1,
      "inputModuleId": 213,
      "inputId": 0,
      "color": "#c91847"
    },
    {
      "id": 534,
      "outputModuleId": 213,
      "outputId": 0,
      "inputModuleId": 212,
      "inputId": 0,
      "color": "#c9b70e"
    },
    {
      "id": 537,
      "outputModuleId": 195,
      "outputId": 2,
      "inputModuleId": 213,
      "inputId": 1,
      "color": "#0986ad"
    },
    {
      "id": 536,
      "outputModuleId": 215,
      "outputId": 0,
      "inputModuleId": 192,
      "inputId": 0,
      "color": "#c91847"
    },
    {
      "id": 540,
      "outputModuleId": 214,
      "outputId": 0,
      "inputModuleId": 215,
      "inputId": 5,
      "color": "#c91847"
    },
    {
      "id": 545,
      "outputModuleId": 217,
      "outputId": 0,
      "inputModuleId": 216,
      "inputId": 5,
      "color": "#c9b70e"
    },
    {
      "id": 546,
      "outputModuleId": 223,
      "outputId": 0,
      "inputModuleId": 224,
      "inputId": 5,
      "color": "#0c8e15"
    },
    {
      "id": 547,
      "outputModuleId": 220,
      "outputId": 0,
      "inputModuleId": 221,
      "inputId": 5,
      "color": "#c91847"
    },
    {
      "id": 548,
      "outputModuleId": 219,
      "outputId": 2,
      "inputModuleId": 221,
      "inputId": 0,
      "color": "#0986ad"
    },
    {
      "id": 552,
      "outputModuleId": 224,
      "outputId": 0,
      "inputModuleId": 192,
      "inputId": 3,
      "color": "#c9b70e"
    },
    {
      "id": 553,
      "outputModuleId": 221,
      "outputId": 0,
      "inputModuleId": 192,
      "inputId": 2,
      "color": "#0c8e15"
    },
    {
      "id": 554,
      "outputModuleId": 218,
      "outputId": 0,
      "inputModuleId": 219,
      "inputId": 0,
      "color": "#c91847"
    },
    {
      "id": 555,
      "outputModuleId": 218,
      "outputId": 1,
      "inputModuleId": 225,
      "inputId": 0,
      "color": "#0986ad"
    },
    {
      "id": 556,
      "outputModuleId": 225,
      "outputId": 2,
      "inputModuleId": 224,
      "inputId": 0,
      "color": "#c9b70e"
    },
    {
      "id": 558,
      "outputModuleId": 195,
      "outputId": 1,
      "inputModuleId": 218,
      "inputId": 1,
      "color": "#c91847"
    },
    {
      "id": 559,
      "outputModuleId": 195,
      "outputId": 2,
      "inputModuleId": 218,
      "inputId": 2,
      "color": "#0986ad"
    },
    {
      "id": 544,
      "outputModuleId": 216,
      "outputId": 0,
      "inputModuleId": 192,
      "inputId": 1,
      "color": "#0986ad"
    },
    {
      "id": 843,
      "outputModuleId": 212,
      "outputId": 2,
      "inputModuleId": 216,
      "inputId": 0,
      "color": "#0986ad"
    },
    {
      "id": 844,
      "outputModuleId": 195,
      "outputId": 1,
      "inputModuleId": 343,
      "inputId": 1,
      "color": "#c9b70e"
    },
    {
      "id": 849,
      "outputModuleId": 218,
      "outputId": 1,
      "inputModuleId": 343,
      "inputId": 2,
      "color": "#0c8e15"
    },
    {
      "id": 850,
      "outputModuleId": 218,
      "outputId": 0,
      "inputModuleId": 343,
      "inputId": 3,
      "color": "#c91847"
    },
    {
      "id": 851,
      "outputModuleId": 195,
      "outputId": 1,
      "inputModuleId": 345,
      "inputId": 1,
      "color": "#0986ad"
    },
    {
      "id": 852,
      "outputModuleId": 218,
      "outputId": 0,
      "inputModuleId": 345,
      "inputId": 2,
      "color": "#c9b70e"
    },
    {
      "id": 853,
      "outputModuleId": 218,
      "outputId": 1,
      "inputModuleId": 345,
      "inputId": 3,
      "color": "#0c8e15"
    },
    {
      "id": 846,
      "outputModuleId": 343,
      "outputId": 2,
      "inputModuleId": 232,
      "inputId": 0,
      "color": "#c91847"
    },
    {
      "id": 845,
      "outputModuleId": 345,
      "outputId": 2,
      "inputModuleId": 233,
      "inputId": 0,
      "color": "#0c8e15"
    },
    {
      "id": 861,
      "outputModuleId": 212,
      "outputId": 2,
      "inputModuleId": 215,
      "inputId": 0,
      "color": "#0986ad"
    },
    {
      "id": 866,
      "outputModuleId": 352,
      "outputId": 0,
      "inputModuleId": 192,
      "inputId": 6,
      "color": "#c9b70e"
    },
    {
      "id": 867,
      "outputModuleId": 352,
      "outputId": 1,
      "inputModuleId": 192,
      "inputId": 22,
      "color": "#0c8e15"
    },
    {
      "id": 868,
      "outputModuleId": 233,
      "outputId": 0,
      "inputModuleId": 352,
      "inputId": 2,
      "color": "#c91847"
    },
    {
      "id": 869,
      "outputModuleId": 232,
      "outputId": 0,
      "inputModuleId": 352,
      "inputId": 5,
      "color": "#0986ad"
    },
    {
      "id": 874,
      "outputModuleId": 195,
      "outputId": 1,
      "inputModuleId": 353,
      "inputId": 1,
      "color": "#c9b70e"
    },
    {
      "id": 875,
      "outputModuleId": 354,
      "outputId": 2,
      "inputModuleId": 350,
      "inputId": 0,
      "color": "#0c8e15"
    },
    {
      "id": 876,
      "outputModuleId": 353,
      "outputId": 2,
      "inputModuleId": 351,
      "inputId": 0,
      "color": "#c91847"
    },
    {
      "id": 877,
      "outputModuleId": 218,
      "outputId": 0,
      "inputModuleId": 354,
      "inputId": 2,
      "color": "#0986ad"
    },
    {
      "id": 878,
      "outputModuleId": 218,
      "outputId": 0,
      "inputModuleId": 353,
      "inputId": 2,
      "color": "#c9b70e"
    },
    {
      "id": 879,
      "outputModuleId": 218,
      "outputId": 1,
      "inputModuleId": 353,
      "inputId": 3,
      "color": "#0c8e15"
    },
    {
      "id": 880,
      "outputModuleId": 218,
      "outputId": 1,
      "inputModuleId": 354,
      "inputId": 3,
      "color": "#c91847"
    },
    {
      "id": 873,
      "outputModuleId": 195,
      "outputId": 1,
      "inputModuleId": 354,
      "inputId": 1,
      "color": "#0986ad"
    },
    {
      "id": 870,
      "outputModuleId": 351,
      "outputId": 0,
      "inputModuleId": 352,
      "inputId": 11,
      "color": "#c9b70e"
    },
    {
      "id": 881,
      "outputModuleId": 350,
      "outputId": 0,
      "inputModuleId": 352,
      "inputId": 8,
      "color": "#c9b70e"
    },
    {
      "id": 886,
      "outputModuleId": 215,
      "outputId": 0,
      "inputModuleId": 358,
      "inputId": 0,
      "color": "#0c8e15"
    },
    {
      "id": 887,
      "outputModuleId": 216,
      "outputId": 0,
      "inputModuleId": 359,
      "inputId": 0,
      "color": "#c91847"
    },
    {
      "id": 888,
      "outputModuleId": 224,
      "outputId": 0,
      "inputModuleId": 360,
      "inputId": 0,
      "color": "#0986ad"
    },
    {
      "id": 889,
      "outputModuleId": 221,
      "outputId": 0,
      "inputModuleId": 361,
      "inputId": 0,
      "color": "#c9b70e"
    },
    {
      "id": 894,
      "outputModuleId": 227,
      "outputId": 0,
      "inputModuleId": 364,
      "inputId": 0,
      "color": "#0986ad"
    },
    {
      "id": 895,
      "outputModuleId": 212,
      "outputId": 2,
      "inputModuleId": 366,
      "inputId": 0,
      "color": "#c9b70e"
    },
    {
      "id": 896,
      "outputModuleId": 212,
      "outputId": 0,
      "inputModuleId": 366,
      "inputId": 1,
      "color": "#0c8e15"
    },
    {
      "id": 898,
      "outputModuleId": 367,
      "outputId": 0,
      "inputModuleId": 217,
      "inputId": 0,
      "color": "#0986ad"
    },
    {
      "id": 897,
      "outputModuleId": 367,
      "outputId": 1,
      "inputModuleId": 214,
      "inputId": 0,
      "color": "#c91847"
    },
    {
      "id": 899,
      "outputModuleId": 366,
      "outputId": 0,
      "inputModuleId": 367,
      "inputId": 0,
      "color": "#0c8e15"
    },
    {
      "id": 900,
      "outputModuleId": 366,
      "outputId": 0,
      "inputModuleId": 367,
      "inputId": 1,
      "color": "#c91847"
    },
    {
      "id": 902,
      "outputModuleId": 230,
      "outputId": 4,
      "inputModuleId": 342,
      "inputId": 5,
      "color": "#c9b70e"
    },
    {
      "id": 905,
      "outputModuleId": 369,
      "outputId": 0,
      "inputModuleId": 192,
      "inputId": 41,
      "color": "#c91847"
    },
    {
      "id": 906,
      "outputModuleId": 369,
      "outputId": 0,
      "inputModuleId": 370,
      "inputId": 0,
      "color": "#0986ad"
    },
    {
      "id": 907,
      "outputModuleId": 369,
      "outputId": 1,
      "inputModuleId": 192,
      "inputId": 42,
      "color": "#c9b70e"
    },
    {
      "id": 908,
      "outputModuleId": 369,
      "outputId": 2,
      "inputModuleId": 192,
      "inputId": 43,
      "color": "#0c8e15"
    },
    {
      "id": 909,
      "outputModuleId": 369,
      "outputId": 3,
      "inputModuleId": 192,
      "inputId": 44,
      "color": "#c91847"
    },
    {
      "id": 911,
      "outputModuleId": 369,
      "outputId": 4,
      "inputModuleId": 352,
      "inputId": 7,
      "color": "#c9b70e"
    },
    {
      "id": 912,
      "outputModuleId": 369,
      "outputId": 5,
      "inputModuleId": 352,
      "inputId": 1,
      "color": "#0c8e15"
    },
    {
      "id": 890,
      "outputModuleId": 342,
      "outputId": 0,
      "inputModuleId": 363,
      "inputId": 0,
      "color": "#0c8e15"
    },
    {
      "id": 561,
      "outputModuleId": 195,
      "outputId": 3,
      "inputModuleId": 342,
      "inputId": 0,
      "color": "#0c8e15"
    },
    {
      "id": 560,
      "outputModuleId": 342,
      "outputId": 0,
      "inputModuleId": 192,
      "inputId": 4,
      "color": "#c9b70e"
    },
    {
      "id": 901,
      "outputModuleId": 230,
      "outputId": 1,
      "inputModuleId": 342,
      "inputId": 3,
      "color": "#0986ad"
    },
    {
      "id": 847,
      "outputModuleId": 218,
      "outputId": 1,
      "inputModuleId": 344,
      "inputId": 0,
      "color": "#0986ad"
    },
    {
      "id": 848,
      "outputModuleId": 218,
      "outputId": 0,
      "inputModuleId": 344,
      "inputId": 1,
      "color": "#c9b70e"
    },
    {
      "id": 550,
      "outputModuleId": 219,
      "outputId": 0,
      "inputModuleId": 367,
      "inputId": 2,
      "color": "#c91847"
    },
    {
      "id": 915,
      "outputModuleId": 367,
      "outputId": 2,
      "inputModuleId": 220,
      "inputId": 0,
      "color": "#0986ad"
    },
    {
      "id": 557,
      "outputModuleId": 225,
      "outputId": 0,
      "inputModuleId": 367,
      "inputId": 3,
      "color": "#0c8e15"
    },
    {
      "id": 916,
      "outputModuleId": 367,
      "outputId": 3,
      "inputModuleId": 223,
      "inputId": 0,
      "color": "#c9b70e"
    },
    {
      "id": 917,
      "outputModuleId": 195,
      "outputId": 3,
      "inputModuleId": 218,
      "inputId": 0,
      "color": "#c91847"
    },
    {
      "id": 928,
      "outputModuleId": 230,
      "outputId": 9,
      "inputModuleId": 353,
      "inputId": 0,
      "color": "#c9b70e"
    },
    {
      "id": 929,
      "outputModuleId": 230,
      "outputId": 6,
      "inputModuleId": 354,
      "inputId": 0,
      "color": "#0c8e15"
    },
    {
      "id": 930,
      "outputModuleId": 230,
      "outputId": 3,
      "inputModuleId": 343,
      "inputId": 0,
      "color": "#c91847"
    },
    {
      "id": 931,
      "outputModuleId": 230,
      "outputId": 0,
      "inputModuleId": 345,
      "inputId": 0,
      "color": "#0986ad"
    },
    {
      "id": 932,
      "outputModuleId": 230,
      "outputId": 9,
      "inputModuleId": 373,
      "inputId": 0,
      "color": "#c9b70e"
    },
    {
      "id": 933,
      "outputModuleId": 230,
      "outputId": 6,
      "inputModuleId": 373,
      "inputId": 1,
      "color": "#0c8e15"
    },
    {
      "id": 565,
      "outputModuleId": 227,
      "outputId": 0,
      "inputModuleId": 367,
      "inputId": 4,
      "color": "#0c8e15"
    },
    {
      "id": 934,
      "outputModuleId": 367,
      "outputId": 4,
      "inputModuleId": 192,
      "inputId": 5,
      "color": "#c91847"
    },
    {
      "id": 936,
      "outputModuleId": 195,
      "outputId": 2,
      "inputModuleId": 227,
      "inputId": 0,
      "color": "#c9b70e"
    },
    {
      "id": 937,
      "outputModuleId": 230,
      "outputId": 7,
      "inputModuleId": 218,
      "inputId": 5,
      "color": "#0c8e15"
    },
    {
      "id": 938,
      "outputModuleId": 230,
      "outputId": 10,
      "inputModuleId": 213,
      "inputId": 13,
      "color": "#c91847"
    }
  ]
}