{
  "version": "1.1.6",
  "modules": [
    {
      "id": 1,
      "plugin": "Core",
      "version": "1.1.6",
      "model": "AudioInterface",
      "params": [],
      "leftModuleId": 7,
      "rightModuleId": 301,
      "data": {
        "audio": {
          "driver": 8,
          "deviceName": "Headphones Realtek HD Audio (Realtek(R) Audio)",
          "offset": 0,
          "maxChannels": 8,
          "sampleRate": 44100,
          "blockSize": 4096
        }
      },
      "pos": [
        122,
        0
      ]
    },
    {
      "id": 7,
      "plugin": "Fundamental",
      "version": "1.4.0",
      "model": "Scope",
      "params": [
        {
          "id": 0,
          "value": 2.0
        },
        {
          "id": 1,
          "value": -1.25999999
        },
        {
          "id": 2,
          "value": 2.0
        },
        {
          "id": 3,
          "value": 1.22999978
        },
        {
          "id": 4,
          "value": 14.0
        },
        {
          "id": 5,
          "value": 0.0
        },
        {
          "id": 6,
          "value": 0.200000674
        },
        {
          "id": 7,
          "value": 0.0
        }
      ],
      "leftModuleId": 163,
      "rightModuleId": 1,
      "data": {
        "lissajous": 0,
        "external": 0
      },
      "pos": [
        109,
        0
      ]
    },
    {
      "id": 145,
      "plugin": "mscHack",
      "version": "1.0.2",
      "model": "Mix_16_4_4",
      "params": [
        {
          "id": 0,
          "value": 0.445500046
        },
        {
          "id": 1,
          "value": 0.0569999963
        },
        {
          "id": 2,
          "value": 0.462000549
        },
        {
          "id": 3,
          "value": 0.528999209
        },
        {
          "id": 4,
          "value": 0.00899999961
        },
        {
          "id": 5,
          "value": 0.0
        },
        {
          "id": 6,
          "value": 0.0
        },
        {
          "id": 7,
          "value": 0.0
        },
        {
          "id": 8,
          "value": 0.486000001
        },
        {
          "id": 9,
          "value": 0.0809998512
        },
        {
          "id": 10,
          "value": 0.380999863
        },
        {
          "id": 11,
          "value": 0.380999863
        },
        {
          "id": 12,
          "value": 0.392999858
        },
        {
          "id": 13,
          "value": 0.455999911
        },
        {
          "id": 14,
          "value": 0.471000046
        },
        {
          "id": 15,
          "value": 0.344999999
        },
        {
          "id": 16,
          "value": 0.167999491
        },
        {
          "id": 17,
          "value": 0.0
        },
        {
          "id": 18,
          "value": 0.0
        },
        {
          "id": 19,
          "value": 0.0
        },
        {
          "id": 20,
          "value": 0.554999948
        },
        {
          "id": 21,
          "value": 0.744999945
        },
        {
          "id": 22,
          "value": 0.694000125
        },
        {
          "id": 23,
          "value": 0.0
        },
        {
          "id": 24,
          "value": 0.0
        },
        {
          "id": 25,
          "value": 0.0
        },
        {
          "id": 26,
          "value": 0.0
        },
        {
          "id": 27,
          "value": 0.0
        },
        {
          "id": 28,
          "value": 0.0
        },
        {
          "id": 29,
          "value": 0.0
        },
        {
          "id": 30,
          "value": 0.0
        },
        {
          "id": 31,
          "value": 0.0
        },
        {
          "id": 32,
          "value": 0.0
        },
        {
          "id": 33,
          "value": 0.0
        },
        {
          "id": 34,
          "value": 0.0
        },
        {
          "id": 35,
          "value": 0.0
        },
        {
          "id": 36,
          "value": 0.0
        },
        {
          "id": 37,
          "value": 0.0
        },
        {
          "id": 38,
          "value": 0.0
        },
        {
          "id": 39,
          "value": 0.0
        },
        {
          "id": 40,
          "value": 0.0
        },
        {
          "id": 41,
          "value": 0.0
        },
        {
          "id": 42,
          "value": 0.0
        },
        {
          "id": 43,
          "value": 0.0
        },
        {
          "id": 44,
          "value": 0.0
        },
        {
          "id": 45,
          "value": 0.0
        },
        {
          "id": 46,
          "value": 0.0
        },
        {
          "id": 47,
          "value": 0.0
        },
        {
          "id": 48,
          "value": 0.0
        },
        {
          "id": 49,
          "value": 0.497500002
        },
        {
          "id": 50,
          "value": 0.5
        },
        {
          "id": 51,
          "value": 0.5
        },
        {
          "id": 52,
          "value": 0.5
        },
        {
          "id": 53,
          "value": 0.5
        },
        {
          "id": 54,
          "value": 0.5
        },
        {
          "id": 55,
          "value": 0.5
        },
        {
          "id": 56,
          "value": 0.5
        },
        {
          "id": 57,
          "value": 0.5
        },
        {
          "id": 58,
          "value": 0.5
        },
        {
          "id": 59,
          "value": 0.5
        },
        {
          "id": 60,
          "value": 0.5
        },
        {
          "id": 61,
          "value": 0.5
        },
        {
          "id": 62,
          "value": 0.5
        },
        {
          "id": 63,
          "value": 0.5
        },
        {
          "id": 64,
          "value": 0.5
        },
        {
          "id": 65,
          "value": 0.5
        },
        {
          "id": 66,
          "value": 0.5
        },
        {
          "id": 67,
          "value": 0.5
        },
        {
          "id": 68,
          "value": 0.5
        },
        {
          "id": 69,
          "value": 0.5
        },
        {
          "id": 70,
          "value": 0.5
        },
        {
          "id": 71,
          "value": 0.5
        },
        {
          "id": 72,
          "value": 0.5
        },
        {
          "id": 73,
          "value": 0.493499994
        },
        {
          "id": 74,
          "value": 0.5
        },
        {
          "id": 75,
          "value": 0.5
        },
        {
          "id": 76,
          "value": 0.5
        },
        {
          "id": 77,
          "value": 0.5
        },
        {
          "id": 78,
          "value": 0.5
        },
        {
          "id": 79,
          "value": 0.5
        },
        {
          "id": 80,
          "value": 0.5
        },
        {
          "id": 81,
          "value": 0.5
        },
        {
          "id": 82,
          "value": 0.5
        },
        {
          "id": 83,
          "value": 0.5
        },
        {
          "id": 84,
          "value": 0.5
        },
        {
          "id": 85,
          "value": 0.5
        },
        {
          "id": 86,
          "value": 0.5
        },
        {
          "id": 87,
          "value": 0.5
        },
        {
          "id": 88,
          "value": 0.5
        },
        {
          "id": 89,
          "value": 0.5
        },
        {
          "id": 90,
          "value": 0.5
        },
        {
          "id": 91,
          "value": 0.5
        },
        {
          "id": 92,
          "value": 0.5
        },
        {
          "id": 93,
          "value": 0.5
        },
        {
          "id": 94,
          "value": 0.5
        },
        {
          "id": 95,
          "value": 0.5
        },
        {
          "id": 96,
          "value": 0.5
        },
        {
          "id": 97,
          "value": 0.497500002
        },
        {
          "id": 98,
          "value": 0.5
        },
        {
          "id": 99,
          "value": 0.5
        },
        {
          "id": 100,
          "value": 0.5
        },
        {
          "id": 101,
          "value": 0.5
        },
        {
          "id": 102,
          "value": 0.5
        },
        {
          "id": 103,
          "value": 0.5
        },
        {
          "id": 104,
          "value": 0.5
        },
        {
          "id": 105,
          "value": 0.5
        },
        {
          "id": 106,
          "value": 0.5
        },
        {
          "id": 107,
          "value": 0.5
        },
        {
          "id": 108,
          "value": 0.5
        },
        {
          "id": 109,
          "value": 0.5
        },
        {
          "id": 110,
          "value": 0.5
        },
        {
          "id": 111,
          "value": 0.5
        },
        {
          "id": 112,
          "value": 0.5
        },
        {
          "id": 113,
          "value": 0.5
        },
        {
          "id": 114,
          "value": 0.5
        },
        {
          "id": 115,
          "value": 0.5
        },
        {
          "id": 116,
          "value": 0.5
        },
        {
          "id": 117,
          "value": 0.5
        },
        {
          "id": 118,
          "value": 0.5
        },
        {
          "id": 119,
          "value": 0.5
        },
        {
          "id": 120,
          "value": 0.5
        },
        {
          "id": 121,
          "value": 0.425500095
        },
        {
          "id": 122,
          "value": 0.470499963
        },
        {
          "id": 123,
          "value": 0.0
        },
        {
          "id": 124,
          "value": 0.0
        },
        {
          "id": 125,
          "value": 0.195000038
        },
        {
          "id": 126,
          "value": 0.181499645
        },
        {
          "id": 127,
          "value": 0.0
        },
        {
          "id": 128,
          "value": 0.0
        },
        {
          "id": 129,
          "value": 0.217499673
        },
        {
          "id": 130,
          "value": 0.464999914
        },
        {
          "id": 131,
          "value": 0.0
        },
        {
          "id": 132,
          "value": 0.0
        },
        {
          "id": 133,
          "value": 0.0
        },
        {
          "id": 134,
          "value": 0.0
        },
        {
          "id": 135,
          "value": 0.0
        },
        {
          "id": 136,
          "value": 0.0
        },
        {
          "id": 137,
          "value": 0.187500179
        },
        {
          "id": 138,
          "value": 0.187500015
        },
        {
          "id": 139,
          "value": 0.0
        },
        {
          "id": 140,
          "value": 0.0
        },
        {
          "id": 141,
          "value": 0.0
        },
        {
          "id": 142,
          "value": 0.0
        },
        {
          "id": 143,
          "value": 0.0
        },
        {
          "id": 144,
          "value": 0.0
        },
        {
          "id": 145,
          "value": 0.0
        },
        {
          "id": 146,
          "value": 0.0
        },
        {
          "id": 147,
          "value": 0.0
        },
        {
          "id": 148,
          "value": 0.0
        },
        {
          "id": 149,
          "value": 0.0
        },
        {
          "id": 150,
          "value": 0.0
        },
        {
          "id": 151,
          "value": 0.0
        },
        {
          "id": 152,
          "value": 0.0
        },
        {
          "id": 153,
          "value": 0.0
        },
        {
          "id": 154,
          "value": 0.137999967
        },
        {
          "id": 155,
          "value": 0.0
        },
        {
          "id": 156,
          "value": 0.0
        },
        {
          "id": 157,
          "value": 0.0
        },
        {
          "id": 158,
          "value": 0.16050002
        },
        {
          "id": 159,
          "value": 0.0
        },
        {
          "id": 160,
          "value": 0.0
        },
        {
          "id": 161,
          "value": 0.0
        },
        {
          "id": 162,
          "value": 0.14850001
        },
        {
          "id": 163,
          "value": 0.0
        },
        {
          "id": 164,
          "value": 0.0
        },
        {
          "id": 165,
          "value": 0.0
        },
        {
          "id": 166,
          "value": 0.0
        },
        {
          "id": 167,
          "value": 0.0
        },
        {
          "id": 168,
          "value": 0.0
        },
        {
          "id": 169,
          "value": 0.0
        },
        {
          "id": 170,
          "value": 0.0
        },
        {
          "id": 171,
          "value": 0.0
        },
        {
          "id": 172,
          "value": 0.0
        },
        {
          "id": 173,
          "value": 0.0
        },
        {
          "id": 174,
          "value": 0.0
        },
        {
          "id": 175,
          "value": 0.0
        },
        {
          "id": 176,
          "value": 0.0
        },
        {
          "id": 177,
          "value": 0.0
        },
        {
          "id": 178,
          "value": 0.0
        },
        {
          "id": 179,
          "value": 0.0
        },
        {
          "id": 180,
          "value": 0.0
        },
        {
          "id": 181,
          "value": 0.184500054
        },
        {
          "id": 182,
          "value": 0.171000049
        },
        {
          "id": 183,
          "value": 0.0
        },
        {
          "id": 184,
          "value": 0.0
        },
        {
          "id": 185,
          "value": 0.0
        },
        {
          "id": 186,
          "value": 0.0
        },
        {
          "id": 187,
          "value": 0.0
        },
        {
          "id": 188,
          "value": 0.0
        },
        {
          "id": 189,
          "value": 0.0
        },
        {
          "id": 190,
          "value": 0.0
        },
        {
          "id": 191,
          "value": 0.0
        },
        {
          "id": 192,
          "value": 0.0
        },
        {
          "id": 193,
          "value": 0.0
        },
        {
          "id": 194,
          "value": 0.0
        },
        {
          "id": 195,
          "value": 0.0
        },
        {
          "id": 196,
          "value": 0.0
        },
        {
          "id": 197,
          "value": 0.0
        },
        {
          "id": 198,
          "value": 0.0
        },
        {
          "id": 199,
          "value": 0.0
        },
        {
          "id": 200,
          "value": 0.0
        },
        {
          "id": 201,
          "value": 1.0
        },
        {
          "id": 202,
          "value": 1.0
        },
        {
          "id": 203,
          "value": 0.0
        },
        {
          "id": 204,
          "value": 0.0
        }
      ],
      "leftModuleId": 146,
      "rightModuleId": 164,
      "data": {
        "m_bMuteStates": [
          false,
          false,
          false,
          false,
          false,
          false,
          false,
          false,
          false,
          false,
          false,
          false,
          false,
          false,
          false,
          false,
          false,
          false,
          false,
          false,
          false,
          false,
          false,
          false
        ],
        "m_bSoloStates": [
          false,
          false,
          false,
          false,
          false,
          false,
          false,
          false,
          false,
          false,
          false,
          false,
          false,
          false,
          false,
          false,
          false,
          false,
          false,
          false,
          false,
          false,
          false,
          false
        ],
        "m_iRouteGroup": [
          4,
          4,
          4,
          4,
          4,
          4,
          4,
          4,
          3,
          3,
          3,
          3,
          3,
          3,
          3,
          3
        ],
        "m_bGroupPreMute": [
          true
        ],
        "m_bGainLevelx2": [
          false
        ],
        "m_bPreFader": [
          false,
          false,
          false,
          false,
          false,
          false,
          false,
          false,
          false,
          false,
          false,
          false,
          false,
          false,
          false,
          false,
          false,
          false,
          false,
          false
        ],
        "m_bAuxIgnoreSolo": [
          false
        ]
      },
      "pos": [
        40,
        0
      ]
    },
    {
      "id": 146,
      "plugin": "ImpromptuModular",
      "version": "1.1.3",
      "model": "Clocked",
      "params": [
        {
          "id": 0,
          "value": 48.0
        },
        {
          "id": 1,
          "value": 5.0
        },
        {
          "id": 2,
          "value": 2.0
        },
        {
          "id": 3,
          "value": -5.0
        },
        {
          "id": 4,
          "value": 0.0
        },
        {
          "id": 5,
          "value": 0.0
        },
        {
          "id": 6,
          "value": 0.0
        },
        {
          "id": 7,
          "value": 0.0
        },
        {
          "id": 8,
          "value": 0.5
        },
        {
          "id": 9,
          "value": 0.5
        },
        {
          "id": 10,
          "value": 0.5
        },
        {
          "id": 11,
          "value": 0.5
        },
        {
          "id": 12,
          "value": 0.0
        },
        {
          "id": 13,
          "value": 0.0
        },
        {
          "id": 14,
          "value": 0.0
        },
        {
          "id": 15,
          "value": 0.0
        },
        {
          "id": 16,
          "value": 0.0
        },
        {
          "id": 17,
          "value": 0.0
        },
        {
          "id": 18,
          "value": 0.0
        },
        {
          "id": 19,
          "value": 0.0
        }
      ],
      "leftModuleId": 147,
      "rightModuleId": 145,
      "data": {
        "panelTheme": 1,
        "running": true,
        "displayDelayNoteMode": true,
        "bpmDetectionMode": false,
        "restartOnStopStartRun": 0,
        "sendResetOnRestart": false,
        "ppqn": 4,
        "resetClockOutputsHigh": true,
        "momentaryRunInput": true
      },
      "pos": [
        20,
        0
      ]
    },
    {
      "id": 147,
      "plugin": "RJModules",
      "version": "1.5.0",
      "model": "Button",
      "params": [
        {
          "id": 0,
          "value": 0.0
        }
      ],
      "rightModuleId": 146,
      "pos": [
        10,
        0
      ]
    },
    {
      "id": 163,
      "plugin": "AlrightDevices",
      "version": "1.0.2",
      "model": "Chronoblob2",
      "params": [
        {
          "id": 0,
          "value": 0.490499318
        },
        {
          "id": 1,
          "value": 0.500000179
        },
        {
          "id": 2,
          "value": 0.493000031
        },
        {
          "id": 3,
          "value": 0.0
        },
        {
          "id": 4,
          "value": 0.0
        },
        {
          "id": 5,
          "value": 0.0
        },
        {
          "id": 6,
          "value": 0.0
        },
        {
          "id": 7,
          "value": 0.0
        },
        {
          "id": 8,
          "value": 0.0
        },
        {
          "id": 9,
          "value": 0.0
        }
      ],
      "leftModuleId": 164,
      "rightModuleId": 7,
      "data": {
        "delay_mode": 0,
        "hold_behavior": 0,
        "sync_prescaler": 6
      },
      "pos": [
        97,
        0
      ]
    },
    {
      "id": 164,
      "plugin": "Valley",
      "version": "1.0.1",
      "model": "Plateau",
      "params": [
        {
          "id": 0,
          "value": 0.0
        },
        {
          "id": 1,
          "value": 1.0
        },
        {
          "id": 2,
          "value": 0.0712501407
        },
        {
          "id": 3,
          "value": 10.0
        },
        {
          "id": 4,
          "value": 8.57499504
        },
        {
          "id": 5,
          "value": 0.517500162
        },
        {
          "id": 6,
          "value": 5.23500061
        },
        {
          "id": 7,
          "value": 0.534201682
        },
        {
          "id": 8,
          "value": 7.20000124
        },
        {
          "id": 9,
          "value": 7.17999935
        },
        {
          "id": 10,
          "value": 0.0
        },
        {
          "id": 11,
          "value": 0.485499799
        },
        {
          "id": 12,
          "value": 6.59600449
        },
        {
          "id": 13,
          "value": 0.0
        },
        {
          "id": 14,
          "value": 0.0
        },
        {
          "id": 15,
          "value": 0.0
        },
        {
          "id": 16,
          "value": 0.0
        },
        {
          "id": 17,
          "value": 0.0
        },
        {
          "id": 18,
          "value": 0.0
        },
        {
          "id": 19,
          "value": 0.0
        },
        {
          "id": 20,
          "value": 0.0
        },
        {
          "id": 21,
          "value": 0.0150001133
        },
        {
          "id": 22,
          "value": -0.0239999462
        },
        {
          "id": 23,
          "value": 0.0
        },
        {
          "id": 24,
          "value": 0.0
        },
        {
          "id": 25,
          "value": 0.0
        },
        {
          "id": 26,
          "value": 0.0
        },
        {
          "id": 27,
          "value": 0.0
        },
        {
          "id": 28,
          "value": 0.0
        },
        {
          "id": 29,
          "value": 0.0
        },
        {
          "id": 30,
          "value": 1.0
        }
      ],
      "leftModuleId": 145,
      "rightModuleId": 163,
      "data": {
        "frozen": false,
        "freezeToggle": false,
        "panelStyle": 0,
        "tuned": 0,
        "diffuseInput": 1,
        "preDelayCVSens": 0,
        "inputSensitivity": 0,
        "outputSaturation": 0
      },
      "pos": [
        85,
        0
      ]
    },
    {
      "id": 238,
      "plugin": "VultModulesFree",
      "version": "1.6.0",
      "model": "Trummor2",
      "params": [
        {
          "id": 0,
          "value": 0.0385826901
        },
        {
          "id": 1,
          "value": 0.0753620341
        },
        {
          "id": 2,
          "value": 0.0
        },
        {
          "id": 3,
          "value": 0.0
        },
        {
          "id": 4,
          "value": 0.163500026
        },
        {
          "id": 5,
          "value": 0.552000344
        },
        {
          "id": 6,
          "value": 0.0
        },
        {
          "id": 7,
          "value": 0.200000003
        },
        {
          "id": 8,
          "value": 0.400000006
        },
        {
          "id": 9,
          "value": 0.0
        },
        {
          "id": 10,
          "value": 0.0
        },
        {
          "id": 11,
          "value": 0.862000167
        },
        {
          "id": 12,
          "value": 0.100000001
        },
        {
          "id": 13,
          "value": 0.0
        },
        {
          "id": 14,
          "value": 0.0
        },
        {
          "id": 15,
          "value": 0.949999988
        },
        {
          "id": 16,
          "value": 0.0
        },
        {
          "id": 17,
          "value": 0.0
        },
        {
          "id": 18,
          "value": 0.124500193
        },
        {
          "id": 19,
          "value": 0.164000034
        },
        {
          "id": 20,
          "value": 0.186500102
        },
        {
          "id": 21,
          "value": 0.0
        },
        {
          "id": 22,
          "value": 0.0
        },
        {
          "id": 23,
          "value": 0.105000287
        },
        {
          "id": 24,
          "value": 0.0
        },
        {
          "id": 25,
          "value": 0.0
        },
        {
          "id": 26,
          "value": 0.270999849
        },
        {
          "id": 27,
          "value": 0.0
        },
        {
          "id": 28,
          "value": 0.0
        },
        {
          "id": 29,
          "value": 0.0
        },
        {
          "id": 30,
          "value": 0.0
        },
        {
          "id": 31,
          "value": 0.0
        },
        {
          "id": 32,
          "value": 0.0
        }
      ],
      "rightModuleId": 286,
      "data": {
        "mod_a": 0,
        "mod_b": 20,
        "mod_c": 0,
        "mod_d": 0,
        "mk2": true
      },
      "pos": [
        0,
        2
      ]
    },
    {
      "id": 241,
      "plugin": "StellareModular",
      "version": "1.0.0",
      "model": "TuringMachine",
      "params": [
        {
          "id": 0,
          "value": 0.0
        },
        {
          "id": 1,
          "value": 0.0
        },
        {
          "id": 2,
          "value": 1.0
        },
        {
          "id": 3,
          "value": 1.0
        },
        {
          "id": 4,
          "value": 1.0
        },
        {
          "id": 5,
          "value": -0.055118084
        },
        {
          "id": 6,
          "value": 7.0
        },
        {
          "id": 7,
          "value": 0.480000705
        },
        {
          "id": 8,
          "value": 0.0
        },
        {
          "id": 9,
          "value": 0.0
        },
        {
          "id": 10,
          "value": 0.0
        },
        {
          "id": 11,
          "value": 0.0
        },
        {
          "id": 12,
          "value": 0.0
        }
      ],
      "leftModuleId": 246,
      "rightModuleId": 242,
      "data": {
        "pulses_mode": 0
      },
      "pos": [
        13,
        1
      ]
    },
    {
      "id": 242,
      "plugin": "ML_modules",
      "version": "1.0.5",
      "model": "Quantum",
      "params": [
        {
          "id": 0,
          "value": 0.0
        },
        {
          "id": 1,
          "value": 0.0
        },
        {
          "id": 2,
          "value": 0.0
        },
        {
          "id": 3,
          "value": 0.0
        },
        {
          "id": 4,
          "value": 0.0
        },
        {
          "id": 5,
          "value": 0.0
        },
        {
          "id": 6,
          "value": 0.0
        },
        {
          "id": 7,
          "value": 0.0
        },
        {
          "id": 8,
          "value": 0.0
        },
        {
          "id": 9,
          "value": 0.0
        },
        {
          "id": 10,
          "value": 0.0
        },
        {
          "id": 11,
          "value": 0.0
        }
      ],
      "leftModuleId": 241,
      "rightModuleId": 245,
      "data": {
        "scale": [
          0,
          0,
          1,
          0,
          1,
          1,
          0,
          1,
          0,
          0,
          1,
          0
        ],
        "mode": 1,
        "transpose_select": 1,
        "toggle_mode": 1
      },
      "pos": [
        31,
        1
      ]
    },
    {
      "id": 243,
      "plugin": "ML_modules",
      "version": "1.0.5",
      "model": "Quantum",
      "params": [
        {
          "id": 0,
          "value": 0.0
        },
        {
          "id": 1,
          "value": 0.0
        },
        {
          "id": 2,
          "value": 0.0
        },
        {
          "id": 3,
          "value": 0.0
        },
        {
          "id": 4,
          "value": 0.0
        },
        {
          "id": 5,
          "value": 0.0
        },
        {
          "id": 6,
          "value": 0.0
        },
        {
          "id": 7,
          "value": 0.0
        },
        {
          "id": 8,
          "value": 0.0
        },
        {
          "id": 9,
          "value": 0.0
        },
        {
          "id": 10,
          "value": 0.0
        },
        {
          "id": 11,
          "value": 0.0
        }
      ],
      "leftModuleId": 249,
      "rightModuleId": 244,
      "data": {
        "scale": [
          0,
          0,
          1,
          0,
          1,
          1,
          0,
          1,
          0,
          0,
          1,
          0
        ],
        "mode": 1,
        "transpose_select": 1,
        "toggle_mode": 0
      },
      "pos": [
        55,
        1
      ]
    },
    {
      "id": 244,
      "plugin": "VultModulesFree",
      "version": "1.6.0",
      "model": "Basal",
      "params": [
        {
          "id": 0,
          "value": 0.0
        },
        {
          "id": 1,
          "value": -0.653543293
        },
        {
          "id": 2,
          "value": 0.151500002
        },
        {
          "id": 3,
          "value": 0.0
        },
        {
          "id": 4,
          "value": 0.0
        },
        {
          "id": 5,
          "value": 0.0
        }
      ],
      "leftModuleId": 243,
      "rightModuleId": 248,
      "pos": [
        63,
        1
      ]
    },
    {
      "id": 245,
      "plugin": "VultModulesFree",
      "version": "1.6.0",
      "model": "Basal",
      "params": [
        {
          "id": 0,
          "value": 0.0
        },
        {
          "id": 1,
          "value": -0.590551198
        },
        {
          "id": 2,
          "value": 0.191999897
        },
        {
          "id": 3,
          "value": 0.0
        },
        {
          "id": 4,
          "value": 0.128999934
        },
        {
          "id": 5,
          "value": 0.0
        }
      ],
      "leftModuleId": 242,
      "rightModuleId": 249,
      "pos": [
        39,
        1
      ]
    },
    {
      "id": 246,
      "plugin": "Fundamental",
      "version": "1.4.0",
      "model": "Scope",
      "params": [
        {
          "id": 0,
          "value": 0.0
        },
        {
          "id": 1,
          "value": -4.0800004
        },
        {
          "id": 2,
          "value": 0.0
        },
        {
          "id": 3,
          "value": -1.5899992
        },
        {
          "id": 4,
          "value": 6.0
        },
        {
          "id": 5,
          "value": 0.0
        },
        {
          "id": 6,
          "value": 0.0
        },
        {
          "id": 7,
          "value": 0.0
        }
      ],
      "rightModuleId": 241,
      "data": {
        "lissajous": 0,
        "external": 0
      },
      "pos": [
        0,
        1
      ]
    },
    {
      "id": 248,
      "plugin": "VultModulesFree",
      "version": "1.6.0",
      "model": "Spank",
      "params": [
        {
          "id": 0,
          "value": 0.0
        },
        {
          "id": 1,
          "value": 0.148499995
        },
        {
          "id": 2,
          "value": 0.26300016
        },
        {
          "id": 3,
          "value": 0.0
        },
        {
          "id": 4,
          "value": 0.0
        },
        {
          "id": 5,
          "value": 0.0
        },
        {
          "id": 6,
          "value": 0.0
        }
      ],
      "leftModuleId": 244,
      "rightModuleId": 309,
      "pos": [
        69,
        1
      ]
    },
    {
      "id": 249,
      "plugin": "VultModulesFree",
      "version": "1.6.0",
      "model": "Spank",
      "params": [
        {
          "id": 0,
          "value": 0.0
        },
        {
          "id": 1,
          "value": 0.196500018
        },
        {
          "id": 2,
          "value": 0.13249962
        },
        {
          "id": 3,
          "value": 0.0
        },
        {
          "id": 4,
          "value": 0.0
        },
        {
          "id": 5,
          "value": 0.0
        },
        {
          "id": 6,
          "value": 0.0
        }
      ],
      "leftModuleId": 245,
      "rightModuleId": 243,
      "pos": [
        45,
        1
      ]
    },
    {
      "id": 256,
      "plugin": "Autodafe-DrumKit",
      "version": "1.0.0",
      "model": "DrumsHiHatOpen",
      "params": [
        {
          "id": 0,
          "value": 0.0
        }
      ],
      "leftModuleId": 257,
      "rightModuleId": 260,
      "data": {
        "sampletype": 6
      },
      "pos": [
        106,
        2
      ]
    },
    {
      "id": 257,
      "plugin": "Autodafe-DrumKit",
      "version": "1.0.0",
      "model": "DrumsHiHatClosed",
      "params": [
        {
          "id": 0,
          "value": 0.0
        }
      ],
      "leftModuleId": 265,
      "rightModuleId": 256,
      "data": {
        "sampletype": 5
      },
      "pos": [
        102,
        2
      ]
    },
    {
      "id": 258,
      "plugin": "DrumKit",
      "version": "1.1.2",
      "model": "Tomi",
      "params": [
        {
          "id": 0,
          "value": 4.0
        },
        {
          "id": 1,
          "value": 5.0
        },
        {
          "id": 2,
          "value": 0.0
        },
        {
          "id": 3,
          "value": 0.0
        },
        {
          "id": 4,
          "value": 0.0
        },
        {
          "id": 5,
          "value": 0.0
        },
        {
          "id": 6,
          "value": 0.0
        },
        {
          "id": 7,
          "value": 0.0
        },
        {
          "id": 8,
          "value": 0.0
        },
        {
          "id": 9,
          "value": 0.0
        },
        {
          "id": 10,
          "value": 0.0
        },
        {
          "id": 11,
          "value": 0.0
        },
        {
          "id": 12,
          "value": 0.0
        },
        {
          "id": 13,
          "value": 0.0
        },
        {
          "id": 14,
          "value": 0.0
        },
        {
          "id": 15,
          "value": 0.0
        },
        {
          "id": 16,
          "value": 1.06799984
        },
        {
          "id": 17,
          "value": 1.0
        },
        {
          "id": 18,
          "value": 0.0
        },
        {
          "id": 19,
          "value": 0.0
        },
        {
          "id": 20,
          "value": 0.0
        },
        {
          "id": 21,
          "value": 0.0
        },
        {
          "id": 22,
          "value": 0.0
        },
        {
          "id": 23,
          "value": 0.0
        },
        {
          "id": 24,
          "value": 0.0
        },
        {
          "id": 25,
          "value": 0.0
        },
        {
          "id": 26,
          "value": 0.0
        },
        {
          "id": 27,
          "value": 0.0
        },
        {
          "id": 28,
          "value": 0.0
        },
        {
          "id": 29,
          "value": 0.0
        },
        {
          "id": 30,
          "value": 0.0
        },
        {
          "id": 31,
          "value": 0.0
        }
      ],
      "leftModuleId": 260,
      "rightModuleId": 272,
      "pos": [
        116,
        2
      ]
    },
    {
      "id": 260,
      "plugin": "DrumKit",
      "version": "1.1.2",
      "model": "SnareDrumN",
      "params": [
        {
          "id": 0,
          "value": 4.0
        },
        {
          "id": 1,
          "value": 7.0
        },
        {
          "id": 2,
          "value": 0.0
        },
        {
          "id": 3,
          "value": 0.0
        },
        {
          "id": 4,
          "value": 0.0
        },
        {
          "id": 5,
          "value": 0.0
        },
        {
          "id": 6,
          "value": 0.0
        },
        {
          "id": 7,
          "value": 0.0
        },
        {
          "id": 8,
          "value": 0.0
        },
        {
          "id": 9,
          "value": 0.0
        },
        {
          "id": 10,
          "value": 0.0
        },
        {
          "id": 11,
          "value": 0.0
        },
        {
          "id": 12,
          "value": 0.0
        },
        {
          "id": 13,
          "value": 0.0
        },
        {
          "id": 14,
          "value": 0.0
        },
        {
          "id": 15,
          "value": 0.0
        },
        {
          "id": 16,
          "value": 1.0
        },
        {
          "id": 17,
          "value": 1.0
        },
        {
          "id": 18,
          "value": 0.0
        },
        {
          "id": 19,
          "value": 0.0
        },
        {
          "id": 20,
          "value": 0.0
        },
        {
          "id": 21,
          "value": 0.0
        },
        {
          "id": 22,
          "value": 0.0
        },
        {
          "id": 23,
          "value": 0.0
        },
        {
          "id": 24,
          "value": 0.0
        },
        {
          "id": 25,
          "value": 0.0
        },
        {
          "id": 26,
          "value": 0.0
        },
        {
          "id": 27,
          "value": 0.0
        },
        {
          "id": 28,
          "value": 0.0
        },
        {
          "id": 29,
          "value": 0.0
        },
        {
          "id": 30,
          "value": 0.0
        },
        {
          "id": 31,
          "value": 0.0
        }
      ],
      "leftModuleId": 256,
      "rightModuleId": 258,
      "pos": [
        110,
        2
      ]
    },
    {
      "id": 265,
      "plugin": "Fundamental",
      "version": "1.4.0",
      "model": "Split",
      "params": [],
      "leftModuleId": 280,
      "rightModuleId": 257,
      "pos": [
        97,
        2
      ]
    },
    {
      "id": 272,
      "plugin": "Autodafe-DrumKit",
      "version": "1.0.0",
      "model": "DrumsRimClaves",
      "params": [
        {
          "id": 0,
          "value": 0.0
        }
      ],
      "leftModuleId": 258,
      "rightModuleId": 273,
      "data": {
        "sampletype": 6
      },
      "pos": [
        122,
        2
      ]
    },
    {
      "id": 273,
      "plugin": "Autodafe-DrumKit",
      "version": "1.0.0",
      "model": "DrumsRide",
      "params": [
        {
          "id": 0,
          "value": 0.0
        }
      ],
      "leftModuleId": 272,
      "data": {
        "sampletype": 8
      },
      "pos": [
        126,
        2
      ]
    },
    {
      "id": 276,
      "plugin": "FrozenWasteland",
      "version": "1.10.0",
      "model": "BPMLFO",
      "params": [
        {
          "id": 0,
          "value": 1.0
        },
        {
          "id": 1,
          "value": 0.0
        },
        {
          "id": 2,
          "value": 4.0
        },
        {
          "id": 3,
          "value": 0.0
        },
        {
          "id": 4,
          "value": 0.0
        },
        {
          "id": 5,
          "value": 0.0
        },
        {
          "id": 6,
          "value": 0.0
        },
        {
          "id": 7,
          "value": 1.0
        },
        {
          "id": 8,
          "value": 1.0
        },
        {
          "id": 9,
          "value": 1.0
        }
      ],
      "leftModuleId": 297,
      "rightModuleId": 280,
      "pos": [
        41,
        2
      ]
    },
    {
      "id": 280,
      "plugin": "JW-Modules",
      "version": "1.0.9",
      "model": "NoteSeq",
      "params": [
        {
          "id": 0,
          "value": 0.0
        },
        {
          "id": 1,
          "value": 16.0
        },
        {
          "id": 2,
          "value": 0.0
        },
        {
          "id": 3,
          "value": 0.0
        },
        {
          "id": 4,
          "value": 0.0
        },
        {
          "id": 5,
          "value": 0.0
        },
        {
          "id": 6,
          "value": 0.0
        },
        {
          "id": 7,
          "value": 0.0449999571
        },
        {
          "id": 8,
          "value": 0.0
        },
        {
          "id": 9,
          "value": 0.0
        },
        {
          "id": 10,
          "value": 0.0
        },
        {
          "id": 11,
          "value": 0.0
        },
        {
          "id": 12,
          "value": 0.0
        },
        {
          "id": 13,
          "value": 0.0
        },
        {
          "id": 14,
          "value": 0.0
        },
        {
          "id": 15,
          "value": 11.0
        },
        {
          "id": 16,
          "value": 11.0
        },
        {
          "id": 17,
          "value": 0.0
        },
        {
          "id": 18,
          "value": 0.0
        },
        {
          "id": 19,
          "value": 0.0
        },
        {
          "id": 20,
          "value": 32.0
        },
        {
          "id": 21,
          "value": 1.0
        },
        {
          "id": 22,
          "value": 1.0
        }
      ],
      "leftModuleId": 276,
      "rightModuleId": 265,
      "data": {
        "channels": 8,
        "cells": [
          0,
          1,
          1,
          0,
          0,
          0,
          0,
          0,
          0,
          0,
          0,
          0,
          1,
          0,
          0,
          0,
          0,
          0,
          0,
          0,
          0,
          0,
          0,
          1,
          1,
          1,
          0,
          0,
          0,
          0,
          0,
          0,
          0,
          0,
          0,
          0,
          0,
          0,
          0,
          0,
          0,
          0,
          0,
          0,
          0,
          0,
          0,
          1,
          0,
          1,
          0,
          0,
          0,
          1,
          1,
          1,
          0,
          1,
          0,
          0,
          0,
          0,
          0,
          0,
          0,
          1,
          0,
          0,
          1,
          0,
          0,
          0,
          0,
          1,
          0,
          0,
          0,
          0,
          0,
          0,
          1,
          0,
          0,
          0,
          0,
          0,
          0,
          0,
          0,
          0,
          1,
          0,
          0,
          0,
          0,
          0,
          0,
          0,
          0,
          0,
          0,
          0,
          0,
          0,
          0,
          0,
          1,
          0,
          0,
          0,
          0,
          0,
          0,
          0,
          0,
          1,
          0,
          0,
          0,
          1,
          0,
          0,
          0,
          0,
          0,
          0,
          0,
          0,
          0,
          0,
          0,
          0,
          0,
          0,
          1,
          0,
          0,
          1,
          0,
          0,
          0,
          1,
          0,
          1,
          0,
          1,
          0,
          0,
          0,
          0,
          0,
          0,
          0,
          0,
          0,
          0,
          0,
          0,
          0,
          0,
          0,
          0,
          0,
          0,
          0,
          0,
          1,
          0,
          0,
          0,
          1,
          0,
          0,
          1,
          0,
          0,
          0,
          1,
          0,
          0,
          0,
          1,
          0,
          0,
          0,
          1,
          0,
          0,
          0,
          0,
          1,
          0,
          0,
          1,
          0,
          0,
          0,
          1,
          0,
          0,
          0,
          0,
          0,
          0,
          0,
          1,
          0,
          0,
          0,
          0,
          0,
          0,
          1,
          0,
          0,
          0,
          0,
          1,
          0,
          0,
          0,
          0,
          0,
          0,
          0,
          0,
          0,
          0,
          0,
          0,
          0,
          0,
          0,
          0,
          0,
          0,
          0,
          0,
          0,
          1,
          0,
          0,
          0,
          0,
          0,
          0,
          0,
          0,
          0,
          0,
          0,
          0,
          0,
          0,
          0,
          1,
          0,
          0,
          0,
          0,
          0,
          0,
          0,
          0,
          0,
          0,
          0,
          0,
          1,
          0,
          0,
          1,
          0,
          0,
          1,
          0,
          0,
          0,
          1,
          0,
          1,
          0,
          0,
          0,
          0,
          1,
          0,
          0,
          0,
          0,
          0,
          0,
          0,
          0,
          0,
          0,
          0,
          0,
          0,
          0,
          0,
          0,
          0,
          0,
          0,
          0,
          0,
          0,
          0,
          0,
          0,
          0,
          0,
          1,
          0,
          0,
          0,
          0,
          0,
          0,
          0,
          1,
          0,
          0,
          0,
          0,
          0,
          0,
          0,
          0,
          0,
          0,
          0,
          0,
          1,
          0,
          0,
          0,
          0,
          0,
          0,
          0,
          0,
          0,
          0,
          0,
          0,
          0,
          0,
          1,
          0,
          0,
          1,
          0,
          1,
          0,
          0,
          0,
          1,
          1,
          0,
          0,
          0,
          0,
          0,
          0,
          0,
          0,
          0,
          0,
          0,
          0,
          0,
          0,
          0,
          0,
          1,
          1,
          0,
          0,
          0,
          0,
          0,
          0,
          0,
          0,
          0,
          1,
          0,
          0,
          1,
          0,
          0,
          0,
          0,
          0,
          0,
          1,
          0,
          0,
          1,
          0,
          0,
          0,
          1,
          1,
          0,
          0,
          0,
          0,
          1,
          0,
          1,
          0,
          1,
          1,
          0,
          0,
          0,
          0,
          0,
          0,
          0,
          0,
          0,
          1,
          0,
          0,
          1,
          0,
          0,
          1,
          0,
          0,
          0,
          0,
          0,
          0,
          0,
          0,
          0,
          0,
          0,
          0,
          0,
          0,
          0,
          0,
          0,
          1,
          0,
          0,
          0,
          1,
          0,
          0,
          0,
          0,
          0,
          0,
          1,
          0,
          0,
          0,
          0,
          1,
          0,
          0,
          0,
          1,
          0,
          0,
          0,
          1,
          1,
          0,
          0,
          0,
          0,
          0,
          0,
          0,
          0,
          0,
          0,
          0,
          0,
          0,
          0,
          0,
          0,
          0,
          0,
          0,
          0,
          0,
          0,
          0,
          0,
          0,
          0,
          0,
          0,
          0,
          0,
          0,
          0,
          0,
          0,
          0,
          0,
          0,
          0,
          0,
          0,
          0,
          0,
          1,
          0,
          0,
          0,
          0,
          0,
          1,
          0,
          0,
          0,
          0,
          0,
          1,
          0,
          0,
          0,
          0,
          0,
          0,
          0,
          0,
          0,
          0,
          0,
          1,
          0,
          0,
          0,
          0,
          1,
          0,
          0,
          0,
          0,
          0,
          1,
          0,
          0,
          0,
          0,
          1,
          0,
          0,
          0,
          0,
          0,
          0,
          0,
          0,
          0,
          0,
          0,
          0,
          0,
          0,
          0,
          1,
          0,
          0,
          0,
          0,
          0,
          0,
          1,
          0,
          0,
          0,
          0,
          0,
          0,
          0,
          0,
          0,
          0,
          0,
          1,
          0,
          0,
          0,
          0,
          0,
          0,
          1,
          0,
          0,
          0,
          0,
          0,
          1,
          1,
          1,
          0,
          0,
          0,
          0,
          0,
          0,
          0,
          0,
          0,
          0,
          0,
          0,
          0,
          0,
          0,
          0,
          0,
          0,
          0,
          0,
          0,
          0,
          1,
          0,
          0,
          0,
          0,
          0,
          0,
          0,
          0,
          0,
          0,
          0,
          0,
          0,
          0,
          0,
          0,
          0,
          0,
          0,
          1,
          0,
          0,
          0,
          0,
          1,
          1,
          0,
          0,
          0,
          0,
          0,
          0,
          0,
          1,
          0,
          0,
          0,
          0,
          1,
          0,
          0,
          0,
          0,
          1,
          0,
          0,
          0,
          1,
          0,
          1,
          0,
          0,
          0,
          0,
          0,
          1,
          0,
          1,
          0,
          0,
          0,
          0,
          1,
          0,
          1,
          0,
          0,
          0,
          1,
          0,
          0,
          0,
          0,
          0,
          0,
          0,
          0,
          0,
          0,
          0,
          0,
          0,
          0,
          0,
          0,
          0,
          1,
          0,
          0,
          0,
          0,
          0,
          0,
          0,
          0,
          0,
          0,
          0,
          0,
          1,
          0,
          0,
          0,
          0,
          0,
          0,
          0,
          0,
          1,
          1,
          0,
          0,
          0,
          0,
          0,
          0,
          0,
          0,
          0,
          0,
          1,
          0,
          0,
          0,
          0,
          0,
          0,
          1,
          0,
          0,
          1,
          0,
          0,
          0,
          0,
          0,
          0,
          1,
          0,
          1,
          0,
          0,
          0,
          0,
          0,
          0,
          0,
          1,
          0,
          0,
          0,
          0,
          0,
          0,
          0,
          0,
          0,
          0,
          0,
          0,
          0,
          0,
          0,
          0,
          0,
          0,
          0,
          0,
          0,
          0,
          0,
          1,
          0,
          0,
          0,
          0,
          0,
          0,
          0,
          0,
          1,
          0,
          0,
          1,
          0,
          0,
          0,
          0,
          0,
          0,
          0,
          0,
          0,
          0,
          0,
          0,
          0,
          0,
          0,
          0,
          0,
          0,
          1,
          0,
          0,
          1,
          0,
          1,
          1,
          0,
          0,
          0,
          0,
          0,
          0,
          0,
          0,
          0,
          0,
          0,
          0,
          0,
          0,
          0,
          1,
          0,
          0,
          1,
          1,
          0,
          0,
          0,
          0,
          0,
          0,
          0,
          0,
          0,
          0,
          0,
          0,
          0,
          0,
          0,
          0,
          0,
          0,
          0,
          0,
          0,
          1,
          0,
          0,
          0,
          0,
          1,
          0,
          0,
          0,
          0,
          0,
          0,
          0,
          0,
          0,
          0,
          0,
          0,
          0,
          0,
          0,
          0,
          0,
          0,
          0,
          0,
          0,
          0,
          0,
          0,
          0,
          0,
          1,
          0,
          0,
          1,
          0,
          0,
          0,
          0,
          0,
          1,
          0,
          0,
          0,
          0,
          0,
          0,
          0,
          0,
          0,
          0,
          0,
          0,
          0,
          0,
          0,
          0,
          1,
          0,
          0,
          1,
          0,
          0,
          0,
          0,
          0,
          0,
          0,
          0,
          0,
          0,
          1,
          1,
          0,
          0,
          0,
          0,
          0,
          1,
          0,
          0,
          0,
          1,
          1,
          0,
          0,
          0,
          1,
          0,
          0,
          0,
          1,
          0,
          0,
          0,
          1,
          0,
          0,
          0,
          0,
          0,
          0,
          0,
          0,
          0,
          0,
          0,
          0,
          0,
          1,
          0,
          0,
          0,
          0,
          0,
          0,
          0,
          0,
          0,
          0,
          0,
          0,
          0,
          0,
          0,
          0,
          0,
          0,
          1,
          0,
          0,
          0,
          0,
          0,
          0,
          0,
          0,
          0,
          0,
          1,
          0,
          0
        ]
      },
      "pos": [
        49,
        2
      ]
    },
    {
      "id": 283,
      "plugin": "Fundamental",
      "version": "1.4.0",
      "model": "VCA-1",
      "params": [
        {
          "id": 0,
          "value": 0.497499824
        },
        {
          "id": 1,
          "value": 1.0
        }
      ],
      "leftModuleId": 298,
      "rightModuleId": 297,
      "pos": [
        30,
        2
      ]
    },
    {
      "id": 285,
      "plugin": "AS",
      "version": "1.0.3",
      "model": "MonoVUmeter",
      "params": [],
      "pos": [
        120,
        1
      ]
    },
    {
      "id": 286,
      "plugin": "AS",
      "version": "1.0.3",
      "model": "MonoVUmeter",
      "params": [],
      "leftModuleId": 238,
      "rightModuleId": 298,
      "pos": [
        20,
        2
      ]
    },
    {
      "id": 290,
      "plugin": "Bogaudio",
      "version": "1.1.25",
      "model": "Bogaudio-Stack",
      "params": [
        {
          "id": 0,
          "value": 7.0
        },
        {
          "id": 1,
          "value": -3.0
        },
        {
          "id": 2,
          "value": 0.0
        },
        {
          "id": 3,
          "value": 1.0
        }
      ],
      "leftModuleId": 308,
      "rightModuleId": 305,
      "pos": [
        95,
        1
      ]
    },
    {
      "id": 292,
      "plugin": "Fundamental",
      "version": "1.4.0",
      "model": "VCMixer",
      "params": [
        {
          "id": 0,
          "value": 0.997000277
        },
        {
          "id": 1,
          "value": 0.988535047
        },
        {
          "id": 2,
          "value": 0.703015566
        },
        {
          "id": 3,
          "value": 1.0
        },
        {
          "id": 4,
          "value": 1.0
        }
      ],
      "leftModuleId": 305,
      "pos": [
        108,
        1
      ]
    },
    {
      "id": 293,
      "plugin": "Bogaudio",
      "version": "1.1.25",
      "model": "Bogaudio-Stack",
      "params": [
        {
          "id": 0,
          "value": 0.0
        },
        {
          "id": 1,
          "value": -3.0
        },
        {
          "id": 2,
          "value": 0.0
        },
        {
          "id": 3,
          "value": 1.0
        }
      ],
      "leftModuleId": 309,
      "rightModuleId": 308,
      "pos": [
        82,
        1
      ]
    },
    {
      "id": 298,
      "plugin": "ML_modules",
      "version": "1.0.5",
      "model": "VoltMeter",
      "params": [],
      "leftModuleId": 286,
      "rightModuleId": 283,
      "pos": [
        22,
        2
      ]
    },
    {
      "id": 297,
      "plugin": "VultModulesFree",
      "version": "1.6.0",
      "model": "UtilKnobs",
      "params": [
        {
          "id": 0,
          "value": 0.196850389
        },
        {
          "id": 1,
          "value": 0.0
        },
        {
          "id": 2,
          "value": 0.0
        },
        {
          "id": 3,
          "value": 0.0
        },
        {
          "id": 4,
          "value": 0.0
        },
        {
          "id": 5,
          "value": 0.0
        },
        {
          "id": 6,
          "value": 0.0
        },
        {
          "id": 7,
          "value": 0.0
        },
        {
          "id": 8,
          "value": 0.0
        },
        {
          "id": 9,
          "value": 0.0
        },
        {
          "id": 10,
          "value": 0.0
        },
        {
          "id": 11,
          "value": 0.0
        }
      ],
      "leftModuleId": 283,
      "rightModuleId": 276,
      "pos": [
        33,
        2
      ]
    },
    {
      "id": 301,
      "plugin": "Core",
      "version": "1.1.6",
      "model": "MIDI-Map",
      "params": [],
      "leftModuleId": 1,
      "rightModuleId": 303,
      "data": {
        "maps": [
          {
            "cc": 21,
            "moduleId": 245,
            "paramId": 1
          },
          {
            "cc": 23,
            "moduleId": 241,
            "paramId": 5
          },
          {
            "cc": 22,
            "moduleId": 244,
            "paramId": 1
          },
          {
            "cc": 24,
            "moduleId": 297,
            "paramId": 0
          },
          {
            "cc": 22,
            "moduleId": -1,
            "paramId": 0
          },
          {
            "cc": 21,
            "moduleId": -1,
            "paramId": 0
          },
          {
            "cc": -1,
            "moduleId": -1,
            "paramId": 0
          }
        ],
        "midi": {
          "driver": 4,
          "deviceName": "Launchkey 49 0",
          "channel": -1
        }
      },
      "pos": [
        132,
        0
      ]
    },
    {
      "id": 303,
      "plugin": "Core",
      "version": "1.1.6",
      "model": "MIDICCToCVInterface",
      "params": [],
      "leftModuleId": 301,
      "rightModuleId": 304,
      "data": {
        "ccs": [
          0,
          1,
          2,
          3,
          4,
          5,
          6,
          7,
          8,
          9,
          10,
          11,
          12,
          13,
          14,
          15
        ],
        "values": [
          0,
          0,
          0,
          0,
          0,
          0,
          0,
          0,
          0,
          0,
          0,
          0,
          0,
          0,
          0,
          0,
          0,
          0,
          0,
          0,
          0,
          26,
          22,
          60,
          25,
          0,
          0,
          0,
          0,
          0,
          0,
          0,
          0,
          0,
          0,
          0,
          0,
          0,
          0,
          0,
          0,
          0,
          0,
          0,
          0,
          0,
          0,
          0,
          0,
          0,
          0,
          0,
          0,
          0,
          0,
          0,
          0,
          0,
          0,
          0,
          0,
          0,
          0,
          0,
          0,
          0,
          0,
          0,
          0,
          0,
          0,
          0,
          0,
          0,
          0,
          0,
          0,
          0,
          0,
          0,
          0,
          0,
          0,
          0,
          0,
          0,
          0,
          0,
          0,
          0,
          0,
          0,
          0,
          0,
          0,
          0,
          0,
          0,
          0,
          0,
          0,
          0,
          0,
          0,
          0,
          0,
          0,
          0,
          0,
          0,
          0,
          0,
          0,
          0,
          0,
          0,
          0,
          0,
          0,
          0,
          0,
          0,
          0,
          0,
          0,
          0,
          0,
          0
        ],
        "midi": {
          "driver": 4,
          "deviceName": "Launchkey 49 0",
          "channel": -1
        }
      },
      "pos": [
        142,
        0
      ]
    },
    {
      "id": 304,
      "plugin": "Core",
      "version": "1.1.6",
      "model": "MIDITriggerToCVInterface",
      "params": [],
      "leftModuleId": 303,
      "data": {
        "notes": [
          40,
          49,
          50,
          51,
          60,
          45,
          46,
          47,
          40,
          41,
          42,
          43,
          36,
          37,
          38,
          39
        ],
        "velocity": false,
        "midi": {
          "driver": 4,
          "deviceName": "Launchkey 49 0",
          "channel": -1
        }
      },
      "pos": [
        152,
        0
      ]
    },
    {
      "id": 305,
      "plugin": "Bogaudio",
      "version": "1.1.25",
      "model": "Bogaudio-FMOp",
      "params": [
        {
          "id": 0,
          "value": 0.0
        },
        {
          "id": 1,
          "value": 0.0
        },
        {
          "id": 2,
          "value": 0.141421005
        },
        {
          "id": 3,
          "value": 0.523500085
        },
        {
          "id": 4,
          "value": 0.839499891
        },
        {
          "id": 5,
          "value": 0.461730152
        },
        {
          "id": 6,
          "value": 0.0
        },
        {
          "id": 7,
          "value": 0.0
        },
        {
          "id": 8,
          "value": 1.0
        },
        {
          "id": 9,
          "value": 1.0
        },
        {
          "id": 10,
          "value": 0.0
        },
        {
          "id": 11,
          "value": 0.0
        }
      ],
      "leftModuleId": 290,
      "rightModuleId": 292,
      "data": {
        "linearLevel": false
      },
      "pos": [
        98,
        1
      ]
    },
    {
      "id": 308,
      "plugin": "Bogaudio",
      "version": "1.1.25",
      "model": "Bogaudio-FMOp",
      "params": [
        {
          "id": 0,
          "value": 0.0
        },
        {
          "id": 1,
          "value": 0.0
        },
        {
          "id": 2,
          "value": 0.141421005
        },
        {
          "id": 3,
          "value": 0.523500085
        },
        {
          "id": 4,
          "value": 0.839499891
        },
        {
          "id": 5,
          "value": 0.461730152
        },
        {
          "id": 6,
          "value": 0.0
        },
        {
          "id": 7,
          "value": 0.0
        },
        {
          "id": 8,
          "value": 1.0
        },
        {
          "id": 9,
          "value": 1.0
        },
        {
          "id": 10,
          "value": 0.0
        },
        {
          "id": 11,
          "value": 0.0
        }
      ],
      "leftModuleId": 293,
      "rightModuleId": 290,
      "data": {
        "linearLevel": false
      },
      "pos": [
        85,
        1
      ]
    },
    {
      "id": 309,
      "plugin": "Bogaudio",
      "version": "1.1.25",
      "model": "Bogaudio-SampleHold",
      "params": [
        {
          "id": 0,
          "value": 0.0
        },
        {
          "id": 1,
          "value": 0.0
        },
        {
          "id": 2,
          "value": 0.0
        },
        {
          "id": 3,
          "value": 0.0
        },
        {
          "id": 4,
          "value": 0.0
        },
        {
          "id": 5,
          "value": 0.0
        }
      ],
      "leftModuleId": 248,
      "rightModuleId": 293,
      "data": {
        "noise_type": 0,
        "range_offset": 1.0,
        "range_scale": 5.0
      },
      "pos": [
        79,
        1
      ]
    }
  ],
  "cables": [
    {
      "id": 410,
      "outputModuleId": 147,
      "outputId": 0,
      "inputModuleId": 146,
      "inputId": 4,
      "color": "#0c8e15"
    },
    {
      "id": 431,
      "outputModuleId": 145,
      "outputId": 0,
      "inputModuleId": 1,
      "inputId": 0,
      "color": "#c91847"
    },
    {
      "id": 409,
      "outputModuleId": 145,
      "outputId": 1,
      "inputModuleId": 1,
      "inputId": 1,
      "color": "#c9b70e"
    },
    {
      "id": 432,
      "outputModuleId": 145,
      "outputId": 0,
      "inputModuleId": 7,
      "inputId": 0,
      "color": "#0986ad"
    },
    {
      "id": 433,
      "outputModuleId": 145,
      "outputId": 1,
      "inputModuleId": 7,
      "inputId": 1,
      "color": "#c9b70e"
    },
    {
      "id": 434,
      "outputModuleId": 164,
      "outputId": 0,
      "inputModuleId": 145,
      "inputId": 20,
      "color": "#0c8e15"
    },
    {
      "id": 435,
      "outputModuleId": 164,
      "outputId": 1,
      "inputModuleId": 145,
      "inputId": 44,
      "color": "#c91847"
    },
    {
      "id": 436,
      "outputModuleId": 145,
      "outputId": 10,
      "inputModuleId": 164,
      "inputId": 0,
      "color": "#0986ad"
    },
    {
      "id": 437,
      "outputModuleId": 145,
      "outputId": 14,
      "inputModuleId": 164,
      "inputId": 1,
      "color": "#c9b70e"
    },
    {
      "id": 438,
      "outputModuleId": 163,
      "outputId": 0,
      "inputModuleId": 145,
      "inputId": 21,
      "color": "#0c8e15"
    },
    {
      "id": 439,
      "outputModuleId": 163,
      "outputId": 1,
      "inputModuleId": 145,
      "inputId": 45,
      "color": "#c91847"
    },
    {
      "id": 440,
      "outputModuleId": 145,
      "outputId": 11,
      "inputModuleId": 163,
      "inputId": 5,
      "color": "#0986ad"
    },
    {
      "id": 441,
      "outputModuleId": 145,
      "outputId": 15,
      "inputModuleId": 163,
      "inputId": 6,
      "color": "#c9b70e"
    },
    {
      "id": 442,
      "outputModuleId": 146,
      "outputId": 0,
      "inputModuleId": 163,
      "inputId": 7,
      "color": "#0c8e15"
    },
    {
      "id": 569,
      "outputModuleId": 241,
      "outputId": 14,
      "inputModuleId": 242,
      "inputId": 0,
      "color": "#0986ad"
    },
    {
      "id": 570,
      "outputModuleId": 241,
      "outputId": 12,
      "inputModuleId": 243,
      "inputId": 0,
      "color": "#0c8e15"
    },
    {
      "id": 574,
      "outputModuleId": 146,
      "outputId": 1,
      "inputModuleId": 241,
      "inputId": 0,
      "color": "#c91847"
    },
    {
      "id": 575,
      "outputModuleId": 241,
      "outputId": 14,
      "inputModuleId": 246,
      "inputId": 0,
      "color": "#0986ad"
    },
    {
      "id": 576,
      "outputModuleId": 241,
      "outputId": 12,
      "inputModuleId": 246,
      "inputId": 1,
      "color": "#c9b70e"
    },
    {
      "id": 578,
      "outputModuleId": 243,
      "outputId": 0,
      "inputModuleId": 244,
      "inputId": 0,
      "color": "#c91847"
    },
    {
      "id": 577,
      "outputModuleId": 242,
      "outputId": 0,
      "inputModuleId": 245,
      "inputId": 0,
      "color": "#0c8e15"
    },
    {
      "id": 588,
      "outputModuleId": 245,
      "outputId": 0,
      "inputModuleId": 249,
      "inputId": 4,
      "color": "#c91847"
    },
    {
      "id": 589,
      "outputModuleId": 242,
      "outputId": 2,
      "inputModuleId": 249,
      "inputId": 0,
      "color": "#0986ad"
    },
    {
      "id": 591,
      "outputModuleId": 244,
      "outputId": 0,
      "inputModuleId": 248,
      "inputId": 4,
      "color": "#0c8e15"
    },
    {
      "id": 632,
      "outputModuleId": 265,
      "outputId": 0,
      "inputModuleId": 257,
      "inputId": 0,
      "color": "#0c8e15"
    },
    {
      "id": 633,
      "outputModuleId": 265,
      "outputId": 1,
      "inputModuleId": 256,
      "inputId": 0,
      "color": "#c91847"
    },
    {
      "id": 634,
      "outputModuleId": 265,
      "outputId": 2,
      "inputModuleId": 260,
      "inputId": 17,
      "color": "#0986ad"
    },
    {
      "id": 635,
      "outputModuleId": 265,
      "outputId": 3,
      "inputModuleId": 258,
      "inputId": 17,
      "color": "#c9b70e"
    },
    {
      "id": 636,
      "outputModuleId": 265,
      "outputId": 4,
      "inputModuleId": 260,
      "inputId": 16,
      "color": "#0c8e15"
    },
    {
      "id": 637,
      "outputModuleId": 265,
      "outputId": 5,
      "inputModuleId": 258,
      "inputId": 16,
      "color": "#c91847"
    },
    {
      "id": 649,
      "outputModuleId": 265,
      "outputId": 6,
      "inputModuleId": 273,
      "inputId": 0,
      "color": "#c9b70e"
    },
    {
      "id": 650,
      "outputModuleId": 265,
      "outputId": 7,
      "inputModuleId": 272,
      "inputId": 0,
      "color": "#0c8e15"
    },
    {
      "id": 653,
      "outputModuleId": 147,
      "outputId": 3,
      "inputModuleId": 241,
      "inputId": 1,
      "color": "#c9b70e"
    },
    {
      "id": 651,
      "outputModuleId": 146,
      "outputId": 3,
      "inputModuleId": 276,
      "inputId": 0,
      "color": "#c91847"
    },
    {
      "id": 629,
      "outputModuleId": 146,
      "outputId": 1,
      "inputModuleId": 280,
      "inputId": 0,
      "color": "#0c8e15"
    },
    {
      "id": 639,
      "outputModuleId": 147,
      "outputId": 1,
      "inputModuleId": 280,
      "inputId": 1,
      "color": "#c9b70e"
    },
    {
      "id": 630,
      "outputModuleId": 280,
      "outputId": 41,
      "inputModuleId": 265,
      "inputId": 0,
      "color": "#0986ad"
    },
    {
      "id": 647,
      "outputModuleId": 272,
      "outputId": 0,
      "inputModuleId": 145,
      "inputId": 15,
      "color": "#c91847"
    },
    {
      "id": 648,
      "outputModuleId": 273,
      "outputId": 0,
      "inputModuleId": 145,
      "inputId": 14,
      "color": "#0986ad"
    },
    {
      "id": 616,
      "outputModuleId": 260,
      "outputId": 0,
      "inputModuleId": 145,
      "inputId": 13,
      "color": "#0986ad"
    },
    {
      "id": 612,
      "outputModuleId": 258,
      "outputId": 0,
      "inputModuleId": 145,
      "inputId": 12,
      "color": "#0986ad"
    },
    {
      "id": 609,
      "outputModuleId": 258,
      "outputId": 1,
      "inputModuleId": 145,
      "inputId": 11,
      "color": "#c9b70e"
    },
    {
      "id": 606,
      "outputModuleId": 260,
      "outputId": 1,
      "inputModuleId": 145,
      "inputId": 10,
      "color": "#c9b70e"
    },
    {
      "id": 600,
      "outputModuleId": 256,
      "outputId": 0,
      "inputModuleId": 145,
      "inputId": 9,
      "color": "#c91847"
    },
    {
      "id": 599,
      "outputModuleId": 257,
      "outputId": 0,
      "inputModuleId": 145,
      "inputId": 8,
      "color": "#0c8e15"
    },
    {
      "id": 594,
      "outputModuleId": 238,
      "outputId": 0,
      "inputModuleId": 145,
      "inputId": 7,
      "color": "#c9b70e"
    },
    {
      "id": 572,
      "outputModuleId": 249,
      "outputId": 0,
      "inputModuleId": 145,
      "inputId": 1,
      "color": "#0986ad"
    },
    {
      "id": 579,
      "outputModuleId": 248,
      "outputId": 0,
      "inputModuleId": 145,
      "inputId": 2,
      "color": "#0986ad"
    },
    {
      "id": 666,
      "outputModuleId": 147,
      "outputId": 2,
      "inputModuleId": 276,
      "inputId": 4,
      "color": "#c91847"
    },
    {
      "id": 560,
      "outputModuleId": 146,
      "outputId": 2,
      "inputModuleId": 238,
      "inputId": 0,
      "color": "#0986ad"
    },
    {
      "id": 668,
      "outputModuleId": 238,
      "outputId": 0,
      "inputModuleId": 286,
      "inputId": 0,
      "color": "#c9b70e"
    },
    {
      "id": 674,
      "outputModuleId": 292,
      "outputId": 0,
      "inputModuleId": 145,
      "inputId": 0,
      "color": "#c9b70e"
    },
    {
      "id": 691,
      "outputModuleId": 292,
      "outputId": 0,
      "inputModuleId": 285,
      "inputId": 0,
      "color": "#c9b70e"
    },
    {
      "id": 699,
      "outputModuleId": 283,
      "outputId": 0,
      "inputModuleId": 298,
      "inputId": 3,
      "color": "#c9b70e"
    },
    {
      "id": 657,
      "outputModuleId": 276,
      "outputId": 3,
      "inputModuleId": 280,
      "inputId": 3,
      "color": "#c91847"
    },
    {
      "id": 663,
      "outputModuleId": 283,
      "outputId": 0,
      "inputModuleId": 280,
      "inputId": 4,
      "color": "#0986ad"
    },
    {
      "id": 700,
      "outputModuleId": 297,
      "outputId": 0,
      "inputModuleId": 298,
      "inputId": 0,
      "color": "#0c8e15"
    },
    {
      "id": 698,
      "outputModuleId": 297,
      "outputId": 0,
      "inputModuleId": 283,
      "inputId": 1,
      "color": "#0986ad"
    },
    {
      "id": 702,
      "outputModuleId": 304,
      "outputId": 0,
      "inputModuleId": 280,
      "inputId": 2,
      "color": "#0c8e15"
    },
    {
      "id": 590,
      "outputModuleId": 243,
      "outputId": 2,
      "inputModuleId": 248,
      "inputId": 0,
      "color": "#c9b70e"
    },
    {
      "id": 713,
      "outputModuleId": 308,
      "outputId": 0,
      "inputModuleId": 292,
      "inputId": 1,
      "color": "#0c8e15"
    },
    {
      "id": 714,
      "outputModuleId": 305,
      "outputId": 0,
      "inputModuleId": 292,
      "inputId": 2,
      "color": "#c91847"
    },
    {
      "id": 716,
      "outputModuleId": 242,
      "outputId": 0,
      "inputModuleId": 309,
      "inputId": 3,
      "color": "#c9b70e"
    },
    {
      "id": 718,
      "outputModuleId": 242,
      "outputId": 2,
      "inputModuleId": 309,
      "inputId": 2,
      "color": "#0986ad"
    },
    {
      "id": 719,
      "outputModuleId": 242,
      "outputId": 2,
      "inputModuleId": 308,
      "inputId": 5,
      "color": "#c9b70e"
    },
    {
      "id": 717,
      "outputModuleId": 309,
      "outputId": 1,
      "inputModuleId": 293,
      "inputId": 1,
      "color": "#0c8e15"
    },
    {
      "id": 720,
      "outputModuleId": 293,
      "outputId": 1,
      "inputModuleId": 308,
      "inputId": 4,
      "color": "#0c8e15"
    },
    {
      "id": 721,
      "outputModuleId": 243,
      "outputId": 2,
      "inputModuleId": 305,
      "inputId": 5,
      "color": "#c91847"
    },
    {
      "id": 722,
      "outputModuleId": 243,
      "outputId": 0,
      "inputModuleId": 309,
      "inputId": 1,
      "color": "#0986ad"
    },
    {
      "id": 723,
      "outputModuleId": 243,
      "outputId": 2,
      "inputModuleId": 309,
      "inputId": 0,
      "color": "#c9b70e"
    },
    {
      "id": 725,
      "outputModuleId": 290,
      "outputId": 1,
      "inputModuleId": 305,
      "inputId": 4,
      "color": "#c91847"
    },
    {
      "id": 724,
      "outputModuleId": 309,
      "outputId": 0,
      "inputModuleId": 290,
      "inputId": 1,
      "color": "#0c8e15"
    }
  ]
}