{
  "version": "1.1.6",
  "modules": [
    {
      "id": 1,
      "plugin": "Core",
      "version": "1.1.6",
      "model": "AudioInterface",
      "params": [],
      "leftModuleId": 7,
      "data": {
        "audio": {
          "driver": 6,
          "deviceName": "Headphones Realtek HD Audio (Realtek(R) Audio)",
          "offset": 0,
          "maxChannels": 8,
          "sampleRate": 44100,
          "blockSize": 1024
        }
      },
      "pos": [
        128,
        0
      ]
    },
    {
      "id": 7,
      "plugin": "Fundamental",
      "version": "1.4.0",
      "model": "Scope",
      "params": [
        {
          "id": 0,
          "value": 1.0
        },
        {
          "id": 1,
          "value": -2.13000011
        },
        {
          "id": 2,
          "value": 1.0
        },
        {
          "id": 3,
          "value": 1.22999978
        },
        {
          "id": 4,
          "value": 14.0
        },
        {
          "id": 5,
          "value": 0.0
        },
        {
          "id": 6,
          "value": 0.200000674
        },
        {
          "id": 7,
          "value": 0.0
        }
      ],
      "leftModuleId": 163,
      "rightModuleId": 1,
      "data": {
        "lissajous": 0,
        "external": 0
      },
      "pos": [
        115,
        0
      ]
    },
    {
      "id": 145,
      "plugin": "mscHack",
      "version": "1.0.2",
      "model": "Mix_16_4_4",
      "params": [
        {
          "id": 0,
          "value": 0.0449998006
        },
        {
          "id": 1,
          "value": 0.0
        },
        {
          "id": 2,
          "value": 0.0
        },
        {
          "id": 3,
          "value": 0.653999865
        },
        {
          "id": 4,
          "value": 0.456000239
        },
        {
          "id": 5,
          "value": 0.38100028
        },
        {
          "id": 6,
          "value": 0.488999754
        },
        {
          "id": 7,
          "value": 0.53099972
        },
        {
          "id": 8,
          "value": 0.0
        },
        {
          "id": 9,
          "value": 0.0
        },
        {
          "id": 10,
          "value": 0.0
        },
        {
          "id": 11,
          "value": 0.0
        },
        {
          "id": 12,
          "value": 0.0
        },
        {
          "id": 13,
          "value": 0.0
        },
        {
          "id": 14,
          "value": 0.0
        },
        {
          "id": 15,
          "value": 0.0
        },
        {
          "id": 16,
          "value": 0.0
        },
        {
          "id": 17,
          "value": 0.0
        },
        {
          "id": 18,
          "value": 0.0
        },
        {
          "id": 19,
          "value": 0.0
        },
        {
          "id": 20,
          "value": 0.0
        },
        {
          "id": 21,
          "value": 0.702000499
        },
        {
          "id": 22,
          "value": 0.705999792
        },
        {
          "id": 23,
          "value": 0.0
        },
        {
          "id": 24,
          "value": 0.0
        },
        {
          "id": 25,
          "value": 0.0
        },
        {
          "id": 26,
          "value": 0.0
        },
        {
          "id": 27,
          "value": 0.0
        },
        {
          "id": 28,
          "value": 0.0
        },
        {
          "id": 29,
          "value": 0.0
        },
        {
          "id": 30,
          "value": 0.0
        },
        {
          "id": 31,
          "value": 0.0
        },
        {
          "id": 32,
          "value": 0.0
        },
        {
          "id": 33,
          "value": 0.0
        },
        {
          "id": 34,
          "value": 0.0
        },
        {
          "id": 35,
          "value": 0.0
        },
        {
          "id": 36,
          "value": 0.0
        },
        {
          "id": 37,
          "value": 0.0
        },
        {
          "id": 38,
          "value": 0.0
        },
        {
          "id": 39,
          "value": 0.0
        },
        {
          "id": 40,
          "value": 0.0
        },
        {
          "id": 41,
          "value": 0.0
        },
        {
          "id": 42,
          "value": 0.0
        },
        {
          "id": 43,
          "value": 0.0
        },
        {
          "id": 44,
          "value": 0.0
        },
        {
          "id": 45,
          "value": 0.0
        },
        {
          "id": 46,
          "value": 0.0
        },
        {
          "id": 47,
          "value": 0.0
        },
        {
          "id": 48,
          "value": 0.0
        },
        {
          "id": 49,
          "value": 0.497500002
        },
        {
          "id": 50,
          "value": 0.5
        },
        {
          "id": 51,
          "value": 0.5
        },
        {
          "id": 52,
          "value": 0.5
        },
        {
          "id": 53,
          "value": 0.5
        },
        {
          "id": 54,
          "value": 0.201499984
        },
        {
          "id": 55,
          "value": 0.5
        },
        {
          "id": 56,
          "value": 0.5
        },
        {
          "id": 57,
          "value": 0.5
        },
        {
          "id": 58,
          "value": 0.5
        },
        {
          "id": 59,
          "value": 0.5
        },
        {
          "id": 60,
          "value": 0.5
        },
        {
          "id": 61,
          "value": 0.5
        },
        {
          "id": 62,
          "value": 0.5
        },
        {
          "id": 63,
          "value": 0.5
        },
        {
          "id": 64,
          "value": 0.5
        },
        {
          "id": 65,
          "value": 0.5
        },
        {
          "id": 66,
          "value": 0.5
        },
        {
          "id": 67,
          "value": 0.5
        },
        {
          "id": 68,
          "value": 0.5
        },
        {
          "id": 69,
          "value": 0.5
        },
        {
          "id": 70,
          "value": 0.5
        },
        {
          "id": 71,
          "value": 0.5
        },
        {
          "id": 72,
          "value": 0.5
        },
        {
          "id": 73,
          "value": 0.493499994
        },
        {
          "id": 74,
          "value": 0.5
        },
        {
          "id": 75,
          "value": 0.5
        },
        {
          "id": 76,
          "value": 0.5
        },
        {
          "id": 77,
          "value": 0.5
        },
        {
          "id": 78,
          "value": 0.5
        },
        {
          "id": 79,
          "value": 0.5
        },
        {
          "id": 80,
          "value": 0.5
        },
        {
          "id": 81,
          "value": 0.5
        },
        {
          "id": 82,
          "value": 0.5
        },
        {
          "id": 83,
          "value": 0.5
        },
        {
          "id": 84,
          "value": 0.5
        },
        {
          "id": 85,
          "value": 0.5
        },
        {
          "id": 86,
          "value": 0.5
        },
        {
          "id": 87,
          "value": 0.5
        },
        {
          "id": 88,
          "value": 0.5
        },
        {
          "id": 89,
          "value": 0.5
        },
        {
          "id": 90,
          "value": 0.5
        },
        {
          "id": 91,
          "value": 0.5
        },
        {
          "id": 92,
          "value": 0.5
        },
        {
          "id": 93,
          "value": 0.5
        },
        {
          "id": 94,
          "value": 0.5
        },
        {
          "id": 95,
          "value": 0.5
        },
        {
          "id": 96,
          "value": 0.5
        },
        {
          "id": 97,
          "value": 0.497500002
        },
        {
          "id": 98,
          "value": 0.5
        },
        {
          "id": 99,
          "value": 0.5
        },
        {
          "id": 100,
          "value": 0.5
        },
        {
          "id": 101,
          "value": 0.5
        },
        {
          "id": 102,
          "value": 0.801499784
        },
        {
          "id": 103,
          "value": 0.5
        },
        {
          "id": 104,
          "value": 0.5
        },
        {
          "id": 105,
          "value": 0.5
        },
        {
          "id": 106,
          "value": 0.5
        },
        {
          "id": 107,
          "value": 0.5
        },
        {
          "id": 108,
          "value": 0.5
        },
        {
          "id": 109,
          "value": 0.5
        },
        {
          "id": 110,
          "value": 0.5
        },
        {
          "id": 111,
          "value": 0.5
        },
        {
          "id": 112,
          "value": 0.5
        },
        {
          "id": 113,
          "value": 0.5
        },
        {
          "id": 114,
          "value": 0.5
        },
        {
          "id": 115,
          "value": 0.5
        },
        {
          "id": 116,
          "value": 0.5
        },
        {
          "id": 117,
          "value": 0.5
        },
        {
          "id": 118,
          "value": 0.5
        },
        {
          "id": 119,
          "value": 0.5
        },
        {
          "id": 120,
          "value": 0.5
        },
        {
          "id": 121,
          "value": 0.188999817
        },
        {
          "id": 122,
          "value": 0.200999632
        },
        {
          "id": 123,
          "value": 0.0
        },
        {
          "id": 124,
          "value": 0.0
        },
        {
          "id": 125,
          "value": 0.209499836
        },
        {
          "id": 126,
          "value": 0.520500124
        },
        {
          "id": 127,
          "value": 0.0
        },
        {
          "id": 128,
          "value": 0.0
        },
        {
          "id": 129,
          "value": 0.0
        },
        {
          "id": 130,
          "value": 0.168000013
        },
        {
          "id": 131,
          "value": 0.0
        },
        {
          "id": 132,
          "value": 0.0
        },
        {
          "id": 133,
          "value": 0.305499971
        },
        {
          "id": 134,
          "value": 0.233499914
        },
        {
          "id": 135,
          "value": 0.0
        },
        {
          "id": 136,
          "value": 0.0
        },
        {
          "id": 137,
          "value": 0.457500219
        },
        {
          "id": 138,
          "value": 0.220499977
        },
        {
          "id": 139,
          "value": 0.0
        },
        {
          "id": 140,
          "value": 0.0
        },
        {
          "id": 141,
          "value": 0.51000011
        },
        {
          "id": 142,
          "value": 0.51000005
        },
        {
          "id": 143,
          "value": 0.0
        },
        {
          "id": 144,
          "value": 0.0
        },
        {
          "id": 145,
          "value": 0.195000067
        },
        {
          "id": 146,
          "value": 0.190500036
        },
        {
          "id": 147,
          "value": 0.0
        },
        {
          "id": 148,
          "value": 0.0
        },
        {
          "id": 149,
          "value": 0.0
        },
        {
          "id": 150,
          "value": 0.0
        },
        {
          "id": 151,
          "value": 0.0
        },
        {
          "id": 152,
          "value": 0.0
        },
        {
          "id": 153,
          "value": 0.0
        },
        {
          "id": 154,
          "value": 0.0
        },
        {
          "id": 155,
          "value": 0.0
        },
        {
          "id": 156,
          "value": 0.0
        },
        {
          "id": 157,
          "value": 0.0
        },
        {
          "id": 158,
          "value": 0.0
        },
        {
          "id": 159,
          "value": 0.0
        },
        {
          "id": 160,
          "value": 0.0
        },
        {
          "id": 161,
          "value": 0.0
        },
        {
          "id": 162,
          "value": 0.0
        },
        {
          "id": 163,
          "value": 0.0
        },
        {
          "id": 164,
          "value": 0.0
        },
        {
          "id": 165,
          "value": 0.0
        },
        {
          "id": 166,
          "value": 0.0
        },
        {
          "id": 167,
          "value": 0.0
        },
        {
          "id": 168,
          "value": 0.0
        },
        {
          "id": 169,
          "value": 0.0
        },
        {
          "id": 170,
          "value": 0.0
        },
        {
          "id": 171,
          "value": 0.0
        },
        {
          "id": 172,
          "value": 0.0
        },
        {
          "id": 173,
          "value": 0.0
        },
        {
          "id": 174,
          "value": 0.0
        },
        {
          "id": 175,
          "value": 0.0
        },
        {
          "id": 176,
          "value": 0.0
        },
        {
          "id": 177,
          "value": 0.0
        },
        {
          "id": 178,
          "value": 0.0
        },
        {
          "id": 179,
          "value": 0.0
        },
        {
          "id": 180,
          "value": 0.0
        },
        {
          "id": 181,
          "value": 0.0
        },
        {
          "id": 182,
          "value": 0.0
        },
        {
          "id": 183,
          "value": 0.0
        },
        {
          "id": 184,
          "value": 0.0
        },
        {
          "id": 185,
          "value": 0.0
        },
        {
          "id": 186,
          "value": 0.0
        },
        {
          "id": 187,
          "value": 0.0
        },
        {
          "id": 188,
          "value": 0.0
        },
        {
          "id": 189,
          "value": 0.0
        },
        {
          "id": 190,
          "value": 0.0
        },
        {
          "id": 191,
          "value": 0.0
        },
        {
          "id": 192,
          "value": 0.0
        },
        {
          "id": 193,
          "value": 0.0
        },
        {
          "id": 194,
          "value": 0.0
        },
        {
          "id": 195,
          "value": 0.0
        },
        {
          "id": 196,
          "value": 0.0
        },
        {
          "id": 197,
          "value": 0.0
        },
        {
          "id": 198,
          "value": 0.0
        },
        {
          "id": 199,
          "value": 0.0
        },
        {
          "id": 200,
          "value": 0.0
        },
        {
          "id": 201,
          "value": 1.0
        },
        {
          "id": 202,
          "value": 1.0
        },
        {
          "id": 203,
          "value": 0.0
        },
        {
          "id": 204,
          "value": 0.0
        }
      ],
      "leftModuleId": 146,
      "rightModuleId": 164,
      "data": {
        "m_bMuteStates": [
          false,
          false,
          false,
          false,
          false,
          false,
          false,
          false,
          false,
          false,
          false,
          false,
          false,
          false,
          false,
          false,
          false,
          false,
          false,
          false,
          false,
          false,
          false,
          false
        ],
        "m_bSoloStates": [
          false,
          false,
          false,
          false,
          false,
          false,
          false,
          false,
          false,
          false,
          false,
          false,
          false,
          false,
          false,
          false,
          false,
          false,
          false,
          false,
          false,
          false,
          false,
          false
        ],
        "m_iRouteGroup": [
          4,
          4,
          4,
          4,
          4,
          4,
          4,
          4,
          4,
          4,
          4,
          4,
          4,
          4,
          4,
          4
        ],
        "m_bGroupPreMute": [
          true
        ],
        "m_bGainLevelx2": [
          false
        ],
        "m_bPreFader": [
          false,
          false,
          false,
          false,
          false,
          false,
          false,
          false,
          false,
          false,
          false,
          false,
          false,
          false,
          false,
          false,
          false,
          false,
          false,
          false
        ],
        "m_bAuxIgnoreSolo": [
          false
        ]
      },
      "pos": [
        46,
        0
      ]
    },
    {
      "id": 146,
      "plugin": "ImpromptuModular",
      "version": "1.1.3",
      "model": "Clocked",
      "params": [
        {
          "id": 0,
          "value": 48.0
        },
        {
          "id": 1,
          "value": 5.0
        },
        {
          "id": 2,
          "value": -0.0
        },
        {
          "id": 3,
          "value": 0.0
        },
        {
          "id": 4,
          "value": 0.0
        },
        {
          "id": 5,
          "value": 0.0
        },
        {
          "id": 6,
          "value": 0.0
        },
        {
          "id": 7,
          "value": 0.0
        },
        {
          "id": 8,
          "value": 0.5
        },
        {
          "id": 9,
          "value": 0.5
        },
        {
          "id": 10,
          "value": 0.5
        },
        {
          "id": 11,
          "value": 0.5
        },
        {
          "id": 12,
          "value": 0.0
        },
        {
          "id": 13,
          "value": 0.0
        },
        {
          "id": 14,
          "value": 0.0
        },
        {
          "id": 15,
          "value": 0.0
        },
        {
          "id": 16,
          "value": 0.0
        },
        {
          "id": 17,
          "value": 0.0
        },
        {
          "id": 18,
          "value": 0.0
        },
        {
          "id": 19,
          "value": 0.0
        }
      ],
      "leftModuleId": 147,
      "rightModuleId": 145,
      "data": {
        "panelTheme": 1,
        "running": true,
        "displayDelayNoteMode": true,
        "bpmDetectionMode": false,
        "restartOnStopStartRun": 0,
        "sendResetOnRestart": false,
        "ppqn": 4,
        "resetClockOutputsHigh": true,
        "momentaryRunInput": true
      },
      "pos": [
        26,
        0
      ]
    },
    {
      "id": 147,
      "plugin": "RJModules",
      "version": "1.5.0",
      "model": "Button",
      "params": [
        {
          "id": 0,
          "value": 0.0
        }
      ],
      "leftModuleId": 235,
      "rightModuleId": 146,
      "pos": [
        16,
        0
      ]
    },
    {
      "id": 163,
      "plugin": "AlrightDevices",
      "version": "1.0.2",
      "model": "Chronoblob2",
      "params": [
        {
          "id": 0,
          "value": 0.764500201
        },
        {
          "id": 1,
          "value": 0.297499865
        },
        {
          "id": 2,
          "value": 0.799929261
        },
        {
          "id": 3,
          "value": 0.0
        },
        {
          "id": 4,
          "value": 0.0
        },
        {
          "id": 5,
          "value": 0.0
        },
        {
          "id": 6,
          "value": 0.0
        },
        {
          "id": 7,
          "value": 0.0
        },
        {
          "id": 8,
          "value": 0.0
        },
        {
          "id": 9,
          "value": 0.0
        }
      ],
      "leftModuleId": 164,
      "rightModuleId": 7,
      "data": {
        "delay_mode": 3,
        "hold_behavior": 0,
        "sync_prescaler": 6
      },
      "pos": [
        103,
        0
      ]
    },
    {
      "id": 164,
      "plugin": "Valley",
      "version": "1.0.1",
      "model": "Plateau",
      "params": [
        {
          "id": 0,
          "value": 0.0
        },
        {
          "id": 1,
          "value": 1.0
        },
        {
          "id": 2,
          "value": 0.0712501407
        },
        {
          "id": 3,
          "value": 10.0
        },
        {
          "id": 4,
          "value": 8.57499504
        },
        {
          "id": 5,
          "value": 0.512002766
        },
        {
          "id": 6,
          "value": 10.0
        },
        {
          "id": 7,
          "value": 0.547700524
        },
        {
          "id": 8,
          "value": 10.0
        },
        {
          "id": 9,
          "value": 6.83500051
        },
        {
          "id": 10,
          "value": 0.0
        },
        {
          "id": 11,
          "value": 0.485499799
        },
        {
          "id": 12,
          "value": 6.59600449
        },
        {
          "id": 13,
          "value": 0.0
        },
        {
          "id": 14,
          "value": 0.0
        },
        {
          "id": 15,
          "value": 0.0
        },
        {
          "id": 16,
          "value": 0.0
        },
        {
          "id": 17,
          "value": 0.0
        },
        {
          "id": 18,
          "value": 0.0
        },
        {
          "id": 19,
          "value": 0.0
        },
        {
          "id": 20,
          "value": 0.0
        },
        {
          "id": 21,
          "value": 0.0150001133
        },
        {
          "id": 22,
          "value": -0.0239999462
        },
        {
          "id": 23,
          "value": 0.0
        },
        {
          "id": 24,
          "value": 0.0
        },
        {
          "id": 25,
          "value": 0.0
        },
        {
          "id": 26,
          "value": 0.0
        },
        {
          "id": 27,
          "value": 0.0
        },
        {
          "id": 28,
          "value": 0.0
        },
        {
          "id": 29,
          "value": 0.0
        },
        {
          "id": 30,
          "value": 1.0
        }
      ],
      "leftModuleId": 145,
      "rightModuleId": 163,
      "data": {
        "frozen": false,
        "freezeToggle": false,
        "panelStyle": 0,
        "tuned": 0,
        "diffuseInput": 1,
        "preDelayCVSens": 0,
        "inputSensitivity": 0,
        "outputSaturation": 0
      },
      "pos": [
        91,
        0
      ]
    },
    {
      "id": 173,
      "plugin": "Bogaudio",
      "version": "1.1.25",
      "model": "Bogaudio-FMOp",
      "params": [
        {
          "id": 0,
          "value": 0.0
        },
        {
          "id": 1,
          "value": 0.0
        },
        {
          "id": 2,
          "value": 0.313499868
        },
        {
          "id": 3,
          "value": 0.185499832
        },
        {
          "id": 4,
          "value": 0.2340004
        },
        {
          "id": 5,
          "value": 0.307500213
        },
        {
          "id": 6,
          "value": 0.0
        },
        {
          "id": 7,
          "value": 0.223500684
        },
        {
          "id": 8,
          "value": 1.0
        },
        {
          "id": 9,
          "value": 1.0
        },
        {
          "id": 10,
          "value": 0.0
        },
        {
          "id": 11,
          "value": 0.0
        }
      ],
      "leftModuleId": 213,
      "rightModuleId": 232,
      "data": {
        "linearLevel": false
      },
      "pos": [
        50,
        1
      ]
    },
    {
      "id": 190,
      "plugin": "StellareModular",
      "version": "1.0.0",
      "model": "TuringMachine",
      "params": [
        {
          "id": 0,
          "value": 0.203999981
        },
        {
          "id": 1,
          "value": 0.0
        },
        {
          "id": 2,
          "value": 0.367500037
        },
        {
          "id": 3,
          "value": 0.0584999509
        },
        {
          "id": 4,
          "value": 0.22800003
        },
        {
          "id": 5,
          "value": 1.0
        },
        {
          "id": 6,
          "value": 7.0
        },
        {
          "id": 7,
          "value": 0.303000182
        },
        {
          "id": 8,
          "value": 0.0
        },
        {
          "id": 9,
          "value": 0.0
        },
        {
          "id": 10,
          "value": 0.0
        },
        {
          "id": 11,
          "value": 0.0
        },
        {
          "id": 12,
          "value": 0.0
        }
      ],
      "rightModuleId": 193,
      "data": {
        "pulses_mode": 0
      },
      "pos": [
        0,
        1
      ]
    },
    {
      "id": 192,
      "plugin": "ML_modules",
      "version": "1.0.5",
      "model": "Quantum",
      "params": [
        {
          "id": 0,
          "value": 0.0
        },
        {
          "id": 1,
          "value": 0.0
        },
        {
          "id": 2,
          "value": 0.0
        },
        {
          "id": 3,
          "value": 0.0
        },
        {
          "id": 4,
          "value": 0.0
        },
        {
          "id": 5,
          "value": 0.0
        },
        {
          "id": 6,
          "value": 0.0
        },
        {
          "id": 7,
          "value": 0.0
        },
        {
          "id": 8,
          "value": 0.0
        },
        {
          "id": 9,
          "value": 0.0
        },
        {
          "id": 10,
          "value": 0.0
        },
        {
          "id": 11,
          "value": 0.0
        }
      ],
      "leftModuleId": 224,
      "rightModuleId": 214,
      "data": {
        "scale": [
          0,
          0,
          1,
          0,
          1,
          0,
          0,
          1,
          0,
          0,
          0,
          0
        ],
        "mode": 1,
        "transpose_select": 1,
        "toggle_mode": 0
      },
      "pos": [
        35,
        1
      ]
    },
    {
      "id": 193,
      "plugin": "Fundamental",
      "version": "1.4.0",
      "model": "Scope",
      "params": [
        {
          "id": 0,
          "value": 2.0
        },
        {
          "id": 1,
          "value": -2.06999922
        },
        {
          "id": 2,
          "value": 2.0
        },
        {
          "id": 3,
          "value": 0.269999623
        },
        {
          "id": 4,
          "value": 6.0
        },
        {
          "id": 5,
          "value": 0.0
        },
        {
          "id": 6,
          "value": 10.0
        },
        {
          "id": 7,
          "value": 0.0
        }
      ],
      "leftModuleId": 190,
      "rightModuleId": 224,
      "data": {
        "lissajous": 0,
        "external": 0
      },
      "pos": [
        18,
        1
      ]
    },
    {
      "id": 194,
      "plugin": "VultModulesFree",
      "version": "1.6.0",
      "model": "Basal",
      "params": [
        {
          "id": 0,
          "value": 0.0
        },
        {
          "id": 1,
          "value": -0.792999268
        },
        {
          "id": 2,
          "value": 0.19349964
        },
        {
          "id": 3,
          "value": 0.0
        },
        {
          "id": 4,
          "value": 0.190499991
        },
        {
          "id": 5,
          "value": 0.0
        }
      ],
      "leftModuleId": 233,
      "rightModuleId": 203,
      "pos": [
        91,
        1
      ]
    },
    {
      "id": 195,
      "plugin": "ML_modules",
      "version": "1.0.5",
      "model": "Quantum",
      "params": [
        {
          "id": 0,
          "value": 0.0
        },
        {
          "id": 1,
          "value": 0.0
        },
        {
          "id": 2,
          "value": 0.0
        },
        {
          "id": 3,
          "value": 0.0
        },
        {
          "id": 4,
          "value": 0.0
        },
        {
          "id": 5,
          "value": 0.0
        },
        {
          "id": 6,
          "value": 0.0
        },
        {
          "id": 7,
          "value": 0.0
        },
        {
          "id": 8,
          "value": 0.0
        },
        {
          "id": 9,
          "value": 0.0
        },
        {
          "id": 10,
          "value": 0.0
        },
        {
          "id": 11,
          "value": 0.0
        }
      ],
      "leftModuleId": 232,
      "rightModuleId": 215,
      "data": {
        "scale": [
          0,
          0,
          0,
          0,
          0,
          0,
          1,
          0,
          0,
          1,
          0,
          1
        ],
        "mode": 1,
        "transpose_select": 1,
        "toggle_mode": 0
      },
      "pos": [
        62,
        1
      ]
    },
    {
      "id": 196,
      "plugin": "Bogaudio",
      "version": "1.1.25",
      "model": "Bogaudio-FMOp",
      "params": [
        {
          "id": 0,
          "value": 0.0
        },
        {
          "id": 1,
          "value": 0.0
        },
        {
          "id": 2,
          "value": 0.0
        },
        {
          "id": 3,
          "value": 0.276999921
        },
        {
          "id": 4,
          "value": 0.222000584
        },
        {
          "id": 5,
          "value": 0.307500213
        },
        {
          "id": 6,
          "value": 0.0
        },
        {
          "id": 7,
          "value": 0.187499881
        },
        {
          "id": 8,
          "value": 1.0
        },
        {
          "id": 9,
          "value": 1.0
        },
        {
          "id": 10,
          "value": 0.0
        },
        {
          "id": 11,
          "value": 0.0
        }
      ],
      "leftModuleId": 215,
      "rightModuleId": 197,
      "data": {
        "linearLevel": false
      },
      "pos": [
        73,
        1
      ]
    },
    {
      "id": 197,
      "plugin": "Bogaudio",
      "version": "1.1.25",
      "model": "Bogaudio-Stack",
      "params": [
        {
          "id": 0,
          "value": 0.0
        },
        {
          "id": 1,
          "value": 2.0
        },
        {
          "id": 2,
          "value": 0.0
        },
        {
          "id": 3,
          "value": 1.0
        }
      ],
      "leftModuleId": 196,
      "rightModuleId": 231,
      "pos": [
        83,
        1
      ]
    },
    {
      "id": 203,
      "plugin": "VultModulesFree",
      "version": "1.6.0",
      "model": "Slap",
      "params": [
        {
          "id": 0,
          "value": 0.466499954
        },
        {
          "id": 1,
          "value": 0.15350008
        },
        {
          "id": 2,
          "value": 0.815000415
        },
        {
          "id": 3,
          "value": 0.178999975
        },
        {
          "id": 4,
          "value": 0.0
        },
        {
          "id": 5,
          "value": 0.0
        },
        {
          "id": 6,
          "value": 0.0
        },
        {
          "id": 7,
          "value": 0.0
        },
        {
          "id": 8,
          "value": 0.0
        }
      ],
      "leftModuleId": 194,
      "rightModuleId": 234,
      "pos": [
        97,
        1
      ]
    },
    {
      "id": 209,
      "plugin": "Autodafe-DrumKit",
      "version": "1.0.0",
      "model": "DrumsHiHatOpen",
      "params": [
        {
          "id": 0,
          "value": 0.0
        }
      ],
      "leftModuleId": 211,
      "rightModuleId": 210,
      "data": {
        "sampletype": 4
      },
      "pos": [
        19,
        2
      ]
    },
    {
      "id": 210,
      "plugin": "Autodafe-DrumKit",
      "version": "1.0.0",
      "model": "DrumsHiHatClosed",
      "params": [
        {
          "id": 0,
          "value": 0.0
        }
      ],
      "leftModuleId": 209,
      "rightModuleId": 212,
      "data": {
        "sampletype": 4
      },
      "pos": [
        23,
        2
      ]
    },
    {
      "id": 211,
      "plugin": "Geodesics",
      "version": "1.1.0",
      "model": "Ions",
      "params": [
        {
          "id": 0,
          "value": 0.0
        },
        {
          "id": 1,
          "value": 0.0
        },
        {
          "id": 2,
          "value": 0.324395716
        },
        {
          "id": 3,
          "value": 0.569470048
        },
        {
          "id": 4,
          "value": 0.3846035
        },
        {
          "id": 5,
          "value": 0.841143608
        },
        {
          "id": 6,
          "value": 0.917740166
        },
        {
          "id": 7,
          "value": 0.702602506
        },
        {
          "id": 8,
          "value": 0.434432864
        },
        {
          "id": 9,
          "value": 0.271854401
        },
        {
          "id": 10,
          "value": 0.544601023
        },
        {
          "id": 11,
          "value": 0.0794993043
        },
        {
          "id": 12,
          "value": 0.534785092
        },
        {
          "id": 13,
          "value": 0.278753817
        },
        {
          "id": 14,
          "value": 0.308166504
        },
        {
          "id": 15,
          "value": 0.73647058
        },
        {
          "id": 16,
          "value": 0.62652427
        },
        {
          "id": 17,
          "value": 0.520499945
        },
        {
          "id": 18,
          "value": 0.0
        },
        {
          "id": 19,
          "value": 0.0
        },
        {
          "id": 20,
          "value": 0.0
        },
        {
          "id": 21,
          "value": 0.0
        },
        {
          "id": 22,
          "value": 0.0
        },
        {
          "id": 23,
          "value": 0.0
        },
        {
          "id": 24,
          "value": 0.0
        },
        {
          "id": 25,
          "value": 0.0
        },
        {
          "id": 26,
          "value": 0.0
        },
        {
          "id": 27,
          "value": 0.0
        }
      ],
      "rightModuleId": 209,
      "data": {
        "panelTheme": 1,
        "running": true,
        "resetOnRun": false,
        "quantize": 0,
        "uncertainty": false,
        "stepIndexes0": 7,
        "stepIndexes1": 12,
        "states0": 2,
        "states1": 2,
        "ranges0": 1,
        "ranges1": 1,
        "leap": false
      },
      "pos": [
        0,
        2
      ]
    },
    {
      "id": 212,
      "plugin": "Fundamental",
      "version": "1.4.0",
      "model": "Scope",
      "params": [
        {
          "id": 0,
          "value": 2.0
        },
        {
          "id": 1,
          "value": -0.179999858
        },
        {
          "id": 2,
          "value": 2.0
        },
        {
          "id": 3,
          "value": 1.22999978
        },
        {
          "id": 4,
          "value": 6.0
        },
        {
          "id": 5,
          "value": 0.0
        },
        {
          "id": 6,
          "value": 10.0
        },
        {
          "id": 7,
          "value": 0.0
        }
      ],
      "leftModuleId": 210,
      "rightModuleId": 229,
      "data": {
        "lissajous": 0,
        "external": 0
      },
      "pos": [
        27,
        2
      ]
    },
    {
      "id": 213,
      "plugin": "AudibleInstruments",
      "version": "1.0.0",
      "model": "Links",
      "params": [],
      "leftModuleId": 214,
      "rightModuleId": 173,
      "pos": [
        46,
        1
      ]
    },
    {
      "id": 214,
      "plugin": "VultModulesFree",
      "version": "1.6.0",
      "model": "Splie",
      "params": [],
      "leftModuleId": 192,
      "rightModuleId": 213,
      "pos": [
        43,
        1
      ]
    },
    {
      "id": 215,
      "plugin": "VultModulesFree",
      "version": "1.6.0",
      "model": "Splie",
      "params": [],
      "leftModuleId": 195,
      "rightModuleId": 196,
      "pos": [
        70,
        1
      ]
    },
    {
      "id": 217,
      "plugin": "Geodesics",
      "version": "1.1.0",
      "model": "Branes",
      "params": [
        {
          "id": 0,
          "value": 0.0
        },
        {
          "id": 1,
          "value": 0.0
        },
        {
          "id": 2,
          "value": 0.0
        },
        {
          "id": 3,
          "value": 0.0
        }
      ],
      "leftModuleId": 230,
      "rightModuleId": 219,
      "data": {
        "panelTheme": 1,
        "vibrations0": 0,
        "vibrations1": 3,
        "noiseRange0": 0.0,
        "noiseRange1": 0.0
      },
      "pos": [
        44,
        2
      ]
    },
    {
      "id": 219,
      "plugin": "VultModulesFree",
      "version": "1.6.0",
      "model": "Tangents",
      "params": [
        {
          "id": 0,
          "value": 0.698499918
        },
        {
          "id": 1,
          "value": 0.164999977
        },
        {
          "id": 2,
          "value": 0.675000131
        },
        {
          "id": 3,
          "value": -0.660000086
        },
        {
          "id": 4,
          "value": 0.600000024
        },
        {
          "id": 5,
          "value": 0.0360001139
        },
        {
          "id": 6,
          "value": 0.0
        }
      ],
      "leftModuleId": 217,
      "rightModuleId": 226,
      "pos": [
        55,
        2
      ]
    },
    {
      "id": 220,
      "plugin": "Fundamental",
      "version": "1.4.0",
      "model": "Scope",
      "params": [
        {
          "id": 0,
          "value": 0.0
        },
        {
          "id": 1,
          "value": 0.0600000024
        },
        {
          "id": 2,
          "value": 0.0
        },
        {
          "id": 3,
          "value": 0.0
        },
        {
          "id": 4,
          "value": 6.0
        },
        {
          "id": 5,
          "value": 0.0
        },
        {
          "id": 6,
          "value": 0.0
        },
        {
          "id": 7,
          "value": 0.0
        }
      ],
      "leftModuleId": 221,
      "data": {
        "lissajous": 0,
        "external": 0
      },
      "pos": [
        77,
        2
      ]
    },
    {
      "id": 221,
      "plugin": "VultModulesFree",
      "version": "1.6.0",
      "model": "Caudal",
      "params": [
        {
          "id": 0,
          "value": -0.143999204
        },
        {
          "id": 1,
          "value": 0.434999943
        },
        {
          "id": 2,
          "value": 0.0
        },
        {
          "id": 3,
          "value": 0.0
        },
        {
          "id": 4,
          "value": 0.0
        },
        {
          "id": 5,
          "value": 0.0
        },
        {
          "id": 6,
          "value": 0.0
        },
        {
          "id": 7,
          "value": 0.0
        },
        {
          "id": 8,
          "value": 0.0
        }
      ],
      "leftModuleId": 226,
      "rightModuleId": 220,
      "data": {
        "phi1": 4.51165438,
        "phi2": -0.784116328,
        "phi3": -1.13227355,
        "phi4": -2.70863032,
        "w1": -0.971697807,
        "w2": 0.249697313,
        "w3": 3.44703531,
        "w4": 3.89892673,
        "dx1": 0.40156123,
        "dy1": -3.36071277,
        "dx2": 7.76616907,
        "dy2": 6.51501894,
        "dx3": 4.10173893,
        "dy3": -8.76574516,
        "dx4": -5.56193638,
        "dy4": 5.20132923,
        "store_phi1": 4.51165438,
        "store_phi2": -0.784116328,
        "store_phi3": -1.13227355,
        "store_phi4": -2.70863032,
        "store_w1": -0.971697807,
        "store_w2": 0.249697313,
        "store_w3": 3.44703531,
        "store_w4": 3.89892673,
        "store_dx1": 0.40156123,
        "store_dy1": -3.36071277,
        "store_dx2": 7.76616907,
        "store_dy2": 6.51501894,
        "store_dx3": 4.10173893,
        "store_dy3": -8.76574516,
        "store_dx4": -5.56193638,
        "store_dy4": 5.20132923,
        "model": 1
      },
      "pos": [
        67,
        2
      ]
    },
    {
      "id": 222,
      "plugin": "VultModulesFree",
      "version": "1.6.0",
      "model": "Trummor2",
      "params": [
        {
          "id": 0,
          "value": 0.0583999492
        },
        {
          "id": 1,
          "value": 0.437000215
        },
        {
          "id": 2,
          "value": 0.0
        },
        {
          "id": 3,
          "value": 0.0
        },
        {
          "id": 4,
          "value": 0.153000087
        },
        {
          "id": 5,
          "value": 0.405999571
        },
        {
          "id": 6,
          "value": 0.169498816
        },
        {
          "id": 7,
          "value": 0.193999782
        },
        {
          "id": 8,
          "value": 0.494500071
        },
        {
          "id": 9,
          "value": 0.0
        },
        {
          "id": 10,
          "value": 0.0
        },
        {
          "id": 11,
          "value": 0.806500077
        },
        {
          "id": 12,
          "value": 0.100000001
        },
        {
          "id": 13,
          "value": 0.0
        },
        {
          "id": 14,
          "value": 0.0
        },
        {
          "id": 15,
          "value": 0.949999988
        },
        {
          "id": 16,
          "value": 0.0
        },
        {
          "id": 17,
          "value": 0.0
        },
        {
          "id": 18,
          "value": 0.0
        },
        {
          "id": 19,
          "value": 0.0500000007
        },
        {
          "id": 20,
          "value": 0.0500000007
        },
        {
          "id": 21,
          "value": 0.0
        },
        {
          "id": 22,
          "value": 0.0
        },
        {
          "id": 23,
          "value": 0.0
        },
        {
          "id": 24,
          "value": 0.0
        },
        {
          "id": 25,
          "value": 0.390000343
        },
        {
          "id": 26,
          "value": 1.0
        },
        {
          "id": 27,
          "value": 0.825000405
        },
        {
          "id": 28,
          "value": 0.0
        },
        {
          "id": 29,
          "value": 0.0
        },
        {
          "id": 30,
          "value": 0.0
        },
        {
          "id": 31,
          "value": 0.0
        },
        {
          "id": 32,
          "value": 0.0
        }
      ],
      "leftModuleId": 223,
      "data": {
        "mod_a": 1,
        "mod_b": 11,
        "mod_c": 8,
        "mod_d": 0,
        "mk2": true
      },
      "pos": [
        115,
        2
      ]
    },
    {
      "id": 223,
      "plugin": "Fundamental",
      "version": "1.4.0",
      "model": "SEQ3",
      "params": [
        {
          "id": 0,
          "value": 2.0
        },
        {
          "id": 1,
          "value": 0.0
        },
        {
          "id": 2,
          "value": 0.0
        },
        {
          "id": 3,
          "value": 8.0
        },
        {
          "id": 4,
          "value": 0.0
        },
        {
          "id": 5,
          "value": 1.94999957
        },
        {
          "id": 6,
          "value": 3.61499858
        },
        {
          "id": 7,
          "value": 4.90500021
        },
        {
          "id": 8,
          "value": 0.0
        },
        {
          "id": 9,
          "value": 1.93499959
        },
        {
          "id": 10,
          "value": 3.25499892
        },
        {
          "id": 11,
          "value": 4.89000082
        },
        {
          "id": 12,
          "value": 0.464999974
        },
        {
          "id": 13,
          "value": 1.40999925
        },
        {
          "id": 14,
          "value": 1.66499996
        },
        {
          "id": 15,
          "value": 0.0
        },
        {
          "id": 16,
          "value": 0.0
        },
        {
          "id": 17,
          "value": 1.07999945
        },
        {
          "id": 18,
          "value": 2.08499837
        },
        {
          "id": 19,
          "value": 0.0
        },
        {
          "id": 20,
          "value": 10.0
        },
        {
          "id": 21,
          "value": 0.0
        },
        {
          "id": 22,
          "value": 10.0
        },
        {
          "id": 23,
          "value": 0.0
        },
        {
          "id": 24,
          "value": 10.0
        },
        {
          "id": 25,
          "value": 0.0
        },
        {
          "id": 26,
          "value": 10.0
        },
        {
          "id": 27,
          "value": 0.0
        },
        {
          "id": 28,
          "value": 0.0
        },
        {
          "id": 29,
          "value": 0.0
        },
        {
          "id": 30,
          "value": 0.0
        },
        {
          "id": 31,
          "value": 0.0
        },
        {
          "id": 32,
          "value": 0.0
        },
        {
          "id": 33,
          "value": 0.0
        },
        {
          "id": 34,
          "value": 0.0
        },
        {
          "id": 35,
          "value": 0.0
        }
      ],
      "leftModuleId": 228,
      "rightModuleId": 222,
      "data": {
        "running": true,
        "gates": [
          1,
          1,
          1,
          0,
          1,
          1,
          1,
          0
        ]
      },
      "pos": [
        93,
        2
      ]
    },
    {
      "id": 224,
      "plugin": "StellareModular",
      "version": "1.0.0",
      "model": "BlankPanel",
      "params": [],
      "leftModuleId": 193,
      "rightModuleId": 192,
      "pos": [
        31,
        1
      ]
    },
    {
      "id": 226,
      "plugin": "AS",
      "version": "1.0.3",
      "model": "MonoVUmeter",
      "params": [],
      "leftModuleId": 219,
      "rightModuleId": 221,
      "pos": [
        65,
        2
      ]
    },
    {
      "id": 228,
      "plugin": "AS",
      "version": "1.0.3",
      "model": "MonoVUmeter",
      "params": [],
      "rightModuleId": 223,
      "pos": [
        91,
        2
      ]
    },
    {
      "id": 229,
      "plugin": "AS",
      "version": "1.0.3",
      "model": "MonoVUmeter",
      "params": [],
      "leftModuleId": 212,
      "rightModuleId": 230,
      "pos": [
        40,
        2
      ]
    },
    {
      "id": 230,
      "plugin": "AS",
      "version": "1.0.3",
      "model": "MonoVUmeter",
      "params": [],
      "leftModuleId": 229,
      "rightModuleId": 217,
      "pos": [
        42,
        2
      ]
    },
    {
      "id": 231,
      "plugin": "AS",
      "version": "1.0.3",
      "model": "MonoVUmeter",
      "params": [],
      "leftModuleId": 197,
      "rightModuleId": 233,
      "pos": [
        86,
        1
      ]
    },
    {
      "id": 232,
      "plugin": "AS",
      "version": "1.0.3",
      "model": "MonoVUmeter",
      "params": [],
      "leftModuleId": 173,
      "rightModuleId": 195,
      "pos": [
        60,
        1
      ]
    },
    {
      "id": 233,
      "plugin": "Bogaudio",
      "version": "1.1.25",
      "model": "Bogaudio-Slew",
      "params": [
        {
          "id": 0,
          "value": 0.563730121
        },
        {
          "id": 1,
          "value": 0.723000109
        },
        {
          "id": 2,
          "value": 0.205229998
        },
        {
          "id": 3,
          "value": 0.0
        }
      ],
      "leftModuleId": 231,
      "rightModuleId": 194,
      "pos": [
        88,
        1
      ]
    },
    {
      "id": 234,
      "plugin": "AS",
      "version": "1.0.3",
      "model": "MonoVUmeter",
      "params": [],
      "leftModuleId": 203,
      "pos": [
        107,
        1
      ]
    },
    {
      "id": 235,
      "plugin": "FrozenWasteland",
      "version": "1.10.0",
      "model": "BPMLFO",
      "params": [
        {
          "id": 0,
          "value": 1.0
        },
        {
          "id": 1,
          "value": 0.0
        },
        {
          "id": 2,
          "value": 13.0
        },
        {
          "id": 3,
          "value": 0.0
        },
        {
          "id": 4,
          "value": 0.0
        },
        {
          "id": 5,
          "value": 0.0
        },
        {
          "id": 6,
          "value": 0.0
        },
        {
          "id": 7,
          "value": 1.0
        },
        {
          "id": 8,
          "value": 1.0
        },
        {
          "id": 9,
          "value": 1.0
        }
      ],
      "leftModuleId": 236,
      "rightModuleId": 147,
      "pos": [
        8,
        0
      ]
    },
    {
      "id": 236,
      "plugin": "FrozenWasteland",
      "version": "1.10.0",
      "model": "BPMLFO",
      "params": [
        {
          "id": 0,
          "value": 1.0
        },
        {
          "id": 1,
          "value": 0.0
        },
        {
          "id": 2,
          "value": 11.0
        },
        {
          "id": 3,
          "value": 0.0
        },
        {
          "id": 4,
          "value": 0.0
        },
        {
          "id": 5,
          "value": 0.0
        },
        {
          "id": 6,
          "value": 0.0
        },
        {
          "id": 7,
          "value": 1.0
        },
        {
          "id": 8,
          "value": 1.0
        },
        {
          "id": 9,
          "value": 1.0
        }
      ],
      "rightModuleId": 235,
      "pos": [
        0,
        0
      ]
    }
  ],
  "cables": [
    {
      "id": 434,
      "outputModuleId": 164,
      "outputId": 0,
      "inputModuleId": 145,
      "inputId": 20,
      "color": "#0c8e15"
    },
    {
      "id": 435,
      "outputModuleId": 164,
      "outputId": 1,
      "inputModuleId": 145,
      "inputId": 44,
      "color": "#c91847"
    },
    {
      "id": 436,
      "outputModuleId": 145,
      "outputId": 10,
      "inputModuleId": 164,
      "inputId": 0,
      "color": "#0986ad"
    },
    {
      "id": 437,
      "outputModuleId": 145,
      "outputId": 14,
      "inputModuleId": 164,
      "inputId": 1,
      "color": "#c9b70e"
    },
    {
      "id": 438,
      "outputModuleId": 163,
      "outputId": 0,
      "inputModuleId": 145,
      "inputId": 21,
      "color": "#0c8e15"
    },
    {
      "id": 439,
      "outputModuleId": 163,
      "outputId": 1,
      "inputModuleId": 145,
      "inputId": 45,
      "color": "#c91847"
    },
    {
      "id": 440,
      "outputModuleId": 145,
      "outputId": 11,
      "inputModuleId": 163,
      "inputId": 5,
      "color": "#0986ad"
    },
    {
      "id": 441,
      "outputModuleId": 145,
      "outputId": 15,
      "inputModuleId": 163,
      "inputId": 6,
      "color": "#c9b70e"
    },
    {
      "id": 446,
      "outputModuleId": 190,
      "outputId": 14,
      "inputModuleId": 192,
      "inputId": 0,
      "color": "#0c8e15"
    },
    {
      "id": 448,
      "outputModuleId": 192,
      "outputId": 0,
      "inputModuleId": 173,
      "inputId": 4,
      "color": "#0c8e15"
    },
    {
      "id": 449,
      "outputModuleId": 192,
      "outputId": 2,
      "inputModuleId": 173,
      "inputId": 5,
      "color": "#c91847"
    },
    {
      "id": 451,
      "outputModuleId": 146,
      "outputId": 1,
      "inputModuleId": 190,
      "inputId": 0,
      "color": "#0c8e15"
    },
    {
      "id": 450,
      "outputModuleId": 190,
      "outputId": 14,
      "inputModuleId": 193,
      "inputId": 0,
      "color": "#c9b70e"
    },
    {
      "id": 458,
      "outputModuleId": 195,
      "outputId": 2,
      "inputModuleId": 196,
      "inputId": 5,
      "color": "#c91847"
    },
    {
      "id": 460,
      "outputModuleId": 197,
      "outputId": 1,
      "inputModuleId": 196,
      "inputId": 4,
      "color": "#c9b70e"
    },
    {
      "id": 456,
      "outputModuleId": 190,
      "outputId": 12,
      "inputModuleId": 195,
      "inputId": 0,
      "color": "#c9b70e"
    },
    {
      "id": 473,
      "outputModuleId": 146,
      "outputId": 1,
      "inputModuleId": 163,
      "inputId": 7,
      "color": "#c9b70e"
    },
    {
      "id": 490,
      "outputModuleId": 210,
      "outputId": 0,
      "inputModuleId": 212,
      "inputId": 1,
      "color": "#0986ad"
    },
    {
      "id": 491,
      "outputModuleId": 209,
      "outputId": 0,
      "inputModuleId": 212,
      "inputId": 0,
      "color": "#c9b70e"
    },
    {
      "id": 486,
      "outputModuleId": 211,
      "outputId": 1,
      "inputModuleId": 209,
      "inputId": 0,
      "color": "#0986ad"
    },
    {
      "id": 485,
      "outputModuleId": 192,
      "outputId": 2,
      "inputModuleId": 211,
      "inputId": 1,
      "color": "#c91847"
    },
    {
      "id": 492,
      "outputModuleId": 195,
      "outputId": 2,
      "inputModuleId": 211,
      "inputId": 2,
      "color": "#0c8e15"
    },
    {
      "id": 470,
      "outputModuleId": 147,
      "outputId": 1,
      "inputModuleId": 146,
      "inputId": 5,
      "color": "#0986ad"
    },
    {
      "id": 453,
      "outputModuleId": 192,
      "outputId": 0,
      "inputModuleId": 214,
      "inputId": 0,
      "color": "#c9b70e"
    },
    {
      "id": 495,
      "outputModuleId": 214,
      "outputId": 0,
      "inputModuleId": 173,
      "inputId": 0,
      "color": "#c9b70e"
    },
    {
      "id": 457,
      "outputModuleId": 195,
      "outputId": 0,
      "inputModuleId": 215,
      "inputId": 0,
      "color": "#0c8e15"
    },
    {
      "id": 497,
      "outputModuleId": 215,
      "outputId": 0,
      "inputModuleId": 197,
      "inputId": 1,
      "color": "#c91847"
    },
    {
      "id": 499,
      "outputModuleId": 215,
      "outputId": 2,
      "inputModuleId": 196,
      "inputId": 0,
      "color": "#c9b70e"
    },
    {
      "id": 513,
      "outputModuleId": 219,
      "outputId": 0,
      "inputModuleId": 145,
      "inputId": 5,
      "color": "#c9b70e"
    },
    {
      "id": 489,
      "outputModuleId": 210,
      "outputId": 0,
      "inputModuleId": 145,
      "inputId": 4,
      "color": "#c91847"
    },
    {
      "id": 447,
      "outputModuleId": 173,
      "outputId": 0,
      "inputModuleId": 145,
      "inputId": 0,
      "color": "#c91847"
    },
    {
      "id": 487,
      "outputModuleId": 209,
      "outputId": 0,
      "inputModuleId": 145,
      "inputId": 3,
      "color": "#c9b70e"
    },
    {
      "id": 459,
      "outputModuleId": 196,
      "outputId": 0,
      "inputModuleId": 145,
      "inputId": 1,
      "color": "#0986ad"
    },
    {
      "id": 432,
      "outputModuleId": 145,
      "outputId": 0,
      "inputModuleId": 7,
      "inputId": 0,
      "color": "#0986ad"
    },
    {
      "id": 433,
      "outputModuleId": 145,
      "outputId": 1,
      "inputModuleId": 7,
      "inputId": 1,
      "color": "#c9b70e"
    },
    {
      "id": 431,
      "outputModuleId": 145,
      "outputId": 0,
      "inputModuleId": 1,
      "inputId": 0,
      "color": "#c91847"
    },
    {
      "id": 409,
      "outputModuleId": 145,
      "outputId": 1,
      "inputModuleId": 1,
      "inputId": 1,
      "color": "#c9b70e"
    },
    {
      "id": 520,
      "outputModuleId": 222,
      "outputId": 0,
      "inputModuleId": 145,
      "inputId": 6,
      "color": "#0c8e15"
    },
    {
      "id": 521,
      "outputModuleId": 211,
      "outputId": 0,
      "inputModuleId": 210,
      "inputId": 0,
      "color": "#c91847"
    },
    {
      "id": 523,
      "outputModuleId": 146,
      "outputId": 2,
      "inputModuleId": 223,
      "inputId": 1,
      "color": "#c9b70e"
    },
    {
      "id": 522,
      "outputModuleId": 223,
      "outputId": 0,
      "inputModuleId": 222,
      "inputId": 0,
      "color": "#0986ad"
    },
    {
      "id": 512,
      "outputModuleId": 217,
      "outputId": 9,
      "inputModuleId": 219,
      "inputId": 0,
      "color": "#0986ad"
    },
    {
      "id": 496,
      "outputModuleId": 214,
      "outputId": 1,
      "inputModuleId": 173,
      "inputId": 1,
      "color": "#0c8e15"
    },
    {
      "id": 515,
      "outputModuleId": 221,
      "outputId": 3,
      "inputModuleId": 219,
      "inputId": 4,
      "color": "#c9b70e"
    },
    {
      "id": 525,
      "outputModuleId": 223,
      "outputId": 1,
      "inputModuleId": 222,
      "inputId": 5,
      "color": "#0986ad"
    },
    {
      "id": 528,
      "outputModuleId": 221,
      "outputId": 3,
      "inputModuleId": 219,
      "inputId": 1,
      "color": "#0c8e15"
    },
    {
      "id": 529,
      "outputModuleId": 146,
      "outputId": 4,
      "inputModuleId": 190,
      "inputId": 1,
      "color": "#c91847"
    },
    {
      "id": 530,
      "outputModuleId": 146,
      "outputId": 4,
      "inputModuleId": 211,
      "inputId": 4,
      "color": "#0986ad"
    },
    {
      "id": 531,
      "outputModuleId": 146,
      "outputId": 5,
      "inputModuleId": 211,
      "inputId": 3,
      "color": "#c9b70e"
    },
    {
      "id": 514,
      "outputModuleId": 221,
      "outputId": 0,
      "inputModuleId": 219,
      "inputId": 3,
      "color": "#0986ad"
    },
    {
      "id": 517,
      "outputModuleId": 221,
      "outputId": 0,
      "inputModuleId": 220,
      "inputId": 0,
      "color": "#c91847"
    },
    {
      "id": 534,
      "outputModuleId": 221,
      "outputId": 3,
      "inputModuleId": 220,
      "inputId": 1,
      "color": "#0c8e15"
    },
    {
      "id": 526,
      "outputModuleId": 223,
      "outputId": 2,
      "inputModuleId": 222,
      "inputId": 3,
      "color": "#c9b70e"
    },
    {
      "id": 536,
      "outputModuleId": 223,
      "outputId": 3,
      "inputModuleId": 222,
      "inputId": 4,
      "color": "#c9b70e"
    },
    {
      "id": 537,
      "outputModuleId": 209,
      "outputId": 0,
      "inputModuleId": 229,
      "inputId": 0,
      "color": "#0c8e15"
    },
    {
      "id": 538,
      "outputModuleId": 210,
      "outputId": 0,
      "inputModuleId": 230,
      "inputId": 0,
      "color": "#c91847"
    },
    {
      "id": 539,
      "outputModuleId": 196,
      "outputId": 0,
      "inputModuleId": 231,
      "inputId": 0,
      "color": "#0986ad"
    },
    {
      "id": 540,
      "outputModuleId": 173,
      "outputId": 0,
      "inputModuleId": 232,
      "inputId": 0,
      "color": "#c9b70e"
    },
    {
      "id": 478,
      "outputModuleId": 203,
      "outputId": 0,
      "inputModuleId": 145,
      "inputId": 2,
      "color": "#c91847"
    },
    {
      "id": 541,
      "outputModuleId": 194,
      "outputId": 0,
      "inputModuleId": 203,
      "inputId": 5,
      "color": "#0c8e15"
    },
    {
      "id": 494,
      "outputModuleId": 214,
      "outputId": 2,
      "inputModuleId": 233,
      "inputId": 2,
      "color": "#0986ad"
    },
    {
      "id": 543,
      "outputModuleId": 233,
      "outputId": 0,
      "inputModuleId": 194,
      "inputId": 0,
      "color": "#0986ad"
    },
    {
      "id": 542,
      "outputModuleId": 146,
      "outputId": 2,
      "inputModuleId": 203,
      "inputId": 0,
      "color": "#c91847"
    },
    {
      "id": 544,
      "outputModuleId": 203,
      "outputId": 0,
      "inputModuleId": 234,
      "inputId": 0,
      "color": "#c9b70e"
    },
    {
      "id": 545,
      "outputModuleId": 146,
      "outputId": 0,
      "inputModuleId": 235,
      "inputId": 0,
      "color": "#0c8e15"
    },
    {
      "id": 546,
      "outputModuleId": 146,
      "outputId": 4,
      "inputModuleId": 235,
      "inputId": 4,
      "color": "#c91847"
    },
    {
      "id": 547,
      "outputModuleId": 235,
      "outputId": 0,
      "inputModuleId": 196,
      "inputId": 2,
      "color": "#0986ad"
    },
    {
      "id": 548,
      "outputModuleId": 235,
      "outputId": 0,
      "inputModuleId": 145,
      "inputId": 69,
      "color": "#c9b70e"
    },
    {
      "id": 549,
      "outputModuleId": 146,
      "outputId": 0,
      "inputModuleId": 236,
      "inputId": 0,
      "color": "#0c8e15"
    },
    {
      "id": 550,
      "outputModuleId": 146,
      "outputId": 4,
      "inputModuleId": 236,
      "inputId": 4,
      "color": "#c91847"
    },
    {
      "id": 551,
      "outputModuleId": 236,
      "outputId": 0,
      "inputModuleId": 173,
      "inputId": 2,
      "color": "#0986ad"
    },
    {
      "id": 535,
      "outputModuleId": 222,
      "outputId": 0,
      "inputModuleId": 228,
      "inputId": 0,
      "color": "#0986ad"
    },
    {
      "id": 533,
      "outputModuleId": 219,
      "outputId": 0,
      "inputModuleId": 226,
      "inputId": 0,
      "color": "#0986ad"
    },
    {
      "id": 552,
      "outputModuleId": 236,
      "outputId": 0,
      "inputModuleId": 194,
      "inputId": 1,
      "color": "#c9b70e"
    },
    {
      "id": 555,
      "outputModuleId": 190,
      "outputId": 12,
      "inputModuleId": 193,
      "inputId": 1,
      "color": "#0986ad"
    },
    {
      "id": 556,
      "outputModuleId": 146,
      "outputId": 2,
      "inputModuleId": 211,
      "inputId": 0,
      "color": "#0986ad"
    }
  ]
}