{
  "version": "1.1.6",
  "modules": [
    {
      "id": 1,
      "plugin": "Core",
      "version": "1.1.6",
      "model": "AudioInterface",
      "params": [],
      "leftModuleId": 7,
      "data": {
        "audio": {
          "driver": 8,
          "deviceName": "Headphones Realtek HD Audio (Realtek(R) Audio)",
          "offset": 0,
          "maxChannels": 8,
          "sampleRate": 44100,
          "blockSize": 256
        }
      },
      "pos": [
        115,
        0
      ]
    },
    {
      "id": 7,
      "plugin": "Fundamental",
      "version": "1.4.0",
      "model": "Scope",
      "params": [
        {
          "id": 0,
          "value": 1.0
        },
        {
          "id": 1,
          "value": -2.13000011
        },
        {
          "id": 2,
          "value": 1.0
        },
        {
          "id": 3,
          "value": 1.22999978
        },
        {
          "id": 4,
          "value": 14.0
        },
        {
          "id": 5,
          "value": 0.0
        },
        {
          "id": 6,
          "value": 0.200000674
        },
        {
          "id": 7,
          "value": 0.0
        }
      ],
      "leftModuleId": 163,
      "rightModuleId": 1,
      "data": {
        "lissajous": 0,
        "external": 0
      },
      "pos": [
        102,
        0
      ]
    },
    {
      "id": 145,
      "plugin": "mscHack",
      "version": "1.0.2",
      "model": "Mix_16_4_4",
      "params": [
        {
          "id": 0,
          "value": 0.0
        },
        {
          "id": 1,
          "value": 0.317999959
        },
        {
          "id": 2,
          "value": 0.194999918
        },
        {
          "id": 3,
          "value": 0.563999891
        },
        {
          "id": 4,
          "value": 0.498000145
        },
        {
          "id": 5,
          "value": 0.479999989
        },
        {
          "id": 6,
          "value": 0.192000091
        },
        {
          "id": 7,
          "value": 0.927000344
        },
        {
          "id": 8,
          "value": 0.0
        },
        {
          "id": 9,
          "value": 0.0
        },
        {
          "id": 10,
          "value": 0.0
        },
        {
          "id": 11,
          "value": 0.0
        },
        {
          "id": 12,
          "value": 0.0
        },
        {
          "id": 13,
          "value": 0.0
        },
        {
          "id": 14,
          "value": 0.0
        },
        {
          "id": 15,
          "value": 0.0
        },
        {
          "id": 16,
          "value": 0.0
        },
        {
          "id": 17,
          "value": 0.0
        },
        {
          "id": 18,
          "value": 0.0
        },
        {
          "id": 19,
          "value": 0.0
        },
        {
          "id": 20,
          "value": 0.0
        },
        {
          "id": 21,
          "value": 0.700000346
        },
        {
          "id": 22,
          "value": 0.705999792
        },
        {
          "id": 23,
          "value": 0.0
        },
        {
          "id": 24,
          "value": 0.0
        },
        {
          "id": 25,
          "value": 0.0
        },
        {
          "id": 26,
          "value": 0.0
        },
        {
          "id": 27,
          "value": 0.0
        },
        {
          "id": 28,
          "value": 0.0
        },
        {
          "id": 29,
          "value": 0.0
        },
        {
          "id": 30,
          "value": 0.0
        },
        {
          "id": 31,
          "value": 0.0
        },
        {
          "id": 32,
          "value": 0.0
        },
        {
          "id": 33,
          "value": 0.0
        },
        {
          "id": 34,
          "value": 0.0
        },
        {
          "id": 35,
          "value": 0.0
        },
        {
          "id": 36,
          "value": 0.0
        },
        {
          "id": 37,
          "value": 0.0
        },
        {
          "id": 38,
          "value": 0.0
        },
        {
          "id": 39,
          "value": 0.0
        },
        {
          "id": 40,
          "value": 0.0
        },
        {
          "id": 41,
          "value": 0.0
        },
        {
          "id": 42,
          "value": 0.0
        },
        {
          "id": 43,
          "value": 0.0
        },
        {
          "id": 44,
          "value": 0.0
        },
        {
          "id": 45,
          "value": 0.0
        },
        {
          "id": 46,
          "value": 0.0
        },
        {
          "id": 47,
          "value": 0.0
        },
        {
          "id": 48,
          "value": 0.0
        },
        {
          "id": 49,
          "value": 0.497500002
        },
        {
          "id": 50,
          "value": 0.5
        },
        {
          "id": 51,
          "value": 0.5
        },
        {
          "id": 52,
          "value": 0.5
        },
        {
          "id": 53,
          "value": 0.5
        },
        {
          "id": 54,
          "value": 0.201499984
        },
        {
          "id": 55,
          "value": 0.5
        },
        {
          "id": 56,
          "value": 0.5
        },
        {
          "id": 57,
          "value": 0.5
        },
        {
          "id": 58,
          "value": 0.5
        },
        {
          "id": 59,
          "value": 0.5
        },
        {
          "id": 60,
          "value": 0.5
        },
        {
          "id": 61,
          "value": 0.5
        },
        {
          "id": 62,
          "value": 0.5
        },
        {
          "id": 63,
          "value": 0.5
        },
        {
          "id": 64,
          "value": 0.5
        },
        {
          "id": 65,
          "value": 0.5
        },
        {
          "id": 66,
          "value": 0.5
        },
        {
          "id": 67,
          "value": 0.5
        },
        {
          "id": 68,
          "value": 0.5
        },
        {
          "id": 69,
          "value": 0.5
        },
        {
          "id": 70,
          "value": 0.5
        },
        {
          "id": 71,
          "value": 0.5
        },
        {
          "id": 72,
          "value": 0.5
        },
        {
          "id": 73,
          "value": 0.493499994
        },
        {
          "id": 74,
          "value": 0.5
        },
        {
          "id": 75,
          "value": 0.5
        },
        {
          "id": 76,
          "value": 0.5
        },
        {
          "id": 77,
          "value": 0.5
        },
        {
          "id": 78,
          "value": 0.5
        },
        {
          "id": 79,
          "value": 0.5
        },
        {
          "id": 80,
          "value": 0.5
        },
        {
          "id": 81,
          "value": 0.5
        },
        {
          "id": 82,
          "value": 0.5
        },
        {
          "id": 83,
          "value": 0.5
        },
        {
          "id": 84,
          "value": 0.5
        },
        {
          "id": 85,
          "value": 0.5
        },
        {
          "id": 86,
          "value": 0.5
        },
        {
          "id": 87,
          "value": 0.5
        },
        {
          "id": 88,
          "value": 0.5
        },
        {
          "id": 89,
          "value": 0.5
        },
        {
          "id": 90,
          "value": 0.5
        },
        {
          "id": 91,
          "value": 0.5
        },
        {
          "id": 92,
          "value": 0.5
        },
        {
          "id": 93,
          "value": 0.5
        },
        {
          "id": 94,
          "value": 0.5
        },
        {
          "id": 95,
          "value": 0.5
        },
        {
          "id": 96,
          "value": 0.5
        },
        {
          "id": 97,
          "value": 0.497500002
        },
        {
          "id": 98,
          "value": 0.5
        },
        {
          "id": 99,
          "value": 0.5
        },
        {
          "id": 100,
          "value": 0.5
        },
        {
          "id": 101,
          "value": 0.5
        },
        {
          "id": 102,
          "value": 0.801499784
        },
        {
          "id": 103,
          "value": 0.5
        },
        {
          "id": 104,
          "value": 0.5
        },
        {
          "id": 105,
          "value": 0.5
        },
        {
          "id": 106,
          "value": 0.5
        },
        {
          "id": 107,
          "value": 0.5
        },
        {
          "id": 108,
          "value": 0.5
        },
        {
          "id": 109,
          "value": 0.5
        },
        {
          "id": 110,
          "value": 0.5
        },
        {
          "id": 111,
          "value": 0.5
        },
        {
          "id": 112,
          "value": 0.5
        },
        {
          "id": 113,
          "value": 0.5
        },
        {
          "id": 114,
          "value": 0.5
        },
        {
          "id": 115,
          "value": 0.5
        },
        {
          "id": 116,
          "value": 0.5
        },
        {
          "id": 117,
          "value": 0.5
        },
        {
          "id": 118,
          "value": 0.5
        },
        {
          "id": 119,
          "value": 0.5
        },
        {
          "id": 120,
          "value": 0.5
        },
        {
          "id": 121,
          "value": 0.188999817
        },
        {
          "id": 122,
          "value": 0.200999632
        },
        {
          "id": 123,
          "value": 0.0
        },
        {
          "id": 124,
          "value": 0.0
        },
        {
          "id": 125,
          "value": 0.209499836
        },
        {
          "id": 126,
          "value": 0.520500124
        },
        {
          "id": 127,
          "value": 0.0
        },
        {
          "id": 128,
          "value": 0.0
        },
        {
          "id": 129,
          "value": 0.202500001
        },
        {
          "id": 130,
          "value": 0.224999979
        },
        {
          "id": 131,
          "value": 0.0
        },
        {
          "id": 132,
          "value": 0.0
        },
        {
          "id": 133,
          "value": 0.520500183
        },
        {
          "id": 134,
          "value": 0.223500043
        },
        {
          "id": 135,
          "value": 0.0
        },
        {
          "id": 136,
          "value": 0.0
        },
        {
          "id": 137,
          "value": 0.457500219
        },
        {
          "id": 138,
          "value": 0.220499977
        },
        {
          "id": 139,
          "value": 0.0
        },
        {
          "id": 140,
          "value": 0.0
        },
        {
          "id": 141,
          "value": 0.51000011
        },
        {
          "id": 142,
          "value": 0.51000005
        },
        {
          "id": 143,
          "value": 0.0
        },
        {
          "id": 144,
          "value": 0.0
        },
        {
          "id": 145,
          "value": 0.0329999588
        },
        {
          "id": 146,
          "value": 0.489000082
        },
        {
          "id": 147,
          "value": 0.0
        },
        {
          "id": 148,
          "value": 0.0
        },
        {
          "id": 149,
          "value": 0.0
        },
        {
          "id": 150,
          "value": 0.0
        },
        {
          "id": 151,
          "value": 0.0
        },
        {
          "id": 152,
          "value": 0.0
        },
        {
          "id": 153,
          "value": 0.0
        },
        {
          "id": 154,
          "value": 0.0
        },
        {
          "id": 155,
          "value": 0.0
        },
        {
          "id": 156,
          "value": 0.0
        },
        {
          "id": 157,
          "value": 0.0
        },
        {
          "id": 158,
          "value": 0.0
        },
        {
          "id": 159,
          "value": 0.0
        },
        {
          "id": 160,
          "value": 0.0
        },
        {
          "id": 161,
          "value": 0.0
        },
        {
          "id": 162,
          "value": 0.0
        },
        {
          "id": 163,
          "value": 0.0
        },
        {
          "id": 164,
          "value": 0.0
        },
        {
          "id": 165,
          "value": 0.0
        },
        {
          "id": 166,
          "value": 0.0
        },
        {
          "id": 167,
          "value": 0.0
        },
        {
          "id": 168,
          "value": 0.0
        },
        {
          "id": 169,
          "value": 0.0
        },
        {
          "id": 170,
          "value": 0.0
        },
        {
          "id": 171,
          "value": 0.0
        },
        {
          "id": 172,
          "value": 0.0
        },
        {
          "id": 173,
          "value": 0.0
        },
        {
          "id": 174,
          "value": 0.0
        },
        {
          "id": 175,
          "value": 0.0
        },
        {
          "id": 176,
          "value": 0.0
        },
        {
          "id": 177,
          "value": 0.0
        },
        {
          "id": 178,
          "value": 0.0
        },
        {
          "id": 179,
          "value": 0.0
        },
        {
          "id": 180,
          "value": 0.0
        },
        {
          "id": 181,
          "value": 0.0
        },
        {
          "id": 182,
          "value": 0.0
        },
        {
          "id": 183,
          "value": 0.0
        },
        {
          "id": 184,
          "value": 0.0
        },
        {
          "id": 185,
          "value": 0.0
        },
        {
          "id": 186,
          "value": 0.0
        },
        {
          "id": 187,
          "value": 0.0
        },
        {
          "id": 188,
          "value": 0.0
        },
        {
          "id": 189,
          "value": 0.0
        },
        {
          "id": 190,
          "value": 0.0
        },
        {
          "id": 191,
          "value": 0.0
        },
        {
          "id": 192,
          "value": 0.0
        },
        {
          "id": 193,
          "value": 0.0
        },
        {
          "id": 194,
          "value": 0.0
        },
        {
          "id": 195,
          "value": 0.0
        },
        {
          "id": 196,
          "value": 0.0
        },
        {
          "id": 197,
          "value": 0.0
        },
        {
          "id": 198,
          "value": 0.0
        },
        {
          "id": 199,
          "value": 0.0
        },
        {
          "id": 200,
          "value": 0.0
        },
        {
          "id": 201,
          "value": 1.0
        },
        {
          "id": 202,
          "value": 1.0
        },
        {
          "id": 203,
          "value": 0.0
        },
        {
          "id": 204,
          "value": 0.0
        }
      ],
      "rightModuleId": 164,
      "data": {
        "m_bMuteStates": [
          false,
          false,
          false,
          false,
          false,
          false,
          false,
          false,
          false,
          false,
          false,
          false,
          false,
          false,
          false,
          false,
          false,
          false,
          false,
          false,
          false,
          false,
          false,
          false
        ],
        "m_bSoloStates": [
          false,
          false,
          false,
          false,
          false,
          false,
          false,
          false,
          false,
          false,
          false,
          false,
          false,
          false,
          false,
          false,
          false,
          false,
          false,
          false,
          false,
          false,
          false,
          false
        ],
        "m_iRouteGroup": [
          4,
          4,
          4,
          4,
          4,
          4,
          4,
          4,
          4,
          4,
          4,
          4,
          4,
          4,
          4,
          4
        ],
        "m_bGroupPreMute": [
          true
        ],
        "m_bGainLevelx2": [
          false
        ],
        "m_bPreFader": [
          false,
          false,
          false,
          false,
          false,
          false,
          false,
          false,
          false,
          false,
          false,
          false,
          false,
          false,
          false,
          false,
          false,
          false,
          false,
          false
        ],
        "m_bAuxIgnoreSolo": [
          false
        ]
      },
      "pos": [
        33,
        0
      ]
    },
    {
      "id": 146,
      "plugin": "ImpromptuModular",
      "version": "1.1.3",
      "model": "Clocked",
      "params": [
        {
          "id": 0,
          "value": 48.0
        },
        {
          "id": 1,
          "value": 5.0
        },
        {
          "id": 2,
          "value": -0.0
        },
        {
          "id": 3,
          "value": -4.0
        },
        {
          "id": 4,
          "value": 0.0
        },
        {
          "id": 5,
          "value": 0.0
        },
        {
          "id": 6,
          "value": 0.0
        },
        {
          "id": 7,
          "value": 0.0
        },
        {
          "id": 8,
          "value": 0.5
        },
        {
          "id": 9,
          "value": 0.5
        },
        {
          "id": 10,
          "value": 0.5
        },
        {
          "id": 11,
          "value": 0.5
        },
        {
          "id": 12,
          "value": 0.0
        },
        {
          "id": 13,
          "value": 0.0
        },
        {
          "id": 14,
          "value": 0.0
        },
        {
          "id": 15,
          "value": 0.0
        },
        {
          "id": 16,
          "value": 0.0
        },
        {
          "id": 17,
          "value": 0.0
        },
        {
          "id": 18,
          "value": 0.0
        },
        {
          "id": 19,
          "value": 0.0
        }
      ],
      "leftModuleId": 147,
      "data": {
        "panelTheme": 0,
        "running": false,
        "displayDelayNoteMode": true,
        "bpmDetectionMode": false,
        "restartOnStopStartRun": 0,
        "sendResetOnRestart": false,
        "ppqn": 4,
        "resetClockOutputsHigh": true,
        "momentaryRunInput": true
      },
      "pos": [
        12,
        0
      ]
    },
    {
      "id": 147,
      "plugin": "RJModules",
      "version": "1.5.0",
      "model": "Button",
      "params": [
        {
          "id": 0,
          "value": 0.0
        }
      ],
      "rightModuleId": 146,
      "pos": [
        2,
        0
      ]
    },
    {
      "id": 163,
      "plugin": "AlrightDevices",
      "version": "1.0.2",
      "model": "Chronoblob2",
      "params": [
        {
          "id": 0,
          "value": 0.764500201
        },
        {
          "id": 1,
          "value": 0.297499865
        },
        {
          "id": 2,
          "value": 0.799929261
        },
        {
          "id": 3,
          "value": 0.0
        },
        {
          "id": 4,
          "value": 0.0
        },
        {
          "id": 5,
          "value": 0.0
        },
        {
          "id": 6,
          "value": 0.0
        },
        {
          "id": 7,
          "value": 0.0
        },
        {
          "id": 8,
          "value": 0.0
        },
        {
          "id": 9,
          "value": 0.0
        }
      ],
      "leftModuleId": 164,
      "rightModuleId": 7,
      "data": {
        "delay_mode": 3,
        "hold_behavior": 0,
        "sync_prescaler": 6
      },
      "pos": [
        90,
        0
      ]
    },
    {
      "id": 164,
      "plugin": "Valley",
      "version": "1.0.1",
      "model": "Plateau",
      "params": [
        {
          "id": 0,
          "value": 0.0
        },
        {
          "id": 1,
          "value": 1.0
        },
        {
          "id": 2,
          "value": 0.0712501407
        },
        {
          "id": 3,
          "value": 10.0
        },
        {
          "id": 4,
          "value": 8.57499504
        },
        {
          "id": 5,
          "value": 0.512002766
        },
        {
          "id": 6,
          "value": 10.0
        },
        {
          "id": 7,
          "value": 0.547700524
        },
        {
          "id": 8,
          "value": 10.0
        },
        {
          "id": 9,
          "value": 6.83500051
        },
        {
          "id": 10,
          "value": 0.0
        },
        {
          "id": 11,
          "value": 0.485499799
        },
        {
          "id": 12,
          "value": 6.59600449
        },
        {
          "id": 13,
          "value": 0.0
        },
        {
          "id": 14,
          "value": 0.0
        },
        {
          "id": 15,
          "value": 0.0
        },
        {
          "id": 16,
          "value": 0.0
        },
        {
          "id": 17,
          "value": 0.0
        },
        {
          "id": 18,
          "value": 0.0
        },
        {
          "id": 19,
          "value": 0.0
        },
        {
          "id": 20,
          "value": 0.0
        },
        {
          "id": 21,
          "value": 0.0150001133
        },
        {
          "id": 22,
          "value": -0.0239999462
        },
        {
          "id": 23,
          "value": 0.0
        },
        {
          "id": 24,
          "value": 0.0
        },
        {
          "id": 25,
          "value": 0.0
        },
        {
          "id": 26,
          "value": 0.0
        },
        {
          "id": 27,
          "value": 0.0
        },
        {
          "id": 28,
          "value": 0.0
        },
        {
          "id": 29,
          "value": 0.0
        },
        {
          "id": 30,
          "value": 1.0
        }
      ],
      "leftModuleId": 145,
      "rightModuleId": 163,
      "data": {
        "frozen": false,
        "freezeToggle": false,
        "panelStyle": 0,
        "tuned": 0,
        "diffuseInput": 1,
        "preDelayCVSens": 0,
        "inputSensitivity": 0,
        "outputSaturation": 0
      },
      "pos": [
        78,
        0
      ]
    },
    {
      "id": 173,
      "plugin": "Bogaudio",
      "version": "1.1.25",
      "model": "Bogaudio-FMOp",
      "params": [
        {
          "id": 0,
          "value": 0.0
        },
        {
          "id": 1,
          "value": 0.0
        },
        {
          "id": 2,
          "value": 0.313499868
        },
        {
          "id": 3,
          "value": 0.185499832
        },
        {
          "id": 4,
          "value": 0.2340004
        },
        {
          "id": 5,
          "value": 0.307500213
        },
        {
          "id": 6,
          "value": 0.0
        },
        {
          "id": 7,
          "value": 0.123000346
        },
        {
          "id": 8,
          "value": 1.0
        },
        {
          "id": 9,
          "value": 1.0
        },
        {
          "id": 10,
          "value": 0.0
        },
        {
          "id": 11,
          "value": 0.0
        }
      ],
      "leftModuleId": 213,
      "rightModuleId": 198,
      "data": {
        "linearLevel": false
      },
      "pos": [
        55,
        1
      ]
    },
    {
      "id": 190,
      "plugin": "StellareModular",
      "version": "1.0.0",
      "model": "TuringMachine",
      "params": [
        {
          "id": 0,
          "value": 0.203999981
        },
        {
          "id": 1,
          "value": 0.0
        },
        {
          "id": 2,
          "value": 0.367500037
        },
        {
          "id": 3,
          "value": 0.0584999509
        },
        {
          "id": 4,
          "value": 0.22800003
        },
        {
          "id": 5,
          "value": 0.0170000605
        },
        {
          "id": 6,
          "value": 7.0
        },
        {
          "id": 7,
          "value": 0.166499928
        },
        {
          "id": 8,
          "value": 0.0
        },
        {
          "id": 9,
          "value": 0.0
        },
        {
          "id": 10,
          "value": 0.0
        },
        {
          "id": 11,
          "value": 0.0
        },
        {
          "id": 12,
          "value": 0.0
        }
      ],
      "leftModuleId": 193,
      "rightModuleId": 191,
      "data": {
        "pulses_mode": 0
      },
      "pos": [
        13,
        1
      ]
    },
    {
      "id": 191,
      "plugin": "ML_modules",
      "version": "1.0.5",
      "model": "VoltMeter",
      "params": [],
      "leftModuleId": 190,
      "rightModuleId": 192,
      "pos": [
        31,
        1
      ]
    },
    {
      "id": 192,
      "plugin": "ML_modules",
      "version": "1.0.5",
      "model": "Quantum",
      "params": [
        {
          "id": 0,
          "value": 0.0
        },
        {
          "id": 1,
          "value": 0.0
        },
        {
          "id": 2,
          "value": 0.0
        },
        {
          "id": 3,
          "value": 0.0
        },
        {
          "id": 4,
          "value": 0.0
        },
        {
          "id": 5,
          "value": 0.0
        },
        {
          "id": 6,
          "value": 0.0
        },
        {
          "id": 7,
          "value": 0.0
        },
        {
          "id": 8,
          "value": 0.0
        },
        {
          "id": 9,
          "value": 0.0
        },
        {
          "id": 10,
          "value": 0.0
        },
        {
          "id": 11,
          "value": 0.0
        }
      ],
      "leftModuleId": 191,
      "rightModuleId": 214,
      "data": {
        "scale": [
          0,
          0,
          1,
          0,
          1,
          0,
          0,
          1,
          0,
          0,
          0,
          0
        ],
        "mode": 1,
        "transpose_select": 1,
        "toggle_mode": 0
      },
      "pos": [
        39,
        1
      ]
    },
    {
      "id": 193,
      "plugin": "Fundamental",
      "version": "1.4.0",
      "model": "Scope",
      "params": [
        {
          "id": 0,
          "value": 1.0
        },
        {
          "id": 1,
          "value": -0.179999858
        },
        {
          "id": 2,
          "value": 2.0
        },
        {
          "id": 3,
          "value": 1.22999978
        },
        {
          "id": 4,
          "value": 6.0
        },
        {
          "id": 5,
          "value": 0.0
        },
        {
          "id": 6,
          "value": 10.0
        },
        {
          "id": 7,
          "value": 0.0
        }
      ],
      "rightModuleId": 190,
      "data": {
        "lissajous": 0,
        "external": 0
      },
      "pos": [
        0,
        1
      ]
    },
    {
      "id": 194,
      "plugin": "VultModulesFree",
      "version": "1.6.0",
      "model": "Basal",
      "params": [
        {
          "id": 0,
          "value": 0.0
        },
        {
          "id": 1,
          "value": -0.792999268
        },
        {
          "id": 2,
          "value": 0.156000033
        },
        {
          "id": 3,
          "value": 0.0
        },
        {
          "id": 4,
          "value": 0.0584999882
        },
        {
          "id": 5,
          "value": 0.0
        }
      ],
      "leftModuleId": 199,
      "rightModuleId": 203,
      "pos": [
        95,
        1
      ]
    },
    {
      "id": 195,
      "plugin": "ML_modules",
      "version": "1.0.5",
      "model": "Quantum",
      "params": [
        {
          "id": 0,
          "value": 0.0
        },
        {
          "id": 1,
          "value": 0.0
        },
        {
          "id": 2,
          "value": 0.0
        },
        {
          "id": 3,
          "value": 0.0
        },
        {
          "id": 4,
          "value": 0.0
        },
        {
          "id": 5,
          "value": 0.0
        },
        {
          "id": 6,
          "value": 0.0
        },
        {
          "id": 7,
          "value": 0.0
        },
        {
          "id": 8,
          "value": 0.0
        },
        {
          "id": 9,
          "value": 0.0
        },
        {
          "id": 10,
          "value": 0.0
        },
        {
          "id": 11,
          "value": 0.0
        }
      ],
      "leftModuleId": 198,
      "rightModuleId": 215,
      "data": {
        "scale": [
          0,
          0,
          0,
          0,
          0,
          0,
          1,
          0,
          0,
          1,
          0,
          1
        ],
        "mode": 1,
        "transpose_select": 1,
        "toggle_mode": 0
      },
      "pos": [
        68,
        1
      ]
    },
    {
      "id": 196,
      "plugin": "Bogaudio",
      "version": "1.1.25",
      "model": "Bogaudio-FMOp",
      "params": [
        {
          "id": 0,
          "value": 0.0
        },
        {
          "id": 1,
          "value": 0.0
        },
        {
          "id": 2,
          "value": 0.0
        },
        {
          "id": 3,
          "value": 0.276999921
        },
        {
          "id": 4,
          "value": 0.222000584
        },
        {
          "id": 5,
          "value": 0.307500213
        },
        {
          "id": 6,
          "value": 0.0
        },
        {
          "id": 7,
          "value": 0.0764998421
        },
        {
          "id": 8,
          "value": 1.0
        },
        {
          "id": 9,
          "value": 1.0
        },
        {
          "id": 10,
          "value": 0.0
        },
        {
          "id": 11,
          "value": 0.0
        }
      ],
      "leftModuleId": 215,
      "rightModuleId": 197,
      "data": {
        "linearLevel": false
      },
      "pos": [
        79,
        1
      ]
    },
    {
      "id": 197,
      "plugin": "Bogaudio",
      "version": "1.1.25",
      "model": "Bogaudio-Stack",
      "params": [
        {
          "id": 0,
          "value": 0.0
        },
        {
          "id": 1,
          "value": 2.0
        },
        {
          "id": 2,
          "value": 0.0
        },
        {
          "id": 3,
          "value": 1.0
        }
      ],
      "leftModuleId": 196,
      "rightModuleId": 199,
      "pos": [
        89,
        1
      ]
    },
    {
      "id": 198,
      "plugin": "Bogaudio",
      "version": "1.1.25",
      "model": "Bogaudio-VU",
      "params": [],
      "leftModuleId": 173,
      "rightModuleId": 195,
      "pos": [
        65,
        1
      ]
    },
    {
      "id": 199,
      "plugin": "Bogaudio",
      "version": "1.1.25",
      "model": "Bogaudio-VU",
      "params": [],
      "leftModuleId": 197,
      "rightModuleId": 194,
      "pos": [
        92,
        1
      ]
    },
    {
      "id": 203,
      "plugin": "VultModulesFree",
      "version": "1.6.0",
      "model": "Slap",
      "params": [
        {
          "id": 0,
          "value": 0.190499961
        },
        {
          "id": 1,
          "value": 0.500000119
        },
        {
          "id": 2,
          "value": 0.176000327
        },
        {
          "id": 3,
          "value": 0.5
        },
        {
          "id": 4,
          "value": 0.0
        },
        {
          "id": 5,
          "value": 0.0
        },
        {
          "id": 6,
          "value": 0.0
        },
        {
          "id": 7,
          "value": 0.0
        },
        {
          "id": 8,
          "value": 0.0
        }
      ],
      "leftModuleId": 194,
      "pos": [
        101,
        1
      ]
    },
    {
      "id": 209,
      "plugin": "Autodafe-DrumKit",
      "version": "1.0.0",
      "model": "DrumsHiHatOpen",
      "params": [
        {
          "id": 0,
          "value": 0.0
        }
      ],
      "leftModuleId": 211,
      "rightModuleId": 210,
      "data": {
        "sampletype": 4
      },
      "pos": [
        19,
        2
      ]
    },
    {
      "id": 210,
      "plugin": "Autodafe-DrumKit",
      "version": "1.0.0",
      "model": "DrumsHiHatClosed",
      "params": [
        {
          "id": 0,
          "value": 0.0
        }
      ],
      "leftModuleId": 209,
      "rightModuleId": 212,
      "data": {
        "sampletype": 4
      },
      "pos": [
        23,
        2
      ]
    },
    {
      "id": 211,
      "plugin": "Geodesics",
      "version": "1.1.0",
      "model": "Ions",
      "params": [
        {
          "id": 0,
          "value": 0.0
        },
        {
          "id": 1,
          "value": 0.0
        },
        {
          "id": 2,
          "value": 0.316785276
        },
        {
          "id": 3,
          "value": 0.406708777
        },
        {
          "id": 4,
          "value": 0.196871698
        },
        {
          "id": 5,
          "value": 0.607352734
        },
        {
          "id": 6,
          "value": 0.745503068
        },
        {
          "id": 7,
          "value": 0.875149786
        },
        {
          "id": 8,
          "value": 0.255166531
        },
        {
          "id": 9,
          "value": 0.0149256587
        },
        {
          "id": 10,
          "value": 0.670908213
        },
        {
          "id": 11,
          "value": 0.380233228
        },
        {
          "id": 12,
          "value": 0.0309671164
        },
        {
          "id": 13,
          "value": 0.456209004
        },
        {
          "id": 14,
          "value": 0.191074669
        },
        {
          "id": 15,
          "value": 0.938144147
        },
        {
          "id": 16,
          "value": 0.635173142
        },
        {
          "id": 17,
          "value": 0.494500548
        },
        {
          "id": 18,
          "value": 0.0
        },
        {
          "id": 19,
          "value": 0.0
        },
        {
          "id": 20,
          "value": 0.0
        },
        {
          "id": 21,
          "value": 0.0
        },
        {
          "id": 22,
          "value": 0.0
        },
        {
          "id": 23,
          "value": 0.0
        },
        {
          "id": 24,
          "value": 0.0
        },
        {
          "id": 25,
          "value": 0.0
        },
        {
          "id": 26,
          "value": 0.0
        },
        {
          "id": 27,
          "value": 0.0
        }
      ],
      "rightModuleId": 209,
      "data": {
        "panelTheme": 0,
        "running": true,
        "resetOnRun": false,
        "quantize": 0,
        "uncertainty": false,
        "stepIndexes0": 15,
        "stepIndexes1": 3,
        "states0": 2,
        "states1": 2,
        "ranges0": 1,
        "ranges1": 1,
        "leap": false
      },
      "pos": [
        0,
        2
      ]
    },
    {
      "id": 212,
      "plugin": "Fundamental",
      "version": "1.4.0",
      "model": "Scope",
      "params": [
        {
          "id": 0,
          "value": 2.0
        },
        {
          "id": 1,
          "value": -0.179999858
        },
        {
          "id": 2,
          "value": 2.0
        },
        {
          "id": 3,
          "value": 1.22999978
        },
        {
          "id": 4,
          "value": 6.0
        },
        {
          "id": 5,
          "value": 0.0
        },
        {
          "id": 6,
          "value": 10.0
        },
        {
          "id": 7,
          "value": 0.0
        }
      ],
      "leftModuleId": 210,
      "data": {
        "lissajous": 0,
        "external": 0
      },
      "pos": [
        27,
        2
      ]
    },
    {
      "id": 213,
      "plugin": "AudibleInstruments",
      "version": "1.0.0",
      "model": "Links",
      "params": [],
      "rightModuleId": 173,
      "pos": [
        51,
        1
      ]
    },
    {
      "id": 214,
      "plugin": "VultModulesFree",
      "version": "1.6.0",
      "model": "Splie",
      "params": [],
      "leftModuleId": 192,
      "pos": [
        47,
        1
      ]
    },
    {
      "id": 215,
      "plugin": "VultModulesFree",
      "version": "1.6.0",
      "model": "Splie",
      "params": [],
      "leftModuleId": 195,
      "rightModuleId": 196,
      "pos": [
        76,
        1
      ]
    },
    {
      "id": 217,
      "plugin": "Geodesics",
      "version": "1.1.0",
      "model": "Branes",
      "params": [
        {
          "id": 0,
          "value": 0.0
        },
        {
          "id": 1,
          "value": 0.0
        },
        {
          "id": 2,
          "value": 0.0
        },
        {
          "id": 3,
          "value": 0.0
        }
      ],
      "rightModuleId": 219,
      "data": {
        "panelTheme": 0,
        "vibrations0": 0,
        "vibrations1": 0,
        "noiseRange0": 0.0,
        "noiseRange1": 0.0
      },
      "pos": [
        51,
        2
      ]
    },
    {
      "id": 219,
      "plugin": "VultModulesFree",
      "version": "1.6.0",
      "model": "Tangents",
      "params": [
        {
          "id": 0,
          "value": 0.676999092
        },
        {
          "id": 1,
          "value": 0.164999977
        },
        {
          "id": 2,
          "value": 0.675000131
        },
        {
          "id": 3,
          "value": -0.660000086
        },
        {
          "id": 4,
          "value": 0.600000024
        },
        {
          "id": 5,
          "value": 0.0360001139
        },
        {
          "id": 6,
          "value": 0.0
        }
      ],
      "leftModuleId": 217,
      "rightModuleId": 221,
      "pos": [
        62,
        2
      ]
    },
    {
      "id": 220,
      "plugin": "Fundamental",
      "version": "1.4.0",
      "model": "Scope",
      "params": [
        {
          "id": 0,
          "value": 0.0
        },
        {
          "id": 1,
          "value": -0.179999858
        },
        {
          "id": 2,
          "value": 0.0
        },
        {
          "id": 3,
          "value": 1.22999978
        },
        {
          "id": 4,
          "value": 6.0
        },
        {
          "id": 5,
          "value": 0.0
        },
        {
          "id": 6,
          "value": 10.0
        },
        {
          "id": 7,
          "value": 0.0
        }
      ],
      "leftModuleId": 221,
      "data": {
        "lissajous": 0,
        "external": 0
      },
      "pos": [
        82,
        2
      ]
    },
    {
      "id": 221,
      "plugin": "VultModulesFree",
      "version": "1.6.0",
      "model": "Caudal",
      "params": [
        {
          "id": 0,
          "value": -0.143999204
        },
        {
          "id": 1,
          "value": 0.434999943
        },
        {
          "id": 2,
          "value": 0.0
        },
        {
          "id": 3,
          "value": 0.0
        },
        {
          "id": 4,
          "value": 0.0
        },
        {
          "id": 5,
          "value": 0.0
        },
        {
          "id": 6,
          "value": 0.0
        },
        {
          "id": 7,
          "value": 0.0
        },
        {
          "id": 8,
          "value": 0.0
        }
      ],
      "leftModuleId": 219,
      "rightModuleId": 220,
      "data": {
        "phi1": 2.30491233,
        "phi2": -2.00460839,
        "phi3": 2.0257504,
        "phi4": 4.06772804,
        "w1": 0.826179326,
        "w2": -0.0828676447,
        "w3": 3.79419684,
        "w4": 1.87091064,
        "dx1": -1.33701253,
        "dy1": 3.30844688,
        "dx2": 2.74605799,
        "dy2": 6.73276186,
        "dx3": 5.81454706,
        "dy3": 9.79060841,
        "dx4": -2.0921104,
        "dy4": 0.662712455,
        "store_phi1": 2.30491233,
        "store_phi2": -2.00460839,
        "store_phi3": 2.0257504,
        "store_phi4": 4.06772804,
        "store_w1": 0.826179326,
        "store_w2": -0.0828676447,
        "store_w3": 3.79419684,
        "store_w4": 1.87091064,
        "store_dx1": -1.33701253,
        "store_dy1": 3.30844688,
        "store_dx2": 2.74605799,
        "store_dy2": 6.73276186,
        "store_dx3": 5.81454706,
        "store_dy3": 9.79060841,
        "store_dx4": -2.0921104,
        "store_dy4": 0.662712455,
        "model": 1
      },
      "pos": [
        72,
        2
      ]
    },
    {
      "id": 222,
      "plugin": "VultModulesFree",
      "version": "1.6.0",
      "model": "Trummor2",
      "params": [
        {
          "id": 0,
          "value": 0.0500000007
        },
        {
          "id": 1,
          "value": 0.5
        },
        {
          "id": 2,
          "value": 0.0
        },
        {
          "id": 3,
          "value": 0.0
        },
        {
          "id": 4,
          "value": 0.153000087
        },
        {
          "id": 5,
          "value": -0.0200003125
        },
        {
          "id": 6,
          "value": 0.154498994
        },
        {
          "id": 7,
          "value": 0.200000003
        },
        {
          "id": 8,
          "value": 0.688000143
        },
        {
          "id": 9,
          "value": 0.0
        },
        {
          "id": 10,
          "value": 0.0
        },
        {
          "id": 11,
          "value": 1.0
        },
        {
          "id": 12,
          "value": 0.100000001
        },
        {
          "id": 13,
          "value": 0.0
        },
        {
          "id": 14,
          "value": 0.0
        },
        {
          "id": 15,
          "value": 0.949999988
        },
        {
          "id": 16,
          "value": 0.0
        },
        {
          "id": 17,
          "value": 0.0
        },
        {
          "id": 18,
          "value": 0.0
        },
        {
          "id": 19,
          "value": 0.0500000007
        },
        {
          "id": 20,
          "value": 0.0500000007
        },
        {
          "id": 21,
          "value": 0.0
        },
        {
          "id": 22,
          "value": 0.0
        },
        {
          "id": 23,
          "value": 0.0
        },
        {
          "id": 24,
          "value": 0.0
        },
        {
          "id": 25,
          "value": 0.0
        },
        {
          "id": 26,
          "value": 0.0
        },
        {
          "id": 27,
          "value": 0.0
        },
        {
          "id": 28,
          "value": 0.0
        },
        {
          "id": 29,
          "value": 0.0
        },
        {
          "id": 30,
          "value": 0.0
        },
        {
          "id": 31,
          "value": 0.0
        },
        {
          "id": 32,
          "value": 0.0
        }
      ],
      "rightModuleId": 223,
      "data": {
        "mod_a": 0,
        "mod_b": 0,
        "mod_c": 0,
        "mod_d": 0,
        "mk2": true
      },
      "pos": [
        0,
        3
      ]
    },
    {
      "id": 223,
      "plugin": "Fundamental",
      "version": "1.4.0",
      "model": "SEQ3",
      "params": [
        {
          "id": 0,
          "value": 2.0
        },
        {
          "id": 1,
          "value": 0.0
        },
        {
          "id": 2,
          "value": 0.0
        },
        {
          "id": 3,
          "value": 8.0
        },
        {
          "id": 4,
          "value": 0.0
        },
        {
          "id": 5,
          "value": 0.0
        },
        {
          "id": 6,
          "value": 0.0
        },
        {
          "id": 7,
          "value": 0.0
        },
        {
          "id": 8,
          "value": 0.0
        },
        {
          "id": 9,
          "value": 0.0
        },
        {
          "id": 10,
          "value": 0.0
        },
        {
          "id": 11,
          "value": 0.0
        },
        {
          "id": 12,
          "value": 0.0
        },
        {
          "id": 13,
          "value": 0.0
        },
        {
          "id": 14,
          "value": 0.0
        },
        {
          "id": 15,
          "value": 0.0
        },
        {
          "id": 16,
          "value": 0.0
        },
        {
          "id": 17,
          "value": 0.0
        },
        {
          "id": 18,
          "value": 0.0
        },
        {
          "id": 19,
          "value": 0.0
        },
        {
          "id": 20,
          "value": 0.0
        },
        {
          "id": 21,
          "value": 0.0
        },
        {
          "id": 22,
          "value": 0.0
        },
        {
          "id": 23,
          "value": 0.0
        },
        {
          "id": 24,
          "value": 0.0
        },
        {
          "id": 25,
          "value": 0.0
        },
        {
          "id": 26,
          "value": 0.0
        },
        {
          "id": 27,
          "value": 0.0
        },
        {
          "id": 28,
          "value": 0.0
        },
        {
          "id": 29,
          "value": 0.0
        },
        {
          "id": 30,
          "value": 0.0
        },
        {
          "id": 31,
          "value": 0.0
        },
        {
          "id": 32,
          "value": 0.0
        },
        {
          "id": 33,
          "value": 0.0
        },
        {
          "id": 34,
          "value": 0.0
        },
        {
          "id": 35,
          "value": 0.0
        }
      ],
      "leftModuleId": 222,
      "data": {
        "running": true,
        "gates": [
          1,
          1,
          1,
          1,
          1,
          1,
          1,
          0
        ]
      },
      "pos": [
        20,
        3
      ]
    }
  ],
  "cables": [
    {
      "id": 434,
      "outputModuleId": 164,
      "outputId": 0,
      "inputModuleId": 145,
      "inputId": 20,
      "color": "#0c8e15"
    },
    {
      "id": 435,
      "outputModuleId": 164,
      "outputId": 1,
      "inputModuleId": 145,
      "inputId": 44,
      "color": "#c91847"
    },
    {
      "id": 436,
      "outputModuleId": 145,
      "outputId": 10,
      "inputModuleId": 164,
      "inputId": 0,
      "color": "#0986ad"
    },
    {
      "id": 437,
      "outputModuleId": 145,
      "outputId": 14,
      "inputModuleId": 164,
      "inputId": 1,
      "color": "#c9b70e"
    },
    {
      "id": 438,
      "outputModuleId": 163,
      "outputId": 0,
      "inputModuleId": 145,
      "inputId": 21,
      "color": "#0c8e15"
    },
    {
      "id": 439,
      "outputModuleId": 163,
      "outputId": 1,
      "inputModuleId": 145,
      "inputId": 45,
      "color": "#c91847"
    },
    {
      "id": 440,
      "outputModuleId": 145,
      "outputId": 11,
      "inputModuleId": 163,
      "inputId": 5,
      "color": "#0986ad"
    },
    {
      "id": 441,
      "outputModuleId": 145,
      "outputId": 15,
      "inputModuleId": 163,
      "inputId": 6,
      "color": "#c9b70e"
    },
    {
      "id": 445,
      "outputModuleId": 190,
      "outputId": 14,
      "inputModuleId": 191,
      "inputId": 0,
      "color": "#c9b70e"
    },
    {
      "id": 446,
      "outputModuleId": 190,
      "outputId": 14,
      "inputModuleId": 192,
      "inputId": 0,
      "color": "#0c8e15"
    },
    {
      "id": 448,
      "outputModuleId": 192,
      "outputId": 0,
      "inputModuleId": 173,
      "inputId": 4,
      "color": "#0c8e15"
    },
    {
      "id": 449,
      "outputModuleId": 192,
      "outputId": 2,
      "inputModuleId": 173,
      "inputId": 5,
      "color": "#c91847"
    },
    {
      "id": 451,
      "outputModuleId": 146,
      "outputId": 1,
      "inputModuleId": 190,
      "inputId": 0,
      "color": "#0c8e15"
    },
    {
      "id": 450,
      "outputModuleId": 190,
      "outputId": 14,
      "inputModuleId": 193,
      "inputId": 0,
      "color": "#c9b70e"
    },
    {
      "id": 444,
      "outputModuleId": 190,
      "outputId": 12,
      "inputModuleId": 191,
      "inputId": 1,
      "color": "#0986ad"
    },
    {
      "id": 458,
      "outputModuleId": 195,
      "outputId": 2,
      "inputModuleId": 196,
      "inputId": 5,
      "color": "#c91847"
    },
    {
      "id": 460,
      "outputModuleId": 197,
      "outputId": 1,
      "inputModuleId": 196,
      "inputId": 4,
      "color": "#c9b70e"
    },
    {
      "id": 461,
      "outputModuleId": 173,
      "outputId": 0,
      "inputModuleId": 198,
      "inputId": 0,
      "color": "#0c8e15"
    },
    {
      "id": 462,
      "outputModuleId": 196,
      "outputId": 0,
      "inputModuleId": 199,
      "inputId": 0,
      "color": "#c91847"
    },
    {
      "id": 456,
      "outputModuleId": 190,
      "outputId": 12,
      "inputModuleId": 195,
      "inputId": 0,
      "color": "#c9b70e"
    },
    {
      "id": 473,
      "outputModuleId": 146,
      "outputId": 1,
      "inputModuleId": 163,
      "inputId": 7,
      "color": "#c9b70e"
    },
    {
      "id": 490,
      "outputModuleId": 210,
      "outputId": 0,
      "inputModuleId": 212,
      "inputId": 1,
      "color": "#0986ad"
    },
    {
      "id": 491,
      "outputModuleId": 209,
      "outputId": 0,
      "inputModuleId": 212,
      "inputId": 0,
      "color": "#c9b70e"
    },
    {
      "id": 486,
      "outputModuleId": 211,
      "outputId": 1,
      "inputModuleId": 209,
      "inputId": 0,
      "color": "#0986ad"
    },
    {
      "id": 485,
      "outputModuleId": 192,
      "outputId": 2,
      "inputModuleId": 211,
      "inputId": 1,
      "color": "#c91847"
    },
    {
      "id": 492,
      "outputModuleId": 195,
      "outputId": 2,
      "inputModuleId": 211,
      "inputId": 2,
      "color": "#0c8e15"
    },
    {
      "id": 470,
      "outputModuleId": 147,
      "outputId": 1,
      "inputModuleId": 146,
      "inputId": 5,
      "color": "#0986ad"
    },
    {
      "id": 453,
      "outputModuleId": 192,
      "outputId": 0,
      "inputModuleId": 214,
      "inputId": 0,
      "color": "#c9b70e"
    },
    {
      "id": 495,
      "outputModuleId": 214,
      "outputId": 0,
      "inputModuleId": 173,
      "inputId": 0,
      "color": "#c9b70e"
    },
    {
      "id": 494,
      "outputModuleId": 214,
      "outputId": 2,
      "inputModuleId": 194,
      "inputId": 0,
      "color": "#0986ad"
    },
    {
      "id": 457,
      "outputModuleId": 195,
      "outputId": 0,
      "inputModuleId": 215,
      "inputId": 0,
      "color": "#0c8e15"
    },
    {
      "id": 497,
      "outputModuleId": 215,
      "outputId": 0,
      "inputModuleId": 197,
      "inputId": 1,
      "color": "#c91847"
    },
    {
      "id": 499,
      "outputModuleId": 215,
      "outputId": 2,
      "inputModuleId": 196,
      "inputId": 0,
      "color": "#c9b70e"
    },
    {
      "id": 513,
      "outputModuleId": 219,
      "outputId": 0,
      "inputModuleId": 145,
      "inputId": 5,
      "color": "#c9b70e"
    },
    {
      "id": 489,
      "outputModuleId": 210,
      "outputId": 0,
      "inputModuleId": 145,
      "inputId": 4,
      "color": "#c91847"
    },
    {
      "id": 447,
      "outputModuleId": 173,
      "outputId": 0,
      "inputModuleId": 145,
      "inputId": 0,
      "color": "#c91847"
    },
    {
      "id": 487,
      "outputModuleId": 209,
      "outputId": 0,
      "inputModuleId": 145,
      "inputId": 3,
      "color": "#c9b70e"
    },
    {
      "id": 478,
      "outputModuleId": 194,
      "outputId": 0,
      "inputModuleId": 145,
      "inputId": 2,
      "color": "#c91847"
    },
    {
      "id": 459,
      "outputModuleId": 196,
      "outputId": 0,
      "inputModuleId": 145,
      "inputId": 1,
      "color": "#0986ad"
    },
    {
      "id": 432,
      "outputModuleId": 145,
      "outputId": 0,
      "inputModuleId": 7,
      "inputId": 0,
      "color": "#0986ad"
    },
    {
      "id": 433,
      "outputModuleId": 145,
      "outputId": 1,
      "inputModuleId": 7,
      "inputId": 1,
      "color": "#c9b70e"
    },
    {
      "id": 431,
      "outputModuleId": 145,
      "outputId": 0,
      "inputModuleId": 1,
      "inputId": 0,
      "color": "#c91847"
    },
    {
      "id": 409,
      "outputModuleId": 145,
      "outputId": 1,
      "inputModuleId": 1,
      "inputId": 1,
      "color": "#c9b70e"
    },
    {
      "id": 514,
      "outputModuleId": 221,
      "outputId": 0,
      "inputModuleId": 219,
      "inputId": 3,
      "color": "#0986ad"
    },
    {
      "id": 520,
      "outputModuleId": 222,
      "outputId": 0,
      "inputModuleId": 145,
      "inputId": 6,
      "color": "#0c8e15"
    },
    {
      "id": 521,
      "outputModuleId": 211,
      "outputId": 0,
      "inputModuleId": 210,
      "inputId": 0,
      "color": "#c91847"
    },
    {
      "id": 523,
      "outputModuleId": 146,
      "outputId": 2,
      "inputModuleId": 223,
      "inputId": 1,
      "color": "#c9b70e"
    },
    {
      "id": 522,
      "outputModuleId": 223,
      "outputId": 0,
      "inputModuleId": 222,
      "inputId": 0,
      "color": "#0986ad"
    },
    {
      "id": 512,
      "outputModuleId": 217,
      "outputId": 9,
      "inputModuleId": 219,
      "inputId": 0,
      "color": "#0986ad"
    },
    {
      "id": 496,
      "outputModuleId": 214,
      "outputId": 1,
      "inputModuleId": 173,
      "inputId": 1,
      "color": "#0c8e15"
    },
    {
      "id": 515,
      "outputModuleId": 221,
      "outputId": 3,
      "inputModuleId": 219,
      "inputId": 4,
      "color": "#c9b70e"
    },
    {
      "id": 517,
      "outputModuleId": 221,
      "outputId": 3,
      "inputModuleId": 220,
      "inputId": 0,
      "color": "#c91847"
    }
  ]
}