{
  "version": "1.1.6",
  "modules": [
    {
      "id": 1,
      "plugin": "Core",
      "version": "1.1.6",
      "model": "AudioInterface",
      "params": [],
      "leftModuleId": 7,
      "data": {
        "audio": {
          "driver": 1,
          "deviceName": "hw:HDA Intel PCH,0",
          "offset": 0,
          "maxChannels": 8,
          "sampleRate": 44100,
          "blockSize": 256
        }
      },
      "pos": [
        90,
        2
      ]
    },
    {
      "id": 7,
      "plugin": "Fundamental",
      "version": "1.4.0",
      "model": "Scope",
      "params": [
        {
          "id": 0,
          "value": 0.0
        },
        {
          "id": 1,
          "value": 0.0
        },
        {
          "id": 2,
          "value": 0.0
        },
        {
          "id": 3,
          "value": 0.0
        },
        {
          "id": 4,
          "value": 14.0
        },
        {
          "id": 5,
          "value": 0.0
        },
        {
          "id": 6,
          "value": 0.0
        },
        {
          "id": 7,
          "value": 0.0
        }
      ],
      "leftModuleId": 194,
      "rightModuleId": 1,
      "data": {
        "lissajous": 0,
        "external": 0
      },
      "pos": [
        77,
        2
      ]
    },
    {
      "id": 192,
      "plugin": "mscHack",
      "version": "1.0.2",
      "model": "Mix_9_3_4",
      "params": [
        {
          "id": 0,
          "value": 0.5
        },
        {
          "id": 1,
          "value": 0.711000383
        },
        {
          "id": 2,
          "value": 0.305999786
        },
        {
          "id": 3,
          "value": 0.771000504
        },
        {
          "id": 4,
          "value": 0.225000039
        },
        {
          "id": 5,
          "value": 0.627000093
        },
        {
          "id": 6,
          "value": 0.0
        },
        {
          "id": 7,
          "value": 0.0
        },
        {
          "id": 8,
          "value": 0.0
        },
        {
          "id": 9,
          "value": 0.0
        },
        {
          "id": 10,
          "value": 0.0
        },
        {
          "id": 11,
          "value": 0.0
        },
        {
          "id": 12,
          "value": 0.0
        },
        {
          "id": 13,
          "value": 1.0
        },
        {
          "id": 14,
          "value": 1.0
        },
        {
          "id": 15,
          "value": 0.0
        },
        {
          "id": 16,
          "value": 0.0
        },
        {
          "id": 17,
          "value": 0.0110000204
        },
        {
          "id": 18,
          "value": -0.0169998892
        },
        {
          "id": 19,
          "value": 0.0
        },
        {
          "id": 20,
          "value": 0.0
        },
        {
          "id": 21,
          "value": 0.0
        },
        {
          "id": 22,
          "value": 0.0
        },
        {
          "id": 23,
          "value": 0.0
        },
        {
          "id": 24,
          "value": 0.0
        },
        {
          "id": 25,
          "value": 0.0
        },
        {
          "id": 26,
          "value": 0.0
        },
        {
          "id": 27,
          "value": 0.0
        },
        {
          "id": 28,
          "value": 0.0
        },
        {
          "id": 29,
          "value": 0.0
        },
        {
          "id": 30,
          "value": 0.0
        },
        {
          "id": 31,
          "value": 0.0
        },
        {
          "id": 32,
          "value": 0.0
        },
        {
          "id": 33,
          "value": 0.5
        },
        {
          "id": 34,
          "value": 0.5
        },
        {
          "id": 35,
          "value": 0.5
        },
        {
          "id": 36,
          "value": 0.5
        },
        {
          "id": 37,
          "value": 0.5
        },
        {
          "id": 38,
          "value": 0.5
        },
        {
          "id": 39,
          "value": 0.5
        },
        {
          "id": 40,
          "value": 0.5
        },
        {
          "id": 41,
          "value": 0.5
        },
        {
          "id": 42,
          "value": 0.5
        },
        {
          "id": 43,
          "value": 0.5
        },
        {
          "id": 44,
          "value": 0.5
        },
        {
          "id": 45,
          "value": 0.5
        },
        {
          "id": 46,
          "value": 0.5
        },
        {
          "id": 47,
          "value": 0.5
        },
        {
          "id": 48,
          "value": 0.5
        },
        {
          "id": 49,
          "value": 0.5
        },
        {
          "id": 50,
          "value": 0.5
        },
        {
          "id": 51,
          "value": 0.5
        },
        {
          "id": 52,
          "value": 0.5
        },
        {
          "id": 53,
          "value": 0.5
        },
        {
          "id": 54,
          "value": 0.5
        },
        {
          "id": 55,
          "value": 0.5
        },
        {
          "id": 56,
          "value": 0.5
        },
        {
          "id": 57,
          "value": 0.5
        },
        {
          "id": 58,
          "value": 0.5
        },
        {
          "id": 59,
          "value": 0.5
        },
        {
          "id": 60,
          "value": 0.5
        },
        {
          "id": 61,
          "value": 0.5
        },
        {
          "id": 62,
          "value": 0.5
        },
        {
          "id": 63,
          "value": 0.5
        },
        {
          "id": 64,
          "value": 0.5
        },
        {
          "id": 65,
          "value": 0.5
        },
        {
          "id": 66,
          "value": 0.5
        },
        {
          "id": 67,
          "value": 0.5
        },
        {
          "id": 68,
          "value": 0.5
        },
        {
          "id": 69,
          "value": 0.5
        },
        {
          "id": 70,
          "value": 0.5
        },
        {
          "id": 71,
          "value": 0.5
        },
        {
          "id": 72,
          "value": 0.5
        },
        {
          "id": 73,
          "value": 0.5
        },
        {
          "id": 74,
          "value": 0.5
        },
        {
          "id": 75,
          "value": 0.5
        },
        {
          "id": 76,
          "value": 0.5
        },
        {
          "id": 77,
          "value": 0.5
        },
        {
          "id": 78,
          "value": 0.5
        },
        {
          "id": 79,
          "value": 0.5
        },
        {
          "id": 80,
          "value": 0.5
        },
        {
          "id": 81,
          "value": 0.0
        },
        {
          "id": 82,
          "value": 0.500999928
        },
        {
          "id": 83,
          "value": 0.0
        },
        {
          "id": 84,
          "value": 0.0
        },
        {
          "id": 85,
          "value": 0.0
        },
        {
          "id": 86,
          "value": 0.452999979
        },
        {
          "id": 87,
          "value": 0.0
        },
        {
          "id": 88,
          "value": 0.0
        },
        {
          "id": 89,
          "value": 0.246000111
        },
        {
          "id": 90,
          "value": 0.0
        },
        {
          "id": 91,
          "value": 0.0
        },
        {
          "id": 92,
          "value": 0.0
        },
        {
          "id": 93,
          "value": 0.0
        },
        {
          "id": 94,
          "value": 0.454500288
        },
        {
          "id": 95,
          "value": 0.0
        },
        {
          "id": 96,
          "value": 0.0
        },
        {
          "id": 97,
          "value": 0.0
        },
        {
          "id": 98,
          "value": 0.0
        },
        {
          "id": 99,
          "value": 0.0
        },
        {
          "id": 100,
          "value": 0.0
        },
        {
          "id": 101,
          "value": 0.0
        },
        {
          "id": 102,
          "value": 0.0
        },
        {
          "id": 103,
          "value": 0.0
        },
        {
          "id": 104,
          "value": 0.0
        },
        {
          "id": 105,
          "value": 0.0
        },
        {
          "id": 106,
          "value": 0.0
        },
        {
          "id": 107,
          "value": 0.0
        },
        {
          "id": 108,
          "value": 0.0
        },
        {
          "id": 109,
          "value": 0.0
        },
        {
          "id": 110,
          "value": 0.0
        },
        {
          "id": 111,
          "value": 0.0
        },
        {
          "id": 112,
          "value": 0.0
        },
        {
          "id": 113,
          "value": 0.0
        },
        {
          "id": 114,
          "value": 0.0
        },
        {
          "id": 115,
          "value": 0.0
        },
        {
          "id": 116,
          "value": 0.0
        },
        {
          "id": 117,
          "value": 0.0
        },
        {
          "id": 118,
          "value": 0.0
        },
        {
          "id": 119,
          "value": 0.0
        },
        {
          "id": 120,
          "value": 0.0
        },
        {
          "id": 121,
          "value": 0.0
        },
        {
          "id": 122,
          "value": 0.0
        },
        {
          "id": 123,
          "value": 0.0
        },
        {
          "id": 124,
          "value": 0.0
        },
        {
          "id": 125,
          "value": 0.0
        },
        {
          "id": 126,
          "value": 0.0
        },
        {
          "id": 127,
          "value": 0.0
        },
        {
          "id": 128,
          "value": 0.0
        },
        {
          "id": 129,
          "value": 1.0
        },
        {
          "id": 130,
          "value": 1.0
        },
        {
          "id": 131,
          "value": 0.0
        },
        {
          "id": 132,
          "value": 0.0
        }
      ],
      "leftModuleId": 195,
      "rightModuleId": 193,
      "data": {
        "m_bMuteStates": [
          false,
          false,
          false,
          false,
          false,
          false,
          false,
          false,
          false,
          false,
          false,
          false,
          false,
          false,
          false,
          false
        ],
        "m_bSoloStates": [
          false,
          false,
          false,
          false,
          false,
          false,
          false,
          false,
          false,
          false,
          false,
          false,
          false,
          false,
          false,
          false
        ],
        "m_iRouteGroup": [
          3,
          3,
          3,
          3,
          3,
          3,
          3,
          3,
          3
        ],
        "m_bGroupPreMute": [
          true
        ],
        "m_bGainLevelx2": [
          false
        ],
        "m_bPreFader": [
          false,
          false,
          false,
          false,
          false,
          false,
          false,
          false,
          false,
          false,
          false,
          false
        ],
        "m_bAuxIgnoreSolo": [
          false
        ]
      },
      "pos": [
        20,
        2
      ]
    },
    {
      "id": 193,
      "plugin": "Valley",
      "version": "1.0.1",
      "model": "Plateau",
      "params": [
        {
          "id": 0,
          "value": 1.0
        },
        {
          "id": 1,
          "value": 0.5
        },
        {
          "id": 2,
          "value": 0.0
        },
        {
          "id": 3,
          "value": 10.0
        },
        {
          "id": 4,
          "value": 9.95499992
        },
        {
          "id": 5,
          "value": 0.496999681
        },
        {
          "id": 6,
          "value": 10.0
        },
        {
          "id": 7,
          "value": 0.589545429
        },
        {
          "id": 8,
          "value": 9.88000011
        },
        {
          "id": 9,
          "value": 10.0
        },
        {
          "id": 10,
          "value": 0.499500275
        },
        {
          "id": 11,
          "value": 0.18099995
        },
        {
          "id": 12,
          "value": 8.06000042
        },
        {
          "id": 13,
          "value": 0.0
        },
        {
          "id": 14,
          "value": 0.0
        },
        {
          "id": 15,
          "value": 0.0
        },
        {
          "id": 16,
          "value": 0.0
        },
        {
          "id": 17,
          "value": 0.0
        },
        {
          "id": 18,
          "value": 0.0
        },
        {
          "id": 19,
          "value": 0.0
        },
        {
          "id": 20,
          "value": 0.0
        },
        {
          "id": 21,
          "value": 0.0
        },
        {
          "id": 22,
          "value": 0.0
        },
        {
          "id": 23,
          "value": 0.0
        },
        {
          "id": 24,
          "value": 0.0
        },
        {
          "id": 25,
          "value": 0.0
        },
        {
          "id": 26,
          "value": 0.0
        },
        {
          "id": 27,
          "value": 0.0
        },
        {
          "id": 28,
          "value": 0.0
        },
        {
          "id": 29,
          "value": 0.0
        },
        {
          "id": 30,
          "value": 1.0
        }
      ],
      "leftModuleId": 192,
      "rightModuleId": 194,
      "data": {
        "frozen": false,
        "freezeToggle": false,
        "panelStyle": 0,
        "tuned": 0,
        "diffuseInput": 1,
        "preDelayCVSens": 0,
        "inputSensitivity": 0,
        "outputSaturation": 0
      },
      "pos": [
        53,
        2
      ]
    },
    {
      "id": 194,
      "plugin": "AlrightDevices",
      "version": "1.0.2",
      "model": "Chronoblob2",
      "params": [
        {
          "id": 0,
          "value": 0.5
        },
        {
          "id": 1,
          "value": 0.5
        },
        {
          "id": 2,
          "value": 0.5
        },
        {
          "id": 3,
          "value": 0.0
        },
        {
          "id": 4,
          "value": 0.0
        },
        {
          "id": 5,
          "value": 0.0
        },
        {
          "id": 6,
          "value": 0.0
        },
        {
          "id": 7,
          "value": 0.0
        },
        {
          "id": 8,
          "value": 0.0
        },
        {
          "id": 9,
          "value": 0.0
        }
      ],
      "leftModuleId": 193,
      "rightModuleId": 7,
      "data": {
        "delay_mode": 0,
        "hold_behavior": 0,
        "sync_prescaler": 6
      },
      "pos": [
        65,
        2
      ]
    },
    {
      "id": 195,
      "plugin": "ImpromptuModular",
      "version": "1.1.3",
      "model": "Clocked",
      "params": [
        {
          "id": 0,
          "value": 80.0
        },
        {
          "id": 1,
          "value": 5.0
        },
        {
          "id": 2,
          "value": 2.0
        },
        {
          "id": 3,
          "value": 0.0
        },
        {
          "id": 4,
          "value": 0.0
        },
        {
          "id": 5,
          "value": 0.0
        },
        {
          "id": 6,
          "value": 0.0
        },
        {
          "id": 7,
          "value": 0.0
        },
        {
          "id": 8,
          "value": 0.5
        },
        {
          "id": 9,
          "value": 0.5
        },
        {
          "id": 10,
          "value": 0.5
        },
        {
          "id": 11,
          "value": 0.5
        },
        {
          "id": 12,
          "value": 0.0
        },
        {
          "id": 13,
          "value": 0.0
        },
        {
          "id": 14,
          "value": 0.0
        },
        {
          "id": 15,
          "value": 0.0
        },
        {
          "id": 16,
          "value": 0.0
        },
        {
          "id": 17,
          "value": 0.0
        },
        {
          "id": 18,
          "value": 0.0
        },
        {
          "id": 19,
          "value": 0.0
        }
      ],
      "rightModuleId": 192,
      "data": {
        "panelTheme": 0,
        "running": true,
        "displayDelayNoteMode": true,
        "bpmDetectionMode": false,
        "restartOnStopStartRun": 0,
        "sendResetOnRestart": false,
        "ppqn": 4,
        "resetClockOutputsHigh": true,
        "momentaryRunInput": true
      },
      "pos": [
        0,
        2
      ]
    },
    {
      "id": 196,
      "plugin": "Bogaudio",
      "version": "1.1.25",
      "model": "Bogaudio-FMOp",
      "params": [
        {
          "id": 0,
          "value": -0.00599996513
        },
        {
          "id": 1,
          "value": 0.0
        },
        {
          "id": 2,
          "value": 0.041999992
        },
        {
          "id": 3,
          "value": 0.233999953
        },
        {
          "id": 4,
          "value": 0.0279995725
        },
        {
          "id": 5,
          "value": 0.117000028
        },
        {
          "id": 6,
          "value": 0.0
        },
        {
          "id": 7,
          "value": 0.0479999892
        },
        {
          "id": 8,
          "value": 1.0
        },
        {
          "id": 9,
          "value": 1.0
        },
        {
          "id": 10,
          "value": 0.0
        },
        {
          "id": 11,
          "value": 0.0
        }
      ],
      "leftModuleId": 270,
      "data": {
        "linearLevel": false
      },
      "pos": [
        38,
        3
      ]
    },
    {
      "id": 265,
      "plugin": "Bogaudio",
      "version": "1.1.25",
      "model": "Bogaudio-Walk2",
      "params": [
        {
          "id": 0,
          "value": 0.287500501
        },
        {
          "id": 1,
          "value": 0.407499939
        },
        {
          "id": 2,
          "value": 0.213000536
        },
        {
          "id": 3,
          "value": 0.0
        },
        {
          "id": 4,
          "value": 0.817000151
        },
        {
          "id": 5,
          "value": 0.209499925
        }
      ],
      "leftModuleId": 269,
      "rightModuleId": 267,
      "data": {
        "zoom_out": false,
        "grid": true,
        "color": 0
      },
      "pos": [
        13,
        3
      ]
    },
    {
      "id": 266,
      "plugin": "Bogaudio",
      "version": "1.1.25",
      "model": "Bogaudio-FMOp",
      "params": [
        {
          "id": 0,
          "value": 0.0
        },
        {
          "id": 1,
          "value": 0.0
        },
        {
          "id": 2,
          "value": 0.041999992
        },
        {
          "id": 3,
          "value": 0.233999953
        },
        {
          "id": 4,
          "value": 0.112000257
        },
        {
          "id": 5,
          "value": 0.117000028
        },
        {
          "id": 6,
          "value": 0.0
        },
        {
          "id": 7,
          "value": 0.340499759
        },
        {
          "id": 8,
          "value": 1.0
        },
        {
          "id": 9,
          "value": 1.0
        },
        {
          "id": 10,
          "value": 0.0
        },
        {
          "id": 11,
          "value": 0.0
        }
      ],
      "leftModuleId": 271,
      "rightModuleId": 272,
      "data": {
        "linearLevel": false
      },
      "pos": [
        62,
        3
      ]
    },
    {
      "id": 267,
      "plugin": "ML_modules",
      "version": "1.0.5",
      "model": "Quantum",
      "params": [
        {
          "id": 0,
          "value": 0.0
        },
        {
          "id": 1,
          "value": 0.0
        },
        {
          "id": 2,
          "value": 0.0
        },
        {
          "id": 3,
          "value": 0.0
        },
        {
          "id": 4,
          "value": 0.0
        },
        {
          "id": 5,
          "value": 0.0
        },
        {
          "id": 6,
          "value": 0.0
        },
        {
          "id": 7,
          "value": 0.0
        },
        {
          "id": 8,
          "value": 0.0
        },
        {
          "id": 9,
          "value": 0.0
        },
        {
          "id": 10,
          "value": 0.0
        },
        {
          "id": 11,
          "value": 0.0
        }
      ],
      "leftModuleId": 265,
      "rightModuleId": 270,
      "data": {
        "scale": [
          1,
          0,
          0,
          0,
          1,
          0,
          0,
          1,
          0,
          0,
          0,
          1
        ],
        "mode": 1,
        "transpose_select": 1,
        "toggle_mode": 0
      },
      "pos": [
        27,
        3
      ]
    },
    {
      "id": 268,
      "plugin": "ML_modules",
      "version": "1.0.5",
      "model": "Quantum",
      "params": [
        {
          "id": 0,
          "value": 0.0
        },
        {
          "id": 1,
          "value": 0.0
        },
        {
          "id": 2,
          "value": 0.0
        },
        {
          "id": 3,
          "value": 0.0
        },
        {
          "id": 4,
          "value": 0.0
        },
        {
          "id": 5,
          "value": 0.0
        },
        {
          "id": 6,
          "value": 0.0
        },
        {
          "id": 7,
          "value": 0.0
        },
        {
          "id": 8,
          "value": 0.0
        },
        {
          "id": 9,
          "value": 0.0
        },
        {
          "id": 10,
          "value": 0.0
        },
        {
          "id": 11,
          "value": 0.0
        }
      ],
      "rightModuleId": 271,
      "data": {
        "scale": [
          1,
          0,
          0,
          0,
          1,
          0,
          0,
          1,
          0,
          0,
          0,
          1
        ],
        "mode": 2,
        "transpose_select": 1,
        "toggle_mode": 0
      },
      "pos": [
        51,
        3
      ]
    },
    {
      "id": 269,
      "plugin": "Fundamental",
      "version": "1.4.0",
      "model": "Scope",
      "params": [
        {
          "id": 0,
          "value": 2.0
        },
        {
          "id": 1,
          "value": 0.0
        },
        {
          "id": 2,
          "value": 2.0
        },
        {
          "id": 3,
          "value": 0.0
        },
        {
          "id": 4,
          "value": 8.18000984
        },
        {
          "id": 5,
          "value": 0.0
        },
        {
          "id": 6,
          "value": 0.0
        },
        {
          "id": 7,
          "value": 0.0
        }
      ],
      "rightModuleId": 265,
      "data": {
        "lissajous": 0,
        "external": 0
      },
      "pos": [
        0,
        3
      ]
    },
    {
      "id": 270,
      "plugin": "Bogaudio",
      "version": "1.1.25",
      "model": "Bogaudio-SampleHold",
      "params": [
        {
          "id": 0,
          "value": 0.0
        },
        {
          "id": 1,
          "value": 0.0
        },
        {
          "id": 2,
          "value": 0.0
        },
        {
          "id": 3,
          "value": 0.0
        },
        {
          "id": 4,
          "value": 0.0
        },
        {
          "id": 5,
          "value": 0.0
        }
      ],
      "leftModuleId": 267,
      "rightModuleId": 196,
      "data": {
        "noise_type": 0,
        "range_offset": 1.0,
        "range_scale": 5.0
      },
      "pos": [
        35,
        3
      ]
    },
    {
      "id": 271,
      "plugin": "Bogaudio",
      "version": "1.1.25",
      "model": "Bogaudio-SampleHold",
      "params": [
        {
          "id": 0,
          "value": 0.0
        },
        {
          "id": 1,
          "value": 0.0
        },
        {
          "id": 2,
          "value": 0.0
        },
        {
          "id": 3,
          "value": 0.0
        },
        {
          "id": 4,
          "value": 0.0
        },
        {
          "id": 5,
          "value": 0.0
        }
      ],
      "leftModuleId": 268,
      "rightModuleId": 266,
      "data": {
        "noise_type": 0,
        "range_offset": 1.0,
        "range_scale": 5.0
      },
      "pos": [
        59,
        3
      ]
    },
    {
      "id": 272,
      "plugin": "VultModulesFree",
      "version": "1.6.0",
      "model": "Basal",
      "params": [
        {
          "id": 0,
          "value": 0.0
        },
        {
          "id": 1,
          "value": -0.428999156
        },
        {
          "id": 2,
          "value": 0.0810000002
        },
        {
          "id": 3,
          "value": 0.0
        },
        {
          "id": 4,
          "value": 0.0
        },
        {
          "id": 5,
          "value": 0.0
        }
      ],
      "leftModuleId": 266,
      "pos": [
        72,
        3
      ]
    },
    {
      "id": 274,
      "plugin": "Fundamental",
      "version": "1.4.0",
      "model": "Scope",
      "params": [
        {
          "id": 0,
          "value": 2.0
        },
        {
          "id": 1,
          "value": 0.0
        },
        {
          "id": 2,
          "value": 2.0
        },
        {
          "id": 3,
          "value": 0.0
        },
        {
          "id": 4,
          "value": 14.545001
        },
        {
          "id": 5,
          "value": 0.0
        },
        {
          "id": 6,
          "value": 0.0
        },
        {
          "id": 7,
          "value": 0.0
        }
      ],
      "data": {
        "lissajous": 0,
        "external": 0
      },
      "pos": [
        0,
        4
      ]
    },
    {
      "id": 276,
      "plugin": "Blamsoft-XFXWave",
      "version": "1.0.1",
      "model": "Blamsoft-XFXWave",
      "params": [
        {
          "id": 0,
          "value": 0.211503193
        },
        {
          "id": 1,
          "value": 0.0
        },
        {
          "id": 2,
          "value": 1.0
        },
        {
          "id": 3,
          "value": 0.5
        },
        {
          "id": 4,
          "value": 0.5
        },
        {
          "id": 5,
          "value": -1.0
        },
        {
          "id": 6,
          "value": 0.0
        },
        {
          "id": 7,
          "value": 0.5
        },
        {
          "id": 8,
          "value": 0.699999988
        },
        {
          "id": 9,
          "value": 0.0
        },
        {
          "id": 10,
          "value": 0.0
        },
        {
          "id": 11,
          "value": 0.0
        },
        {
          "id": 12,
          "value": 0.0
        },
        {
          "id": 13,
          "value": 0.0
        },
        {
          "id": 14,
          "value": 0.0
        },
        {
          "id": 15,
          "value": 0.0
        },
        {
          "id": 16,
          "value": 0.0
        },
        {
          "id": 17,
          "value": 0.0
        },
        {
          "id": 18,
          "value": 0.0
        },
        {
          "id": 19,
          "value": 0.5
        },
        {
          "id": 20,
          "value": 0.5
        },
        {
          "id": 21,
          "value": 0.5
        },
        {
          "id": 22,
          "value": 0.5
        }
      ],
      "rightModuleId": 277,
      "data": {
        "wavetable": 51,
        "mod1_mode": 0,
        "mod2_mode": 0,
        "mod3_mode": 0,
        "magnitude_0": 1.0,
        "phase_0": 0.0,
        "magnitude_1": 0.0,
        "phase_1": 0.0,
        "magnitude_2": 0.0,
        "phase_2": 0.0,
        "magnitude_3": 0.0,
        "phase_3": 0.0,
        "magnitude_4": 0.0,
        "phase_4": 0.0,
        "magnitude_5": 0.0,
        "phase_5": 0.0,
        "magnitude_6": 0.0,
        "phase_6": 0.0,
        "magnitude_7": 0.0,
        "phase_7": 0.0,
        "magnitude_8": 0.0,
        "phase_8": 0.0,
        "magnitude_9": 0.0,
        "phase_9": 0.0,
        "magnitude_10": 0.0,
        "phase_10": 0.0,
        "magnitude_11": 0.0,
        "phase_11": 0.0,
        "magnitude_12": 0.0,
        "phase_12": 0.0,
        "magnitude_13": 0.0,
        "phase_13": 0.0,
        "magnitude_14": 0.0,
        "phase_14": 0.0,
        "magnitude_15": 0.0,
        "phase_15": 0.0,
        "magnitude_16": 0.0,
        "phase_16": 0.0,
        "magnitude_17": 0.0,
        "phase_17": 0.0,
        "magnitude_18": 0.0,
        "phase_18": 0.0,
        "magnitude_19": 0.0,
        "phase_19": 0.0,
        "magnitude_20": 0.0,
        "phase_20": 0.0,
        "magnitude_21": 0.0,
        "phase_21": 0.0,
        "magnitude_22": 0.0,
        "phase_22": 0.0,
        "magnitude_23": 0.0,
        "phase_23": 0.0,
        "magnitude_24": 0.0,
        "phase_24": 0.0,
        "magnitude_25": 0.0,
        "phase_25": 0.0
      },
      "pos": [
        14,
        4
      ]
    },
    {
      "id": 277,
      "plugin": "VultModulesFree",
      "version": "1.6.0",
      "model": "Basal",
      "params": [
        {
          "id": 0,
          "value": 0.0
        },
        {
          "id": 1,
          "value": -0.368998617
        },
        {
          "id": 2,
          "value": 0.0315000825
        },
        {
          "id": 3,
          "value": 0.0
        },
        {
          "id": 4,
          "value": 0.142500028
        },
        {
          "id": 5,
          "value": 0.0
        }
      ],
      "leftModuleId": 276,
      "pos": [
        40,
        4
      ]
    },
    {
      "id": 279,
      "plugin": "Fundamental",
      "version": "1.4.0",
      "model": "Scope",
      "params": [
        {
          "id": 0,
          "value": 0.0
        },
        {
          "id": 1,
          "value": 0.0
        },
        {
          "id": 2,
          "value": 0.0
        },
        {
          "id": 3,
          "value": 0.0
        },
        {
          "id": 4,
          "value": 8.19498825
        },
        {
          "id": 5,
          "value": 0.0
        },
        {
          "id": 6,
          "value": 0.0
        },
        {
          "id": 7,
          "value": 0.0
        }
      ],
      "rightModuleId": 280,
      "data": {
        "lissajous": 0,
        "external": 0
      },
      "pos": [
        10,
        1
      ]
    },
    {
      "id": 280,
      "plugin": "Bogaudio",
      "version": "1.1.25",
      "model": "Bogaudio-EightFO",
      "params": [
        {
          "id": 0,
          "value": 0.0779999644
        },
        {
          "id": 1,
          "value": 3.0
        },
        {
          "id": 2,
          "value": 0.0
        },
        {
          "id": 3,
          "value": 0.0
        },
        {
          "id": 4,
          "value": 0.0
        },
        {
          "id": 5,
          "value": 0.0
        },
        {
          "id": 6,
          "value": 0.0
        },
        {
          "id": 7,
          "value": 0.0
        },
        {
          "id": 8,
          "value": 0.0
        },
        {
          "id": 9,
          "value": 0.0
        },
        {
          "id": 10,
          "value": 0.0
        },
        {
          "id": 11,
          "value": 1.0
        },
        {
          "id": 12,
          "value": 0.0
        },
        {
          "id": 13,
          "value": 0.516999245
        }
      ],
      "leftModuleId": 279,
      "rightModuleId": 281,
      "pos": [
        23,
        1
      ]
    },
    {
      "id": 281,
      "plugin": "Bogaudio",
      "version": "1.1.25",
      "model": "Bogaudio-EightFO",
      "params": [
        {
          "id": 0,
          "value": 0.0779999644
        },
        {
          "id": 1,
          "value": 3.0
        },
        {
          "id": 2,
          "value": 0.0
        },
        {
          "id": 3,
          "value": 0.0
        },
        {
          "id": 4,
          "value": 0.0
        },
        {
          "id": 5,
          "value": 0.0
        },
        {
          "id": 6,
          "value": 0.0
        },
        {
          "id": 7,
          "value": 0.0
        },
        {
          "id": 8,
          "value": 0.0
        },
        {
          "id": 9,
          "value": 0.0
        },
        {
          "id": 10,
          "value": 0.0
        },
        {
          "id": 11,
          "value": 1.0
        },
        {
          "id": 12,
          "value": 1.0
        },
        {
          "id": 13,
          "value": 0.516999245
        }
      ],
      "leftModuleId": 280,
      "pos": [
        40,
        1
      ]
    },
    {
      "id": 282,
      "plugin": "JW-Modules",
      "version": "1.0.9",
      "model": "Patterns",
      "params": [
        {
          "id": 0,
          "value": 0.0
        },
        {
          "id": 1,
          "value": 0.0
        },
        {
          "id": 2,
          "value": 0.107499994
        }
      ],
      "data": {
        "channels": 1,
        "cells": [
          0,
          0,
          0,
          0,
          0,
          0,
          0,
          0,
          0,
          0,
          0,
          0,
          1,
          0,
          0,
          0,
          0,
          0,
          0,
          0,
          0,
          0,
          0,
          1,
          0,
          0,
          0,
          0,
          0,
          0,
          0,
          0,
          1,
          0,
          0,
          0,
          0,
          0,
          0,
          0,
          0,
          0,
          0,
          1,
          0,
          0,
          0,
          0,
          0,
          0,
          0,
          0,
          0,
          0,
          0,
          0,
          0,
          0,
          0,
          0,
          0,
          0,
          0,
          0,
          0,
          0,
          0,
          0,
          0,
          0,
          0,
          0,
          1,
          0,
          0,
          0,
          0,
          0,
          0,
          0,
          0,
          0,
          0,
          0,
          0,
          0,
          0,
          0,
          0,
          0,
          1,
          0,
          0,
          1,
          0,
          0,
          0,
          1,
          0,
          0,
          0,
          0,
          0,
          0,
          0,
          0,
          0,
          0,
          0,
          0,
          0,
          0,
          0,
          0,
          0,
          0,
          0,
          0,
          1,
          0,
          0,
          0,
          0,
          0,
          0,
          0,
          0,
          0,
          0,
          0,
          0,
          0,
          1,
          1,
          0,
          0,
          0,
          0,
          0,
          1,
          0,
          0,
          0,
          1,
          0,
          0,
          0,
          0,
          0,
          1,
          0,
          0,
          0,
          0,
          0,
          1,
          0,
          0,
          0,
          0,
          0,
          0,
          0,
          0,
          0,
          0,
          0,
          0,
          0,
          0,
          0,
          0,
          0,
          0,
          0,
          0,
          0,
          0,
          0,
          0,
          0,
          0,
          0,
          0,
          1,
          0,
          0,
          0,
          0,
          0,
          0,
          0,
          0,
          0,
          0,
          1,
          0,
          0,
          0,
          0,
          0,
          0,
          0,
          0,
          1,
          0,
          0,
          0,
          0,
          1,
          0,
          0,
          0,
          0,
          0,
          0,
          0,
          0,
          0,
          0,
          0,
          0,
          0,
          0,
          0,
          0,
          1,
          0,
          0,
          0,
          0,
          0,
          0,
          0,
          0,
          0,
          0,
          0,
          0,
          0,
          0,
          0,
          0,
          0,
          0,
          0,
          0,
          1,
          0,
          0,
          0,
          0,
          0,
          0,
          0,
          0
        ]
      },
      "pos": [
        31,
        0
      ]
    },
    {
      "id": 283,
      "plugin": "Autodafe-DrumKit",
      "version": "1.0.0",
      "model": "DrumsHiHatClosed",
      "params": [
        {
          "id": 0,
          "value": 0.0
        }
      ],
      "data": {
        "sampletype": 1
      },
      "pos": [
        55,
        0
      ]
    }
  ],
  "cables": [
    {
      "id": 490,
      "outputModuleId": 192,
      "outputId": 0,
      "inputModuleId": 1,
      "inputId": 0,
      "color": "#0986ad"
    },
    {
      "id": 491,
      "outputModuleId": 192,
      "outputId": 1,
      "inputModuleId": 1,
      "inputId": 1,
      "color": "#c9b70e"
    },
    {
      "id": 492,
      "outputModuleId": 192,
      "outputId": 1,
      "inputModuleId": 7,
      "inputId": 1,
      "color": "#0c8e15"
    },
    {
      "id": 489,
      "outputModuleId": 192,
      "outputId": 0,
      "inputModuleId": 7,
      "inputId": 0,
      "color": "#0c8e15"
    },
    {
      "id": 493,
      "outputModuleId": 193,
      "outputId": 0,
      "inputModuleId": 192,
      "inputId": 12,
      "color": "#0986ad"
    },
    {
      "id": 494,
      "outputModuleId": 193,
      "outputId": 1,
      "inputModuleId": 192,
      "inputId": 28,
      "color": "#c9b70e"
    },
    {
      "id": 495,
      "outputModuleId": 192,
      "outputId": 8,
      "inputModuleId": 193,
      "inputId": 0,
      "color": "#0c8e15"
    },
    {
      "id": 496,
      "outputModuleId": 192,
      "outputId": 12,
      "inputModuleId": 193,
      "inputId": 1,
      "color": "#c91847"
    },
    {
      "id": 497,
      "outputModuleId": 195,
      "outputId": 0,
      "inputModuleId": 194,
      "inputId": 7,
      "color": "#c9b70e"
    },
    {
      "id": 498,
      "outputModuleId": 194,
      "outputId": 0,
      "inputModuleId": 192,
      "inputId": 13,
      "color": "#0c8e15"
    },
    {
      "id": 499,
      "outputModuleId": 194,
      "outputId": 1,
      "inputModuleId": 192,
      "inputId": 29,
      "color": "#0986ad"
    },
    {
      "id": 500,
      "outputModuleId": 192,
      "outputId": 13,
      "inputModuleId": 194,
      "inputId": 6,
      "color": "#c9b70e"
    },
    {
      "id": 501,
      "outputModuleId": 192,
      "outputId": 9,
      "inputModuleId": 194,
      "inputId": 5,
      "color": "#0c8e15"
    },
    {
      "id": 502,
      "outputModuleId": 196,
      "outputId": 0,
      "inputModuleId": 192,
      "inputId": 0,
      "color": "#c91847"
    },
    {
      "id": 503,
      "outputModuleId": 195,
      "outputId": 1,
      "inputModuleId": 196,
      "inputId": 5,
      "color": "#0986ad"
    },
    {
      "id": 649,
      "outputModuleId": 266,
      "outputId": 0,
      "inputModuleId": 192,
      "inputId": 1,
      "color": "#0c8e15"
    },
    {
      "id": 647,
      "outputModuleId": 265,
      "outputId": 0,
      "inputModuleId": 267,
      "inputId": 0,
      "color": "#0986ad"
    },
    {
      "id": 648,
      "outputModuleId": 265,
      "outputId": 1,
      "inputModuleId": 268,
      "inputId": 0,
      "color": "#c9b70e"
    },
    {
      "id": 652,
      "outputModuleId": 267,
      "outputId": 0,
      "inputModuleId": 270,
      "inputId": 1,
      "color": "#c9b70e"
    },
    {
      "id": 655,
      "outputModuleId": 267,
      "outputId": 2,
      "inputModuleId": 270,
      "inputId": 0,
      "color": "#0986ad"
    },
    {
      "id": 656,
      "outputModuleId": 270,
      "outputId": 0,
      "inputModuleId": 196,
      "inputId": 4,
      "color": "#0c8e15"
    },
    {
      "id": 651,
      "outputModuleId": 268,
      "outputId": 0,
      "inputModuleId": 271,
      "inputId": 1,
      "color": "#0986ad"
    },
    {
      "id": 658,
      "outputModuleId": 271,
      "outputId": 0,
      "inputModuleId": 266,
      "inputId": 4,
      "color": "#c9b70e"
    },
    {
      "id": 653,
      "outputModuleId": 271,
      "outputId": 0,
      "inputModuleId": 269,
      "inputId": 1,
      "color": "#0c8e15"
    },
    {
      "id": 654,
      "outputModuleId": 270,
      "outputId": 0,
      "inputModuleId": 269,
      "inputId": 0,
      "color": "#c91847"
    },
    {
      "id": 660,
      "outputModuleId": 271,
      "outputId": 0,
      "inputModuleId": 272,
      "inputId": 0,
      "color": "#c91847"
    },
    {
      "id": 661,
      "outputModuleId": 272,
      "outputId": 0,
      "inputModuleId": 192,
      "inputId": 2,
      "color": "#0986ad"
    },
    {
      "id": 668,
      "outputModuleId": 195,
      "outputId": 3,
      "inputModuleId": 271,
      "inputId": 0,
      "color": "#0986ad"
    },
    {
      "id": 650,
      "outputModuleId": 195,
      "outputId": 1,
      "inputModuleId": 266,
      "inputId": 5,
      "color": "#c91847"
    },
    {
      "id": 659,
      "outputModuleId": 195,
      "outputId": 2,
      "inputModuleId": 265,
      "inputId": 2,
      "color": "#0c8e15"
    },
    {
      "id": 669,
      "outputModuleId": 195,
      "outputId": 2,
      "inputModuleId": 265,
      "inputId": 5,
      "color": "#c9b70e"
    },
    {
      "id": 666,
      "outputModuleId": 276,
      "outputId": 1,
      "inputModuleId": 274,
      "inputId": 1,
      "color": "#c9b70e"
    },
    {
      "id": 675,
      "outputModuleId": 267,
      "outputId": 0,
      "inputModuleId": 276,
      "inputId": 5,
      "color": "#c91847"
    },
    {
      "id": 667,
      "outputModuleId": 276,
      "outputId": 0,
      "inputModuleId": 274,
      "inputId": 0,
      "color": "#0c8e15"
    },
    {
      "id": 672,
      "outputModuleId": 276,
      "outputId": 0,
      "inputModuleId": 192,
      "inputId": 3,
      "color": "#0986ad"
    },
    {
      "id": 684,
      "outputModuleId": 280,
      "outputId": 0,
      "inputModuleId": 279,
      "inputId": 0,
      "color": "#c9b70e"
    },
    {
      "id": 685,
      "outputModuleId": 280,
      "outputId": 0,
      "inputModuleId": 192,
      "inputId": 41,
      "color": "#0c8e15"
    },
    {
      "id": 686,
      "outputModuleId": 280,
      "outputId": 1,
      "inputModuleId": 192,
      "inputId": 42,
      "color": "#c91847"
    },
    {
      "id": 687,
      "outputModuleId": 280,
      "outputId": 2,
      "inputModuleId": 192,
      "inputId": 44,
      "color": "#0986ad"
    },
    {
      "id": 690,
      "outputModuleId": 281,
      "outputId": 0,
      "inputModuleId": 192,
      "inputId": 35,
      "color": "#c91847"
    },
    {
      "id": 689,
      "outputModuleId": 281,
      "outputId": 1,
      "inputModuleId": 192,
      "inputId": 33,
      "color": "#0c8e15"
    },
    {
      "id": 688,
      "outputModuleId": 281,
      "outputId": 2,
      "inputModuleId": 192,
      "inputId": 32,
      "color": "#c9b70e"
    },
    {
      "id": 691,
      "outputModuleId": 281,
      "outputId": 0,
      "inputModuleId": 279,
      "inputId": 1,
      "color": "#0986ad"
    },
    {
      "id": 695,
      "outputModuleId": 283,
      "outputId": 0,
      "inputModuleId": 192,
      "inputId": 4,
      "color": "#c9b70e"
    },
    {
      "id": 692,
      "outputModuleId": 195,
      "outputId": 0,
      "inputModuleId": 282,
      "inputId": 0,
      "color": "#c9b70e"
    },
    {
      "id": 694,
      "outputModuleId": 282,
      "outputId": 15,
      "inputModuleId": 283,
      "inputId": 0,
      "color": "#0986ad"
    }
  ]
}